<?xml version="1.0" encoding="utf-8"?>
<!-- Generator: Adobe Illustrator 26.4.1, SVG Export Plug-In . SVG Version: 6.00 Build 0)  -->
<svg version="1.1" id="Layer_2_00000142169440492165532440000012095179538885799560_"
	 xmlns="http://www.w3.org/2000/svg" xmlns:xlink="http://www.w3.org/1999/xlink" x="0px" y="0px" viewBox="0 0 500 350"
	 style="enable-background:new 0 0 500 350;" xml:space="preserve">
<style type="text/css">
	.st0{fill:#4EF09D;}
	.st1{fill:#666666;}
	.st2{fill:#015945;}
	.st3{fill:#02A67F;}
	.st4{fill:none;}
	.st5{fill:#CAFBE2;}
	.st6{fill:#FFFFFF;}
</style>
<g>
	<path class="st0" d="M36.3,299.6c-0.5,0-0.9-0.3-1-0.8c-4-17.6-6-35.9-6-54.2c0-65.3,25.4-126.8,71.7-173
		C147.1,25.4,208.6,0,273.9,0c57.5,0,113.4,20.4,157.3,57.3c0.4,0.4,0.5,1,0.1,1.4c-0.4,0.4-1,0.5-1.4,0.1C386.4,22.2,331,2,273.9,2
		C140.1,2,31.3,110.8,31.3,244.6c0,18.2,2,36.3,6,53.8c0.1,0.5-0.2,1.1-0.8,1.2C36.4,299.6,36.4,299.6,36.3,299.6z"/>
</g>
<g>
	<path class="st1" d="M1,350c-0.2,0-0.4-0.1-0.6-0.2c-0.5-0.3-0.6-0.9-0.2-1.4L35.5,298c0.2-0.3,0.5-0.4,0.8-0.4H67c0.6,0,1,0.4,1,1
		s-0.4,1-1,1H36.8l-35,50C1.6,349.9,1.3,350,1,350z"/>
</g>
<g>
	<path class="st1" d="M243.4,249.6c-0.2,0-0.4-0.1-0.6-0.2c-0.5-0.3-0.6-0.9-0.2-1.4L256,229c0.2-0.3,0.5-0.4,0.8-0.4h25.8
		c0.6,0,1,0.4,1,1s-0.4,1-1,1h-25.3l-13.1,18.6C244.1,249.5,243.8,249.6,243.4,249.6z"/>
</g>
<g>
	<path class="st1" d="M417.1,230.6h-38.5c-0.6,0-1-0.4-1-1s0.4-1,1-1h38.5c0.6,0,1,0.4,1,1S417.6,230.6,417.1,230.6z"/>
</g>
<g>
	<path class="st2" d="M95.2,291.5v11.8c-0.7,0-1.3-0.1-2-0.1c-0.8-0.1-2.8-0.2-5.5-0.5c-2.7-0.3-6-0.6-9.4-1.2v-10.8
		c0.9,0.1,1.6,0.1,2,0.1c2.4,0.2,4.9,0.3,7.4,0.4C90.1,291.4,92.6,291.5,95.2,291.5z"/>
	<path class="st2" d="M95.1,304.3C95.1,304.3,95.1,304.3,95.1,304.3c-0.7,0-1.4-0.1-2.1-0.1l-0.4,0c-1-0.1-2.8-0.2-5.1-0.4
		c-3.4-0.3-6.6-0.7-9.4-1.2c-0.5-0.1-0.8-0.5-0.8-1v-10.8c0-0.3,0.1-0.5,0.3-0.7c0.2-0.2,0.5-0.3,0.8-0.3c0.9,0.1,1.6,0.1,2,0.1
		c2.6,0.2,5,0.3,7.4,0.4c2.5,0.1,5,0.2,7.5,0.2c0.5,0,1,0.5,1,1v11.8c0,0.3-0.1,0.5-0.3,0.7C95.7,304.2,95.4,304.3,95.1,304.3z
		 M79.2,300.6c2.6,0.4,5.4,0.8,8.5,1.1c2.3,0.2,4.1,0.4,5.1,0.4l0.4,0c0.3,0,0.6,0,0.9,0.1v-9.7c-2.2,0-4.4-0.1-6.6-0.2
		c-2.4-0.1-4.8-0.2-7.4-0.4c-0.2,0-0.5,0-0.9-0.1V300.6z"/>
</g>
<g>
	<path class="st2" d="M78.2,302.5c-0.1,0-0.1,0-0.2,0c-4.9-0.8-8.8-1.8-11.5-3c-3-1.3-4.7-2.8-5.1-4.5c0-0.1,0-0.2,0-0.2v-6
		c0-0.3,0.1-0.6,0.4-0.8c0.2-0.2,0.5-0.3,0.8-0.2c4.4,0.9,9,1.4,12.1,1.7c1.2,0.1,2.3,0.2,3.2,0.3l0.3,0c0.5,0,0.9,0.5,0.9,1v10.8
		c0,0.3-0.1,0.6-0.4,0.8C78.7,302.4,78.5,302.5,78.2,302.5z M63.5,294.6c0.3,1,1.7,2.1,3.9,3.1c2.3,1,5.7,1.9,9.9,2.7v-8.7
		c-0.8-0.1-1.7-0.1-2.7-0.2c-2.9-0.3-7.1-0.8-11.1-1.5V294.6z"/>
</g>
<g>
	<path class="st2" d="M110.5,304.8c-3.3,0-6.6-0.1-10-0.2c-1.8-0.1-3.6-0.2-5.4-0.3c-0.5,0-0.9-0.5-0.9-1v-11.8
		c0-0.3,0.1-0.5,0.3-0.7c0.2-0.2,0.4-0.3,0.7-0.3c0,0,0,0,0,0l0.2,0c1.1,0,2.2,0,3.3,0c2.4,0,4.5-0.1,6.5-0.1c0,0,0.1,0,0.1,0
		c0.1,0,0.1,0,0.2,0c0.1,0,0.1,0,0.2,0c4.2,0.1,8.4,0.1,12.5-0.1c5.8-0.2,11.6-0.8,17.3-1.6c2.5-0.4,5-0.8,7.3-1.2
		c0.2,0,0.5-0.1,0.8-0.1c0.3,0,0.5-0.1,0.8-0.2c0,0,0.1,0,0.1,0c0,0,0.1,0,0.2,0c2.4-0.5,5.5-1,8.1-2c0.3-0.1,0.5-0.2,0.8-0.3
		c1.3-0.6,2.3-1.2,3.1-1.9c0.7-0.6,1.1-1.2,1.2-1.7c0.1-0.5,0.6-0.9,1.1-0.8c0.5,0,0.9,0.5,0.9,1l0,11c0,0.4,0,0.6,0,0.9
		c0,0.3,0,0.5,0,0.7c0,0.1,0,0.3,0,0.4c0,0.1,0,0.2-0.1,0.3c-0.6,1.8-2.4,3.3-5.6,4.5c-0.3,0.1-0.6,0.2-0.9,0.3
		c-2.8,1-5.9,1.5-8,1.9l-0.4,0.1c0,0-0.1,0-0.3,0c-0.2,0-0.3,0.1-0.5,0.1c-8,1.6-16.7,2.6-25.9,2.9
		C115.6,304.8,113,304.8,110.5,304.8z M96.1,302.4c1.5,0.1,2.9,0.2,4.4,0.2c5.9,0.3,11.7,0.3,17.4,0.1c9.1-0.3,17.7-1.3,25.5-2.9
		c0.2,0,0.4-0.1,0.6-0.1l0.6-0.1c2-0.4,5.1-0.9,7.7-1.8c0.3-0.1,0.5-0.2,0.8-0.3c2.4-1,3.9-2,4.4-3.2c0-0.1,0-0.1,0-0.2
		c0-0.2,0-0.4,0-0.6c0-0.3,0-0.6-0.1-1l0-7.9c-0.9,0.8-2.1,1.5-3.5,2.1c-0.3,0.1-0.6,0.2-0.9,0.4c-2.8,1.1-5.9,1.7-8.5,2.1
		c-0.1,0-0.2,0-0.3,0c-0.3,0.1-0.5,0.1-0.8,0.1c-0.3,0-0.5,0.1-0.8,0.1c-2.4,0.4-4.8,0.9-7.4,1.2c-5.7,0.8-11.6,1.3-17.5,1.6
		c-4.1,0.2-8.3,0.2-12.5,0.1c-0.1,0-0.3,0-0.4,0c-2,0.1-4.1,0.1-6.5,0.1c-0.8,0-1.6,0-2.4,0V302.4z M158.6,294.4L158.6,294.4
		L158.6,294.4z"/>
</g>
<g>
	<path class="st2" d="M76.3,279.1C76.3,279.1,76.2,279.1,76.3,279.1c-0.6-0.1-1.2-0.1-1.7-0.2c-0.2,0-0.4,0-0.7-0.1
		c-0.2,0-0.4,0-0.6-0.1l-0.2,0c0,0-0.1,0-0.1,0c0,0-0.1,0-0.1,0c-0.5-0.1-0.8-0.5-0.8-1c0-0.1,0-0.1,0-0.2c0.1-0.5,0.6-0.9,1.2-0.8
		l0.1,0c0,0,0.1,0,0.1,0c0,0,0,0,0,0c1,0.1,1.9,0.2,2.9,0.3c0.5,0.1,0.9,0.5,0.9,1.1C77.2,278.7,76.8,279.1,76.3,279.1z"/>
</g>
<g>
	<path class="st2" d="M91.1,280C91.1,280,91.1,280,91.1,280c-1.2,0-2.4-0.1-3.5-0.1c-0.8,0-1.7-0.1-2.5-0.1c-0.5,0-1-0.5-0.9-1.1
		c0-0.5,0.5-1,1.1-0.9c2.1,0.1,4.1,0.2,5.9,0.3c0.5,0,1,0.5,1,1C92.1,279.6,91.6,280,91.1,280z"/>
</g>
<g>
	<path class="st2" d="M98.6,280.1h-1.3c-0.6,0-1-0.4-1-1s0.4-1,1-1c1,0,2,0,2.9,0c0.5,0,1,0.4,1,1c0,0.5-0.4,1-1,1
		C99.7,280.1,99.2,280.1,98.6,280.1z"/>
</g>
<g>
	<path class="st2" d="M103.4,280c-0.5,0-1-0.4-1-1c0-0.5,0.4-1,1-1l3-0.1c0.5,0,1,0.4,1,0.9c0,0.5-0.4,1-0.9,1.1
		c-0.5,0-0.9,0.1-1.4,0.1C104.6,280,104,280,103.4,280C103.5,280,103.4,280,103.4,280z"/>
</g>
<g>
	<path class="st2" d="M106.5,279.9c-0.5,0-1-0.4-1-1c0-0.5,0.4-1,0.9-1c1,0,1.9-0.1,2.9-0.2c0,0,0.1,0,0.1,0c0,0,0,0,0,0
		c0,0,0,0,0.1,0c0.5,0,1,0.4,1,0.9c0,0.6-0.4,1-0.9,1.1c0,0-0.1,0-0.1,0c-0.7,0-1.4,0.1-2,0.1C107.1,279.9,106.8,279.9,106.5,279.9
		C106.5,279.9,106.5,279.9,106.5,279.9z"/>
</g>
<g>
	<path class="st2" d="M116.1,279.2c-0.5,0-0.9-0.4-1-0.9c-0.1-0.5,0.3-1,0.9-1.1c2.2-0.2,4.2-0.5,6.2-0.8c0,0,0.1,0,0.1,0h0.1
		c0.5,0,1,0.4,1,0.9c0,0.5-0.3,1-0.9,1.1c-2.3,0.3-4.4,0.6-6.3,0.8C116.2,279.2,116.2,279.2,116.1,279.2z"/>
</g>
<g>
	<path class="st2" d="M110,292.4c-1.5,0-3,0-4.6,0c-0.5,0-1-0.5-1-1s0.4-1,1-1c7.6-0.3,14.9-1,21.8-2.2c1-0.2,2.1-0.4,3.1-0.6
		c0,0,0.1,0,0.1,0c0.1,0,0.1,0,0.1,0c0.4-0.1,0.9-0.2,1.4-0.3c2.1-0.4,5-0.9,7.6-1.8c2.8-1,4.6-2.2,5.1-3.5c0-0.1,0-0.1,0-0.2
		c0-0.2,0-0.4,0-0.6c0-0.3,0-0.6,0-1.1v-5c0-0.5,0.4-0.9,0.8-1c0.7-0.1,1.4-0.2,2.1-0.4c0.1,0,0.3,0,0.4,0c0.1,0,0.3,0.1,0.4,0.1
		c1.5,0.4,2.8,0.8,4,1.3c0.2,0.1,0.5,0.2,0.7,0.3c0.3,0.1,0.6,0.2,0.9,0.3c3.1,1.3,4.9,2.7,5.4,4.3c0,0.1,0.1,0.3,0.1,0.4
		c0,0.1,0,0.1,0,0.2v0.7c0,0.1,0,0.1,0,0.2c-0.2,1-0.8,1.9-1.8,2.8c-1,0.8-2.2,1.6-3.6,2.2c-0.3,0.1-0.6,0.2-0.9,0.4
		c-2.8,1.1-5.9,1.7-8.5,2.1c-0.1,0-0.2,0-0.3,0c-0.2,0-0.5,0.1-0.8,0.2c-0.3,0-0.5,0.1-0.8,0.1c-2.4,0.4-4.8,0.9-7.4,1.2
		c-5.7,0.8-11.6,1.3-17.5,1.6C115.4,292.4,112.7,292.4,110,292.4z M146.6,276v4.1c0,0.4,0,0.7,0,1c0,0.2,0,0.4,0,0.7
		c0,0.1,0,0.3,0,0.5c0,0.1,0,0.2-0.1,0.2c-0.7,2-2.8,3.6-6.4,4.9c-1.9,0.7-4,1.1-5.7,1.5c0.3,0,0.5-0.1,0.8-0.1
		c2.5-0.4,5-0.8,7.3-1.2c0.2,0,0.5-0.1,0.8-0.1c0.3,0,0.5-0.1,0.8-0.2l0.3,1l-0.2-1l0.1,0c2.4-0.5,5.5-1,8.1-2
		c0.3-0.1,0.5-0.2,0.8-0.3c1.3-0.6,2.3-1.2,3.1-1.9c0.7-0.6,1-1.1,1.2-1.6v-0.5c0,0,0-0.1,0-0.1c-0.2-0.6-1-1.7-4.2-3.1
		c-0.3-0.1-0.5-0.2-0.8-0.3c-0.3-0.1-0.5-0.2-0.7-0.3c-1.2-0.4-2.5-0.8-3.9-1.2c0,0,0,0-0.1,0C147.4,275.8,147,275.9,146.6,276z"/>
</g>
<g>
	<path class="st3" d="M49.6,268.6c0,0.1,0,0.2-0.1,0.2c0,0.1,0,0.2,0,0.3v-1C49.5,268.3,49.6,268.4,49.6,268.6z"/>
</g>
<g>
	<path class="st4" d="M49.6,268.6c0,0.1,0,0.2-0.1,0.2c0,0.1,0,0.2,0,0.3v-1C49.5,268.3,49.6,268.4,49.6,268.6z"/>
</g>
<g>
	<path class="st2" d="M98.5,292.5c-1.1,0-2.2,0-3.3,0c-2.5,0-5.1-0.1-7.6-0.2c-2.4-0.1-4.8-0.2-7.4-0.4c-0.4,0-1.1-0.1-2-0.1l-0.4,0
		c-0.9-0.1-2-0.2-3.2-0.3c-3.2-0.3-7.9-0.8-12.3-1.7c-8.5-1.7-13-4-13.7-7c0-0.1,0-0.2,0-0.2v-13.2c0-0.6,0.4-1,1-1s1,0.4,1,1
		c0,0,0,0.1,0,0.1c0,0,0,0,0,0c0,0,0,0,0,0c0,0,0,0.1,0,0.1c0,0,0.1,0.2,0.1,0.2c0,0,0.1,0.1,0.1,0.1c0.2,0.3,0.7,0.8,1.3,1.2
		l0.6,0.4c0.1,0.1,0.2,0.1,0.4,0.2l1,0.5c0.2,0.1,0.4,0.2,0.6,0.3c0.1,0,0.3,0.1,0.5,0.2l0.2,0.1l0,0c0,0,0,0,0.1,0
		c0.4,0.2,0.8,0.3,1.2,0.4c0.4,0.1,0.8,0.3,1.2,0.4l1.2,0.4c1.8,0.5,3.8,1,6,1.5c0.2,0,0.3,0.1,0.4,0.1l0.2,0
		c0.3,0.1,0.5,0.1,0.8,0.2l0.5,0.1c0.3,0.1,0.6,0.1,0.8,0.2c0.1,0,0.2,0,0.3,0c0,0,0,0,0,0l1.1,0.2c0.2,0,0.5,0.1,0.7,0.1l0.3,0
		c0,0,0.1,0,0.1,0l0.2,0c0.2,0,0.3,0.1,0.5,0.1l1.2,0.2c0.1,0,0.3,0,0.4,0.1c0,0,0.1,0,0.2,0l0.2,0c0.2,0,0.3,0,0.4,0
		c0,0,0.1,0,0.1,0l0.1,0c0.1,0,0.1,0,0.2,0c0.1,0,0.4,0,0.6,0.1c0.2,0,0.4,0,0.6,0.1c0.5,0.1,1.1,0.1,1.6,0.2
		c1.9,0.2,3.9,0.4,5.9,0.5c1,0.1,2,0.1,2.9,0.2c0.8,0.1,1.6,0.1,2.5,0.1c1.1,0,2.3,0.1,3.5,0.1l0.2,0c0.7,0,1.4,0,2,0
		c0.7,0,1.5,0,2.2,0c1,0,2,0,3,0c0.5,0,1.1,0,1.6,0c1.1,0,2.1,0,3.2-0.1c0.4,0,0.9,0,1.3,0l0.4,0c0.4,0,0.9,0,1.4-0.1
		c0.3,0,0.6,0,0.8,0l0.2,0c0.7,0,1.4-0.1,2.1-0.1c0.1,0,0.2,0,0.3,0c1-0.1,2-0.1,3-0.2c0,0,0.1,0,0.1,0c0.9-0.1,2-0.2,3-0.3
		c0.1,0,0.2,0,0.3,0c1.9-0.2,3.9-0.4,6.2-0.8c0,0,0.1,0,0.1,0c4.7-0.1,9.3-0.5,13.7-1c3.2-0.3,6.3-0.8,9.2-1.3
		c0.3-0.1,0.6,0,0.8,0.2c0.2,0.2,0.4,0.5,0.4,0.8v5c0,0.4,0,0.7,0,0.9c0,0.3,0,0.5,0,0.7c0,0.1,0,0.3,0,0.5c0,0.1,0,0.2-0.1,0.2
		c-0.7,2-2.8,3.6-6.4,4.9c-2.7,0.9-5.8,1.5-7.9,1.9c-0.5,0.1-1,0.2-1.4,0.3c-0.1,0-0.2,0-0.3,0.1c-1,0.2-2.1,0.4-3.1,0.6
		c-6.9,1.2-14.4,2-22,2.2c-0.1,0-0.3,0-0.4,0c-2,0.1-4.1,0.1-6.5,0.1C98.6,292.5,98.5,292.5,98.5,292.5z M50.5,282.3
		c0.4,1.2,2.5,3.5,12.1,5.4c4.4,0.9,9,1.4,12.1,1.7c1.2,0.1,2.3,0.2,3.2,0.3l0.3,0c0.9,0.1,1.6,0.1,2,0.1c2.6,0.2,5,0.3,7.4,0.4
		c2.5,0.1,5,0.2,7.5,0.2c1.1,0,2.3,0,3.4,0c2.4,0,4.5-0.1,6.5-0.1c0.1,0,0.2,0,0.3,0c7.6-0.3,15-1,21.8-2.2c1-0.2,2.1-0.4,3.1-0.6
		c0,0,0.1,0,0.1,0c0.1,0,0.1,0,0.1,0c0.4-0.1,0.9-0.2,1.4-0.3c2.1-0.4,5-0.9,7.6-1.8c2.8-1,4.6-2.2,5.1-3.5c0-0.1,0-0.1,0-0.2
		c0-0.2,0-0.4,0-0.6c0-0.3,0-0.6,0-1v-3.8c-2.7,0.4-5.4,0.8-8.2,1.1c-4.5,0.5-9.1,0.8-13.9,1c-2.2,0.3-4.3,0.6-6.2,0.8
		c-0.1,0-0.2,0-0.3,0c-0.9,0.1-2,0.2-3,0.3c0,0-0.1,0-0.1,0c-1,0.1-2,0.2-3,0.2c0,0-0.2,0-0.2,0c-0.6,0.1-1.3,0.1-2.1,0.1l-0.1,0
		c-0.3,0-0.6,0-0.9,0c-0.4,0-0.9,0-1.3,0.1l-0.4,0c-0.4,0-0.9,0-1.3,0c-1,0-2.1,0.1-3.2,0.1c-0.5,0-1.1,0-1.7,0c-1,0-2,0-3.1,0
		c-0.7,0-1.5,0-2.2,0c-0.7,0-1.4,0-2,0l-0.2,0c-1.2,0-2.3-0.1-3.5-0.1c-0.8,0-1.7-0.1-2.5-0.1c-1,0-2-0.1-3-0.2
		c-2-0.1-4-0.3-5.9-0.5c-0.5,0-1.1-0.1-1.6-0.2c-0.2,0-0.4,0-0.7-0.1c-0.2,0-0.4,0-0.6-0.1l-0.2,0c-0.1,0-0.1,0-0.2,0
		c-0.1,0-0.3,0-0.4,0c0,0-0.1,0-0.2,0l-0.2,0c-0.2,0-0.3,0-0.4-0.1l-1.2-0.2c-0.2,0-0.3-0.1-0.5-0.1l-0.5-0.1
		c-0.2,0-0.5-0.1-0.7-0.1l-1.1-0.2c0,0,0,0,0,0c0,0-0.1,0-0.2,0c0,0-0.1,0-0.1,0c-0.3-0.1-0.6-0.1-0.9-0.2l-0.5-0.1
		c-0.3-0.1-0.5-0.1-0.8-0.2l-0.2,0c-0.2,0-0.3-0.1-0.5-0.1c-2.2-0.5-4.3-1-6.1-1.5l-1.3-0.4c-0.4-0.1-0.8-0.3-1.2-0.4
		c-0.5-0.2-0.9-0.3-1.3-0.5c0,0-0.1,0-0.1,0l-0.1-0.1c-0.2-0.1-0.3-0.1-0.4-0.2c-0.3-0.1-0.5-0.2-0.7-0.3l-2.2-1.2
		c-0.1-0.1-0.3-0.2-0.4-0.3V282.3z M145.7,282.1L145.7,282.1L145.7,282.1z M67.5,277.8C67.5,277.8,67.5,277.8,67.5,277.8
		C67.5,277.8,67.5,277.8,67.5,277.8z"/>
</g>
<g>
	<path class="st3" d="M97.3,280.1c-0.6,0-1.2,0-1.8,0c-0.7,0-1.5,0-2.3,0c-0.7,0-1.5,0-2.2,0c-1.9-0.1-3.8-0.1-6-0.3
		c-1-0.1-2-0.1-3-0.2c-1.8-0.1-3.8-0.3-5.9-0.5c-1-0.1-2-0.2-2.9-0.3c-0.1,0-0.2,0-0.3,0c-0.1,0-0.3,0-0.4,0c0,0-0.1,0-0.2,0l-0.2,0
		c-0.2,0-0.3,0-0.4-0.1l-1.2-0.2c-0.2,0-0.3-0.1-0.5-0.1l-0.5-0.1c-0.2,0-0.5-0.1-0.7-0.1l-1.1-0.2c-0.1,0-0.2,0-0.2,0
		c-0.4-0.1-0.7-0.1-1-0.2l-0.5-0.1c-0.3-0.1-0.5-0.1-0.8-0.2l-0.2,0c-0.2,0-0.3-0.1-0.5-0.1c-2.2-0.5-4.3-1-6.1-1.5l-1.3-0.4
		c-0.4-0.1-0.8-0.3-1.2-0.4c-0.5-0.2-0.9-0.3-1.3-0.5c0,0-0.1,0-0.1,0l-0.1-0.1c-0.2-0.1-0.3-0.1-0.4-0.2c-0.3-0.1-0.5-0.2-0.7-0.3
		l-2.2-1.2c-0.9-0.6-1.5-1.2-1.9-1.8c-0.1-0.1-0.1-0.2-0.1-0.3c-0.1-0.1-0.1-0.2-0.2-0.4c0-0.1-0.1-0.2-0.1-0.4c0,0,0-0.1,0-0.1
		c0,0,0,0,0,0c0-0.2,0-0.3,0-0.5v-0.1c0-0.1,0-0.2,0-0.3c0,0,0-0.1,0-0.2l0.1-0.2c0.3-1.2,1.3-2.2,3-3.3c4.5-2.8,10.4-3.8,15.6-4.6
		l0.6-0.1c0.3,0,0.6,0,0.8,0.2c0.2,0.2,0.4,0.5,0.4,0.8v6.9c0.3,0.9,1.5,2.5,6.7,4.1l0.4,0.1c0.2,0.1,0.4,0.1,0.7,0.2
		c0.6,0.2,1.2,0.3,1.9,0.5c1.5,0.4,3.1,0.7,4.8,1c2.9,0.5,6.1,0.9,9.7,1.3c2.4,0.2,4.3,0.4,5.2,0.4l0.3,0c0.9,0.1,1.8,0.1,2.8,0.2
		c1.5,0.1,3.1,0.2,4.6,0.3c5.6,0.2,11.1,0.3,16.2,0.1c0.5,0,1,0.4,1,0.9c0,0.5-0.3,1-0.9,1.1c-2,0.3-4,0.5-6.2,0.8c0,0-0.1,0-0.1,0
		c-1.1,0.1-2.1,0.2-3.2,0.3c0,0-0.1,0-0.1,0c-1,0.1-2,0.2-3,0.2c0,0-0.2,0-0.3,0c-1,0.1-2.1,0.1-3.1,0.2l-3,0.1
		c-1.1,0-2.1,0.1-3.2,0.1C99.3,280.1,98.3,280.1,97.3,280.1z M95.5,278.1c1.6,0,3.1,0,4.7,0c0.6,0,1.1,0,1.7,0c-0.2,0-0.3,0-0.5,0
		c-0.9,0-1.9-0.1-2.8-0.2l-0.3,0c-1-0.1-2.9-0.2-5.3-0.4c-3.7-0.4-7-0.8-9.9-1.3c-1.8-0.3-3.4-0.6-5-1c-0.7-0.2-1.3-0.3-1.9-0.5
		c-0.2-0.1-0.5-0.1-0.7-0.2l-0.4-0.1c-4.9-1.5-7.6-3.4-8.1-5.6c0-0.1,0-0.2,0-0.2v-5.8c-4.9,0.8-10.3,1.7-14.3,4.2
		c-1.5,0.9-2,1.6-2.1,2l0,0.2c0,0,0,0.1,0,0.1v0.1c0,0,0,0.1,0,0.1c0,0,0,0,0,0c0,0.1,0,0.1,0.1,0.2c0,0,0.1,0.2,0.1,0.2
		c0,0,0.1,0.1,0.1,0.1c0.2,0.3,0.7,0.8,1.3,1.2l0.6,0.4c0.1,0.1,0.2,0.1,0.4,0.2l1,0.5c0.2,0.1,0.4,0.2,0.6,0.3
		c0.1,0,0.3,0.1,0.5,0.2l0.2,0.1l0,0c0,0,0,0,0.1,0c0.4,0.2,0.8,0.3,1.2,0.5c0.4,0.1,0.8,0.3,1.2,0.4l1.2,0.4c1.8,0.5,3.8,1,6,1.5
		c0.2,0,0.3,0.1,0.4,0.1l0.2,0c0.3,0.1,0.5,0.1,0.8,0.2l0.5,0.1c0.3,0.1,0.6,0.1,0.9,0.2c0,0,0,0,0,0c0,0,0.1,0,0.1,0
		c0,0,0.1,0,0.1,0l1.1,0.2c0.2,0,0.5,0.1,0.7,0.1l0.3,0c0,0,0.1,0,0.1,0l0.2,0c0.2,0,0.3,0.1,0.5,0.1l1.2,0.2c0.1,0,0.3,0,0.4,0.1
		c0,0,0.1,0,0.2,0l0.2,0c0.2,0,0.3,0,0.4,0c0,0,0.1,0,0.1,0c0.1,0,0.2,0,0.2,0c1,0.1,2,0.2,2.9,0.3c2.1,0.2,4.1,0.4,5.9,0.5
		c1,0.1,2,0.1,2.9,0.2c2.1,0.1,4.1,0.2,5.9,0.3c0.7,0,1.5,0,2.2,0.1C94.1,278.1,94.8,278.1,95.5,278.1z"/>
</g>
<g>
	<path class="st3" d="M68.1,254.6c-0.1,0.2-0.1,0.3-0.1,0.5v-1C68,254.3,68,254.4,68.1,254.6z"/>
</g>
<g>
	<path class="st4" d="M68.1,254.6c-0.1,0.2-0.1,0.3-0.1,0.5v-1C68,254.3,68,254.4,68.1,254.6z"/>
</g>
<g>
	<path class="st0" d="M101.4,264.6V277c-0.9,0-1.9-0.1-2.8-0.2c-0.8-0.1-2.8-0.2-5.5-0.5c-2.8-0.3-6.3-0.7-9.8-1.3v-12.8
		c0.3,0.1,0.5,0.1,0.8,0.2c0.3,0.1,0.6,0.1,0.9,0.2c1.6,0.3,3,0.5,4.1,0.7c0.2,0,0.4,0,0.5,0.1c0.2,0,0.4,0,0.5,0.1
		c0.2,0,0.5,0.1,0.6,0.1c0.1,0,0.2,0,0.3,0c0.2,0,0.5,0.1,0.7,0.1c0.4,0,0.9,0.1,1.3,0.1C95.9,264.2,98.7,264.4,101.4,264.6
		L101.4,264.6z"/>
	<path class="st0" d="M101.4,278C101.4,278,101.4,278,101.4,278c-1-0.1-1.9-0.1-2.9-0.2l-0.3,0c-1-0.1-2.9-0.2-5.3-0.4
		c-3.7-0.4-7-0.8-9.9-1.3c-0.5-0.1-0.8-0.5-0.8-1v-12.8c0-0.3,0.1-0.6,0.4-0.8c0.2-0.2,0.6-0.3,0.8-0.2c0.2,0,0.4,0.1,0.6,0.1l0.1,0
		c0.3,0.1,0.5,0.1,0.7,0.1l0.2,0c1.6,0.3,3,0.5,4,0.7c0.2,0,0.4,0,0.6,0.1l0.2,0c0.1,0,0.2,0,0.4,0.1l0.6,0.1c0.1,0,0.2,0,0.2,0
		l0.2,0c0.2,0,0.4,0,0.6,0.1c0.5,0.1,0.9,0.1,1.3,0.1c2.9,0.3,5.7,0.6,8.3,0.7c0.5,0,0.9,0.5,0.9,1V277c0,0.3-0.1,0.5-0.3,0.7
		C101.9,277.9,101.7,278,101.4,278z M84.3,274.3c2.7,0.4,5.7,0.8,8.9,1.1c2.4,0.2,4.3,0.4,5.2,0.4l0.3,0c0.6,0,1.1,0.1,1.7,0.1
		v-10.4c-2.4-0.2-4.9-0.4-7.4-0.7c-0.4,0-0.9-0.1-1.3-0.1c-0.2,0-0.4,0-0.6-0.1l-0.1,0c-0.1,0-0.2,0-0.4,0l-0.6-0.1
		c-0.1,0-0.2,0-0.3,0l-0.2,0c-0.2,0-0.3-0.1-0.5-0.1c-1.1-0.2-2.6-0.4-4.1-0.7l-0.2,0c-0.1,0-0.2,0-0.3-0.1V274.3z"/>
</g>
<g>
	<path class="st0" d="M83.3,276.1c-0.1,0-0.1,0-0.2,0c-1.8-0.3-3.4-0.6-5-1c-0.7-0.2-1.3-0.3-1.9-0.5c-0.4-0.1-0.7-0.5-0.7-1v-13
		c0-0.7,0.7-1.2,1.4-0.9l0,0l1,0.3c0.1,0,0.3,0.1,0.5,0.1c0.1,0,0.3,0.1,0.4,0.1c0.3,0.1,0.6,0.2,0.9,0.2l0,0c0,0,0.1,0,0.1,0
		c0.3,0.1,0.7,0.2,1,0.3c0.3,0.1,0.6,0.1,0.9,0.2c0.4,0.1,0.7,0.2,1.1,0.2l0.7,0.1c0.5,0.1,0.8,0.6,0.8,1.1c0,0,0,0,0,0v12.7
		c0,0.3-0.1,0.6-0.4,0.8C83.8,276,83.5,276.1,83.3,276.1z M77.5,272.9c0.4,0.1,0.8,0.2,1.1,0.3c1.1,0.3,2.4,0.5,3.7,0.8v-10.8
		c-0.3-0.1-0.7-0.2-1.1-0.2c-0.3-0.1-0.6-0.1-0.8-0.2c-0.3-0.1-0.7-0.2-1-0.2c0,0-0.1,0-0.1,0l-0.1,0c-0.3-0.1-0.5-0.2-0.8-0.2
		c-0.2,0-0.4-0.1-0.5-0.1c-0.1,0-0.2-0.1-0.3-0.1V272.9z"/>
</g>
<g>
	<path class="st0" d="M76.5,260.6v13c-0.4-0.1-0.7-0.2-1.1-0.3v-13.1l0.2,0.1c0,0,0.1,0,0.2,0h0C76,260.4,76.2,260.5,76.5,260.6z"/>
	<path class="st0" d="M76.5,274.6c-0.1,0-0.2,0-0.3,0c-0.2-0.1-0.5-0.1-0.7-0.2l-0.4-0.1c-0.4-0.1-0.7-0.5-0.7-1v-13.1
		c0-0.3,0.2-0.6,0.4-0.8c0.3-0.2,0.6-0.2,0.9-0.1l0.2,0.1c0,0,0.1,0,0.1,0c0,0,0,0,0.1,0c0.2,0.1,0.5,0.2,0.7,0.2
		c0.4,0.1,0.7,0.5,0.7,1v13c0,0.3-0.1,0.6-0.4,0.8C76.9,274.6,76.7,274.6,76.5,274.6z"/>
</g>
<g>
	<path class="st0" d="M75.4,274.3c-0.1,0-0.2,0-0.3,0c-4.9-1.5-7.6-3.3-8.1-5.6c0-0.1,0-0.2,0-0.2v-13.2c0-0.6,0.4-1,1-1s1,0.4,1,1
		c0,0,0,0.1,0,0.1c0,0,0,0,0,0.1l0,0.2c0,0,0,0,0,0l0.1,0.1c0.1,0.1,0.2,0.3,0.3,0.4l0,0c0,0,0.1,0.1,0.1,0.1
		c0.6,0.6,1.5,1.2,2.9,1.8c0.1,0.1,0.3,0.1,0.4,0.2c0.7,0.3,1.4,0.6,2.1,0.8c0.3,0.1,0.5,0.2,0.8,0.3c0.4,0.1,0.7,0.5,0.7,1v13.1
		c0,0.3-0.2,0.6-0.4,0.8C75.8,274.3,75.6,274.3,75.4,274.3z M69,268.3c0.2,0.8,1.3,2.2,5.4,3.7v-11c-0.1,0-0.1,0-0.2-0.1
		c-0.8-0.3-1.5-0.6-2.2-0.9c-0.1-0.1-0.3-0.1-0.5-0.2c-1-0.5-1.9-1-2.6-1.5V268.3z"/>
</g>
<g>
	<path class="st0" d="M115.9,278.5c-3.2,0-6.6-0.1-9.9-0.2c-1.5-0.1-3.1-0.2-4.6-0.3c-0.5,0-0.9-0.5-0.9-1v-12.4
		c0-0.3,0.1-0.5,0.3-0.7c0.2-0.2,0.5-0.3,0.8-0.3c1.6,0.1,3.2,0.2,4.6,0.3c10.3,0.5,20.5,0.2,30.1-0.9c0.8-0.1,1.7-0.2,2.5-0.3
		l0.2,0c0.6-0.1,1.2-0.2,1.9-0.3c2.4-0.3,4.9-0.7,7.3-1.2l1.4-0.3c1.8-0.3,3.8-0.7,5.8-1.2c1-0.3,1.9-0.6,2.8-0.9
		c1.3-0.5,2.3-1.1,3.2-1.7c0.1-0.1,0.3-0.2,0.5-0.2c0.8-0.1,1.5-0.1,2.3-0.2c0.3,0,0.6,0.1,0.8,0.2c0.2,0.2,0.3,0.5,0.3,0.7l0,8.4
		c0,0.4,0,0.7,0,0.9c0,0.2,0,0.4,0,0.7c0,0.2,0,0.4,0,0.6c0,0.1,0,0.1,0,0.2c-0.7,2-2.8,3.6-6.4,4.8c-0.9,0.3-1.9,0.6-2.9,0.9
		c-1.8,0.5-3.5,0.8-4.9,1c-0.5,0.1-1,0.2-1.3,0.3c-0.5,0.1-1,0.2-1.5,0.3c-0.7,0.1-1.4,0.3-2.2,0.4c-3,0.5-6.1,1-9.3,1.3
		c-4.5,0.5-9.1,0.8-13.9,1h-0.1C120.3,278.5,118.1,278.5,115.9,278.5z M102.4,276.1c1.2,0.1,2.4,0.1,3.6,0.2
		c5.6,0.2,11.1,0.3,16.2,0.1l0.1,0c4.7-0.1,9.3-0.5,13.7-1c3.2-0.3,6.3-0.8,9.2-1.3c0.7-0.1,1.4-0.2,2.2-0.4c0.5-0.1,1-0.2,1.4-0.3
		c0.4-0.1,0.9-0.2,1.4-0.3c1.4-0.3,3.1-0.6,4.8-1c1-0.3,1.9-0.5,2.8-0.8c2.9-1,4.6-2.2,5.1-3.5c0-0.1,0-0.1,0-0.2c0-0.2,0-0.4,0-0.5
		c0-0.3,0-0.6,0-1.1l0-7.3c-0.3,0-0.6,0.1-0.9,0.1c-1,0.7-2.1,1.2-3.4,1.8c-0.9,0.3-1.8,0.7-3,1c-2,0.5-4.1,0.9-5.9,1.3l-1.4,0.3
		c-2.5,0.5-4.9,0.9-7.4,1.2c-0.6,0.1-1.3,0.2-1.9,0.3l-0.2,0c-0.8,0.1-1.7,0.2-2.5,0.3c-9.7,1.1-20,1.4-30.4,0.9
		c-1.1,0-2.3-0.1-3.6-0.2V276.1z M164.1,268.1L164.1,268.1L164.1,268.1z"/>
</g>
<g>
	<path class="st0" d="M115.6,266.1c-3.2,0-6.4-0.1-9.6-0.2c-1.4-0.1-3-0.1-4.6-0.3c-2.6-0.2-5.5-0.4-8.4-0.7c-0.4,0-0.9-0.1-1.3-0.1
		c-0.2,0-0.4,0-0.6-0.1l-0.1,0c-0.1,0-0.2,0-0.4,0l-0.6-0.1c-0.1,0-0.2,0-0.3,0l-0.2,0c-0.2,0-0.3-0.1-0.5-0.1
		c-1.1-0.2-2.6-0.4-4.1-0.7l-0.2,0c-0.2,0-0.5-0.1-0.7-0.1l-0.1,0c-0.2,0-0.5-0.1-0.7-0.1l-0.7-0.1c-0.4-0.1-0.8-0.2-1.2-0.3
		c-0.3-0.1-0.6-0.1-0.8-0.2c-0.3-0.1-0.7-0.2-1-0.2c0,0-0.1,0-0.1,0l-0.1,0c-0.3-0.1-0.6-0.2-0.8-0.2c-0.2,0-0.4-0.1-0.6-0.2
		c-0.2,0-0.3-0.1-0.5-0.1l-1-0.3c0,0,0,0-0.1,0v0c-0.2-0.1-0.5-0.1-0.7-0.2c0,0-0.1,0-0.1,0l-0.3-0.1c-0.3-0.1-0.6-0.2-0.9-0.3
		c-0.8-0.3-1.5-0.6-2.2-0.9c-0.1-0.1-0.3-0.1-0.5-0.2c-1.6-0.7-2.8-1.5-3.5-2.3l-0.1-0.1c0,0-0.1-0.1-0.1-0.1
		c-0.2-0.3-0.4-0.5-0.5-0.8l-0.1-0.2c0-0.1-0.1-0.1-0.1-0.2c0-0.1-0.1-0.2-0.1-0.3c0,0,0,0,0,0c0,0,0-0.1,0-0.1c0,0,0-0.2,0-0.2
		c0-0.1,0-0.2,0-0.4c0-0.4,0-0.7,0.1-1c0.3-1.1,1.3-2.1,2.9-3.1c1.4-0.9,3.1-1.6,5.1-2.3l0.4-0.1c0.3-0.1,0.5-0.2,0.8-0.2
		c2.5-0.7,5-1.2,6.9-1.5c1-0.2,1.9-0.3,2.9-0.5l0.6-0.1c4.6-0.8,9.6-1.3,14.8-1.7c1.5-0.1,3.1-0.2,4.6-0.3c1.9-0.1,3.8-0.2,5.6-0.2
		c3.1-0.1,6.7-0.2,10.3-0.1c0.5,0,0.9,0.3,1,0.8c0.7,2.6,1.8,4.8,3.5,6.5c2.5,2.6,5.5,3.6,8.4,4.3c7.5,1.8,16.6,2.2,26.9,1.4
		c0.4,0,0.9,0.2,1,0.6c0.2,0.4,0,0.9-0.4,1.2c-1,0.7-2.2,1.4-3.7,1.9c-0.9,0.3-1.8,0.7-3,1c-2,0.5-4.1,0.9-5.9,1.3l-1.4,0.3
		c-2.5,0.5-4.9,0.9-7.4,1.2c-0.6,0.1-1.3,0.2-1.9,0.3l-0.2,0c-0.8,0.1-1.7,0.2-2.5,0.3C129.7,265.7,122.7,266.1,115.6,266.1z
		 M79.7,260.5c0,0,0.1,0,0.1,0c0.3,0.1,0.7,0.2,1,0.3c0.3,0.1,0.6,0.1,0.9,0.2c0.4,0.1,0.7,0.2,1.1,0.2l0.7,0.1
		c0.2,0.1,0.4,0.1,0.7,0.1l0.1,0c0.3,0.1,0.5,0.1,0.7,0.1l0.2,0c1.6,0.3,3,0.5,4,0.7c0.2,0,0.4,0,0.6,0.1l0.2,0c0.1,0,0.2,0,0.4,0.1
		l0.6,0.1c0.1,0,0.2,0,0.2,0l0.2,0c0.2,0,0.4,0,0.6,0.1c0.5,0.1,0.9,0.1,1.3,0.1c2.9,0.3,5.7,0.6,8.3,0.7c1.6,0.1,3.2,0.2,4.6,0.3
		c10.3,0.5,20.5,0.2,30.1-0.9c0.8-0.1,1.7-0.2,2.5-0.3l0.2,0c0.6-0.1,1.2-0.2,1.9-0.3c2.4-0.3,4.9-0.7,7.3-1.2l1.4-0.3
		c1.8-0.3,3.8-0.7,5.8-1.2c0.5-0.1,1-0.3,1.4-0.4c-8.4,0.4-15.9-0.2-22.3-1.7c-3.2-0.8-6.5-1.9-9.4-4.8c-1.7-1.8-3-4-3.7-6.7
		c-3.4,0-6.7,0.1-9.5,0.1c-1.9,0-3.7,0.1-5.6,0.2c-1.5,0.1-3.1,0.2-4.6,0.3c-5.1,0.3-10,0.9-14.6,1.6l-0.6,0.1
		c-0.9,0.1-1.9,0.3-2.9,0.5c-1.9,0.3-4.3,0.8-6.7,1.5c-0.3,0.1-0.5,0.1-0.7,0.2l-0.4,0.1c-1.8,0.6-3.3,1.3-4.6,2.1
		c-1.5,0.9-2,1.6-2.1,2c0,0.1,0,0.1,0,0.2c0,0.1,0,0.1,0,0.2c0,0,0,0,0,0l0,0.2c0,0,0,0,0,0l0.1,0.1c0.1,0.1,0.2,0.3,0.3,0.4l0,0
		c0,0,0.1,0.1,0.1,0.1c0.6,0.6,1.5,1.2,2.9,1.8c0.1,0.1,0.3,0.1,0.4,0.2c0.7,0.3,1.4,0.6,2.1,0.8c0.3,0.1,0.5,0.2,0.8,0.3l0.2,0.1
		c0,0,0.1,0,0.1,0c0,0,0,0,0.1,0c0.2,0.1,0.5,0.2,0.7,0.2c0,0,0,0,0,0c0,0,0,0,0.1,0l1,0.3c0.1,0,0.3,0.1,0.5,0.1
		c0.1,0,0.3,0.1,0.4,0.1C79.1,260.3,79.4,260.4,79.7,260.5L79.7,260.5z"/>
</g>
<g>
	<path class="st0" d="M121.8,234.3c0.5-2.1,0.7-1.2,1.7-14.8c0.4-6.4-0.6-5.9,0-12.8c0.5-6.6,1.2-13.2,5.2-20
		c1.5-2.5,4.3-6.4,9.3-10.1c0.2,0.2,0.4,0.4,0.5,0.5c2.4,2.5,4.8,4.9,7.2,7.4c0.4,0.4,0.7,0.8,1.1,1.1c1.3,3,2.9,7.2,3.7,12.6
		c0.9,6.1,0.5,10.8,0.4,11.8c-0.3,3.1-0.9,5.3-1.5,7.1c0.1,1.1,0.2,2.3,0.3,3.4c4.5,1.3,11.9,5,16.4,6.3c-0.2,0.8-0.4,1.5-0.6,2.1
		c-0.5,1.9-0.9,3.5-1.3,5.3L121.8,234.3"/>
	<path class="st1" d="M164.1,235.3h-42.3c-0.3,0-0.5-0.1-0.7-0.3c-0.2-0.2-0.4-0.6-0.3-1c0.1-0.3,0.1-0.5,0.2-0.8
		c0.4-1.3,0.6-2.2,1.4-13.9c0.2-3,0.1-4.4,0-5.9c-0.1-1.6-0.3-3.3,0-6.9c0.5-6.3,1.1-13.3,5.3-20.4c2.3-4,5.5-7.5,9.5-10.4
		c0.4-0.3,1-0.2,1.3,0.1c0.2,0.2,0.3,0.3,0.5,0.5l8.4,8.6c0.1,0.1,0.1,0.2,0.2,0.3c1.8,4.1,3.1,8.4,3.8,12.8
		c0.9,5.8,0.6,10.3,0.4,12c-0.3,2.7-0.7,4.9-1.5,7.1l0.2,2.5c2.2,0.7,5,1.9,7.7,3c2.9,1.2,5.9,2.5,8.1,3.1c0.5,0.2,0.8,0.7,0.7,1.2
		l-0.2,0.6c-0.2,0.5-0.3,1.1-0.4,1.6c-0.3,1-0.5,1.9-0.7,2.9c-0.2,0.8-0.4,1.6-0.6,2.4C165,235,164.6,235.3,164.1,235.3z
		 M123.1,233.3h40.3c0.1-0.6,0.3-1.1,0.4-1.6c0.2-1,0.5-1.9,0.7-2.9c0.1-0.4,0.2-0.8,0.3-1.2c-2.2-0.7-4.8-1.8-7.3-2.9
		c-2.9-1.2-5.9-2.5-8.1-3.1c-0.4-0.1-0.7-0.5-0.7-0.9l-0.3-3.4c0-0.1,0-0.3,0.1-0.4c0.5-1.5,1.1-3.6,1.5-6.9c0.2-1.6,0.4-6-0.4-11.5
		c-0.7-4.2-1.9-8.3-3.6-12.2l-8.1-8.3c-3.4,2.7-6.2,5.8-8.3,9.3c-4,6.7-4.5,13.2-5,19.6c-0.3,3.5-0.2,5,0,6.6c0.1,1.5,0.2,3.1,0,6.2
		C123.7,230,123.4,232,123.1,233.3z"/>
</g>
<g>
	<path class="st1" d="M145.9,234.8c-0.1,0-0.1,0-0.2,0c-2.6-0.6-5-1.7-7.1-3.2c0,0-0.1-0.1-0.1-0.1c-3.7-2.7-5.9-7.2-5.8-11.9
		c0.2-8,0.3-16,0.5-24.1c0-0.6,0.5-1,1-1c0.6,0,1,0.5,1,1c-0.2,8-0.3,16-0.5,24.1c-0.1,4.1,1.8,8,5,10.3c0,0,0.1,0.1,0.1,0.1
		c1.9,1.4,4,2.3,6.4,2.8c0.5,0.1,0.9,0.7,0.8,1.2C146.7,234.5,146.3,234.8,145.9,234.8z"/>
</g>
<g>
	<path class="st5" d="M149.3,217.1c-0.4-4.8-0.8-9.7-1.2-14.5"/>
	<path class="st1" d="M149.3,218.1c-0.5,0-1-0.4-1-0.9l-1.2-14.5c0-0.6,0.4-1,0.9-1.1c0.6,0,1,0.4,1.1,0.9l1.2,14.5
		C150.4,217.5,150,218,149.3,218.1C149.4,218.1,149.4,218.1,149.3,218.1z"/>
</g>
<g>
	<path class="st1" d="M198.2,212.8l-12.6,21.9c-0.9-0.1-1.9,0-2.8,0c-0.1-0.1-0.2-0.2-0.4-0.4l13.3-23L198.2,212.8L198.2,212.8z"/>
	<path class="st1" d="M182.7,235.7c-0.2,0-0.5-0.1-0.7-0.3c-0.1-0.1-0.2-0.2-0.3-0.3c-0.4-0.3-0.5-0.9-0.3-1.3l13.3-23
		c0.3-0.5,0.9-0.6,1.4-0.4l2.6,1.5c0.3,0.2,0.5,0.5,0.5,0.9c0,0.2,0,0.4-0.1,0.5l-12.6,21.9c-0.2,0.3-0.5,0.5-0.9,0.5
		C184.6,235.6,183.6,235.7,182.7,235.7C182.7,235.7,182.7,235.7,182.7,235.7z M184.3,233.7c0.2,0,0.5,0,0.7,0l11.8-20.5l-0.9-0.5
		l-12.1,21C184,233.7,184.2,233.7,184.3,233.7z M198.2,212.8L198.2,212.8L198.2,212.8z"/>
</g>
<g>
	<path class="st1" d="M182.7,235.7h-0.6c-0.4,0-0.7-0.2-0.9-0.5s-0.2-0.7,0-1l0.2-0.4c0.1-0.2,0.4-0.4,0.7-0.5
		c0.3-0.1,0.6,0,0.8,0.2c0.2,0.1,0.3,0.3,0.5,0.4c0.2,0.2,0.3,0.5,0.3,0.7C183.7,235.2,183.3,235.7,182.7,235.7z"/>
</g>
<g>
	<path class="st1" d="M200.1,306.2c-0.4,0-0.8-0.3-1-0.7l-3.4-12.2c-2.7-9.6-5.4-19.1-8-28.7c0-0.1,0-0.2,0-0.4
		c0.3-2.9,0.6-5.7,0.9-8.5l0.4-3.8c0.1-1.8,0.1-6.4-3.1-10.6c-0.8-1-1.7-2-2.7-2.7c-0.3-0.3-0.6-0.5-1-0.7l-0.1-0.1
		c-0.4-0.2-0.8-0.5-1.3-0.7c-1-0.5-2.1-0.9-3.2-1.2c-0.5-0.1-0.8-0.6-0.7-1.1c0.1-0.5,0.5-0.9,1-0.9l1,0c1,0,2.1-0.1,3.2-0.1l0.7,0
		c0.8,0,1.9-0.1,2.9,0c2.5,0.1,4.5,0.7,6.4,1.8c3,1.8,5.3,4.9,6.6,8.9c3.7,7.5,7.5,15,11.2,22.4c4.8,9.6,9.5,19.1,14.3,28.7
		c0.6,1.1,1.1,2.2,1.6,3.3c0.1,0.2,0.1,0.3,0.1,0.5v0c0,0.5-0.3,0.9-0.8,1c0,0-0.1,0-0.1,0l-0.8,0.2c-1.4,0.3-2.9,0.7-4.3,1
		c-1.5,0.3-3,0.7-4.5,1c-0.3,0.1-0.6,0.1-0.9,0.2c-4.1,1-8.2,1.9-12.3,2.9l-1.8,0.4C200.3,306.2,200.2,306.2,200.1,306.2z
		 M189.7,264.3c2.6,9.5,5.3,19,8,28.5l3.2,11.3l0.8-0.2c4.1-1,8.2-1.9,12.3-2.9c0.3-0.1,0.6-0.1,0.9-0.2c1.5-0.3,3-0.7,4.5-1
		c1.3-0.3,2.7-0.6,4-0.9c-0.4-0.8-0.7-1.5-1.1-2.3c-4.8-9.6-9.5-19.1-14.3-28.7c-3.7-7.5-7.5-15-11.2-22.5c0,0,0-0.1-0.1-0.1
		c-1.1-3.6-3.1-6.3-5.7-7.9c-1.6-0.9-3.3-1.4-5.4-1.5c-0.9-0.1-1.9,0-2.8,0l-0.2,0c0.2,0.1,0.4,0.2,0.6,0.4l0.2,0.1
		c0.4,0.2,0.7,0.5,1.1,0.8c1.1,0.9,2.2,1.9,3.1,3.1c3.6,4.8,3.7,10,3.5,12l-0.4,3.8C190.3,258.7,190,261.5,189.7,264.3z"/>
</g>
<g>
	<path class="st1" d="M183.6,312.8c-0.1,0-0.2,0-0.4-0.1c-0.7-0.3-1.4-0.5-2-0.8l-1.2-0.4c-3.1-1.2-6.1-2.4-9.2-3.6l-13-5.1
		c-0.5-0.2-0.7-0.7-0.6-1.2c4.6-14.6,9.3-29.2,13.9-43.8c-2.5,0.4-4.8,0.7-7.1,0.9c-0.7,0.1-1.5,0.2-2.3,0.2
		c-10.5,0.9-19.8,0.4-27.5-1.4c-3.2-0.8-6.5-1.9-9.4-4.8c-1.9-2-3.2-4.5-3.9-7.4c-0.2-0.8-0.4-1.6-0.5-2.5c-0.4-3.4-0.1-6.6,0.3-8.7
		c0.1-0.5,0.5-0.8,1-0.8h53c1.1,0.1,2.2,0.3,3.3,0.6c1.2,0.3,2.5,0.8,3.6,1.4c0.5,0.2,1,0.5,1.4,0.8l0.2,0.1
		c0.4,0.2,0.7,0.5,1.1,0.8c1.1,0.9,2.2,1.9,3.1,3.1c3.6,4.8,3.7,10,3.5,12c0,0,0,0,0,0l-0.4,3.8c-0.3,2.8-0.6,5.7-0.9,8.5
		c-1.1,10.1-2.2,20.2-3.2,30.3l-1.8,17.1c0,0.3-0.2,0.6-0.5,0.7C184,312.7,183.8,312.8,183.6,312.8z M159.5,301.3l12.1,4.7
		c3.1,1.2,6.1,2.4,9.2,3.6l1.2,0.5c0.3,0.1,0.5,0.2,0.8,0.3l1.7-15.8c1.1-10.1,2.2-20.2,3.2-30.3c0.3-2.8,0.6-5.7,0.9-8.5l0.4-3.8
		c0.1-1.8,0.1-6.4-3.1-10.6c-0.8-1-1.7-2-2.7-2.7c-0.3-0.3-0.6-0.5-1-0.7l-0.1-0.1c-0.4-0.2-0.8-0.5-1.3-0.7c-1-0.5-2.1-0.9-3.2-1.2
		c-1-0.3-2-0.4-2.9-0.5l-52,0c-0.3,1.9-0.5,4.5-0.1,7.2c0.1,0.8,0.2,1.5,0.4,2.3c0.7,2.6,1.8,4.8,3.5,6.5c2.5,2.6,5.5,3.6,8.4,4.3
		c7.5,1.8,16.6,2.2,26.9,1.4c0.8-0.1,1.5-0.1,2.3-0.2c2.8-0.3,5.6-0.7,8.6-1.2c0.3-0.1,0.7,0.1,0.9,0.3c0.2,0.3,0.3,0.6,0.2,1
		C168.9,271.7,164.2,286.5,159.5,301.3z M190,252L190,252L190,252z"/>
</g>
<g>
	<path class="st1" d="M177.8,235.8c-0.1,0-0.2,0-0.3,0c-0.7-0.2-1.7-0.4-2.9-0.5l-10.6,0c-0.3,0-0.6-0.1-0.8-0.4
		c-0.2-0.2-0.3-0.6-0.2-0.9c0.2-0.8,0.4-1.6,0.6-2.4c0.2-1,0.5-1.9,0.7-2.9c0.1-0.4,0.4-0.6,0.8-0.7c1.2-0.3,2.4-0.4,3.5-0.5
		c0,0,0.1,0,0.2,0c4-0.3,8.1,1.1,11.1,4c0.2,0.1,0.3,0.3,0.5,0.5l0.4,0.4c0.8,0.5,1.4,0.9,1.9,1.3c0.1,0,0.1,0.1,0.2,0.1l0,0
		c0.3,0.4,0.3,0.9,0,1.3l-0.1,0.2c-0.2,0.3-0.5,0.5-0.8,0.5c-1.1,0-2.2,0.1-3.3,0.1L177.8,235.8
		C177.9,235.8,177.8,235.8,177.8,235.8z M165.4,233.3h9.4c1.1,0.1,2.1,0.3,3.2,0.5l0.8,0c0.3,0,0.6,0,0.9,0l-0.5-0.4
		c-0.2-0.2-0.3-0.3-0.5-0.5c-2.7-2.5-6.2-3.7-9.7-3.5c0,0-0.1,0-0.2,0c-0.8,0.1-1.7,0.2-2.6,0.4c-0.2,0.8-0.4,1.5-0.6,2.3
		C165.6,232.5,165.5,232.9,165.4,233.3z"/>
</g>
<g>
	<path class="st1" d="M145.6,185.5c-0.3,0-0.5-0.1-0.7-0.3l-7.2-7.4c-0.2-0.2-0.3-0.5-0.3-0.7c0-0.3,0.1-0.5,0.3-0.7
		c1.1-1,2.1-2,3-3c0.4-0.5,0.9-1.1,1.7-1.4c0.1-0.1,0.4-0.1,0.6-0.2c0.6-0.1,1.1,0.3,1.1,0.8c0.1,0.5-0.3,1.1-0.8,1.1
		c0,0-0.1,0-0.1,0c-0.4,0.2-0.6,0.4-0.9,0.8c-0.7,0.9-1.6,1.8-2.5,2.6l5.9,6c0.7-0.5,1.3-1,1.9-1.5c0.5-0.4,1-0.8,1.5-1.2
		c-0.6-0.4-1.2-0.9-1.8-1.3c-0.4-0.4-0.5-1-0.1-1.4c0.4-0.4,1-0.5,1.4-0.1c0.9,0.7,1.8,1.4,2.7,1.9c0.3,0.2,0.5,0.4,0.5,0.8
		c0,0.3-0.1,0.6-0.3,0.8c-0.9,0.8-1.7,1.5-2.5,2.2c-0.8,0.7-1.7,1.4-2.7,2.1C146,185.5,145.8,185.5,145.6,185.5z"/>
</g>
<g>
	<path class="st1" d="M163.6,163.8c-0.9,0.8-1.8,1.4-2.5,1.9c-2.3,1.5-3.6,2.3-5.5,2.6c-1.1,0.1-1.9,0-2.6-0.1
		c-0.1-0.4-0.2-0.8-0.4-1.1c-0.1-0.1-0.2-0.2-0.3-0.4c-0.5-0.5-1.2-0.8-1.9-0.8c-0.1,0-0.3,0-0.4,0c-0.1,0-0.2,0-0.4,0.1
		c0,0,0,0,0,0c0,0,0,0-0.1,0c0,0-0.1,0-0.1,0.1c-0.1,0-0.2,0.1-0.2,0.1c-0.2,0.1-0.4,0.3-0.6,0.5c-0.1,0.1-0.1,0.1-0.2,0.2
		c-0.1,0.1-0.1,0.1-0.1,0.2c-0.1,0.1-0.1,0.1-0.1,0.2c0,0.1-0.1,0.1-0.1,0.2s-0.1,0.2-0.1,0.2c0,0.1,0,0.1-0.1,0.2v0
		c0,0.1,0,0.2-0.1,0.3c0,0.1,0,0.2,0,0.3c0,0.7,0.2,1.3,0.7,1.8c-0.2,0.4-0.4,0.9-0.7,1.4c0,0,0,0,0,0.1c-0.6,1-1.7,1.4-2.8,1.1
		c-0.7-0.2-0.7-0.2,0,0c-0.1,0-0.2-0.1-0.4-0.1c-0.1,0-0.2,0-0.2,0c-0.4,0-0.7,0-1,0.1c-0.7-1.4-1.2-2.9-1.2-4.4
		c0-7.1,4.9-12.8,10.9-12.8C157.6,155.5,162.3,159,163.6,163.8L163.6,163.8z"/>
	<path class="st1" d="M145.5,173.9c-0.3,0-0.6,0-0.9-0.1c0,0-0.1,0-0.1,0c0,0-0.1,0-0.1,0c-0.1,0-0.2,0-0.2,0c-0.3,0-0.5,0-0.7,0
		c-0.4,0.1-0.9-0.1-1.1-0.5c-0.9-1.7-1.3-3.3-1.3-4.9c0-7.6,5.4-13.8,11.9-13.8c5.2,0,10.2,3.9,11.7,9c0.1,0.2,0,0.4,0,0.6
		c-0.1,0.2-0.2,0.3-0.3,0.5c-0.8,0.7-1.7,1.3-2.6,2c-2.3,1.5-3.8,2.4-5.9,2.7c-1.2,0.1-2.2,0-2.9-0.1c-0.4-0.1-0.8-0.4-0.8-0.9
		c0-0.2-0.1-0.5-0.3-0.7c-0.1-0.1-0.1-0.2-0.2-0.2c-0.4-0.4-0.9-0.6-1.4-0.5c-0.1,0-0.1,0-0.2,0c0,0,0,0,0,0c0,0-0.1,0-0.1,0
		c-0.1,0-0.1,0.1-0.2,0.1c0,0-0.1,0-0.1,0.1c-0.1,0.1-0.2,0.1-0.3,0.2c0,0-0.1,0.1-0.1,0.1l-0.2,0.3c0,0-0.1,0.2-0.1,0.2
		c0,0,0,0.1,0,0.1c0,0,0,0.1,0,0.1c0,0.1,0,0.1,0,0.2c0,0.1,0,0.2,0,0.3c0,0.4,0.1,0.8,0.4,1.1c0.3,0.3,0.3,0.7,0.2,1.1
		c-0.2,0.4-0.4,0.9-0.7,1.5c0,0,0,0.1-0.1,0.1C147.9,173.2,146.8,173.9,145.5,173.9z M145.1,171.8c0.7,0.1,1.3-0.1,1.7-0.7
		c0,0,0-0.1,0.1-0.1c0.1-0.3,0.3-0.5,0.4-0.7c-0.3-0.6-0.5-1.2-0.5-1.9c0-0.1,0-0.3,0-0.4c0-0.1,0-0.2,0.1-0.4c0,0,0,0,0,0
		c0-0.1,0-0.2,0.1-0.3c0-0.1,0.1-0.2,0.1-0.3c0-0.1,0.1-0.3,0.2-0.4c0.1-0.1,0.1-0.2,0.2-0.3c0.1-0.1,0.1-0.2,0.2-0.3
		c0-0.1,0.1-0.2,0.2-0.2c0.2-0.2,0.5-0.4,0.8-0.6c0.1-0.1,0.2-0.1,0.4-0.2c0,0,0.1,0,0.1,0c0.1,0,0.1,0,0.1-0.1c0.1,0,0.1,0,0.2,0
		c0.1,0,0.3-0.1,0.4-0.1c1.2-0.2,2.4,0.2,3.2,1.1c0.1,0.2,0.3,0.3,0.4,0.5c0.2,0.3,0.3,0.5,0.4,0.8c0.5,0.1,1,0.1,1.7,0
		c1.7-0.2,2.8-0.9,5.1-2.4c0.7-0.5,1.3-0.9,1.9-1.4c-1.4-3.9-5.5-6.9-9.5-6.9c-5.5,0-9.9,5.3-9.9,11.8c0,1.1,0.3,2.2,0.8,3.3
		c0.2,0,0.3,0,0.5,0c0.1,0,0.2,0,0.3,0l0,0l0.2,0.1c0.1,0,0.2,0,0.2,0.1C145,171.8,145,171.8,145.1,171.8
		C145.1,171.8,145.1,171.8,145.1,171.8z M149.6,167C149.6,167,149.6,167,149.6,167C149.6,167,149.6,167,149.6,167z M149.1,165.1
		C149.1,165.1,149.1,165.1,149.1,165.1C149.1,165.1,149.1,165.1,149.1,165.1z M163.6,163.8L163.6,163.8L163.6,163.8z"/>
</g>
<g>
	<path class="st1" d="M145.5,173.9c-0.3,0-0.6,0-0.9-0.1c-0.5-0.1-0.9-0.7-0.7-1.2c0.1-0.5,0.7-0.9,1.2-0.7c0.7,0.2,1.4-0.1,1.7-0.6
		c0.3-0.5,0.9-0.6,1.4-0.4c0.5,0.3,0.6,0.9,0.4,1.4C147.9,173.3,146.8,173.9,145.5,173.9z"/>
</g>
<g>
	<path class="st1" d="M148.5,167.6c-0.2,0-0.5-0.1-0.7-0.3c-0.2-0.2-0.3-0.5-0.3-0.7c0-0.2,0.1-0.5,0.3-0.7c0,0,0,0,0,0
		c0.3-0.3,0.6-0.5,0.9-0.7c0.5-0.2,1.1,0,1.3,0.4c0.2,0.5,0.1,1.1-0.4,1.3c-0.1,0.1-0.2,0.1-0.3,0.2c0,0,0,0-0.1,0.1c0,0,0,0,0,0
		C149,167.5,148.7,167.6,148.5,167.6z"/>
</g>
<g>
	<path class="st1" d="M149.3,167c-0.3,0-0.7-0.2-0.9-0.5c-0.3-0.4-0.2-1,0.3-1.3c0,0,0.1-0.1,0.2-0.1l0,0c0,0,0,0,0,0
		c0,0,0.1,0,0.1-0.1c0,0,0,0,0,0c0,0,0.1,0,0.1,0c0.4-0.1,0.9,0,1.2,0.4c0.2,0.4,0.2,0.9-0.1,1.2c-0.1,0.1-0.2,0.2-0.4,0.2l0,0
		l-0.1,0C149.6,167,149.5,167,149.3,167z"/>
</g>
<g>
	<path class="st1" d="M154.8,182.1c-1.7,0-2.9,0-4.6-1c-1-0.6-2-1.3-3-2c-0.4-0.4-0.5-1-0.1-1.4c0.4-0.4,1-0.5,1.4-0.1
		c0.9,0.7,1.8,1.4,2.7,1.9c1.2,0.7,2,0.7,3.6,0.7c5,0,6.7-4.4,8-11.9c0.1-0.9,0.2-1.7,0.1-2.6c-0.4,0.3-0.9,0.6-1.3,0.9
		c-2.4,1.5-3.8,2.4-5.9,2.7c-1.2,0.1-2.2,0-2.9-0.1c-0.4-0.1-0.8-0.4-0.8-0.9c0-0.2-0.1-0.5-0.3-0.7c-0.1-0.1-0.1-0.2-0.2-0.2
		c-0.4-0.4-0.8-0.6-1.4-0.5c-0.1,0-0.2,0-0.3,0.1c0,0,0,0,0,0c0,0-0.1,0-0.1,0.1c0,0-0.1,0-0.1,0.1c-0.1,0.1-0.2,0.1-0.3,0.2
		c0,0-0.1,0.1-0.1,0.1l0,0.1c-0.1,0.1-0.1,0.1-0.2,0.2l-0.1,0.3c0,0,0,0.1,0,0.1c0,0.1,0,0.1,0,0.2c0,0,0,0.1,0,0.2c0,0,0,0.1,0,0.1
		c0,0.4,0.1,0.8,0.4,1.1c0.3,0.3,0.3,0.7,0.2,1.1c-0.2,0.4-0.4,0.9-0.7,1.5c0,0,0,0.1-0.1,0.1c-0.8,1.3-2.4,1.9-3.9,1.6
		c0,0-0.1,0-0.2,0c0,0-0.1,0-0.2,0c0,0-0.2,0-0.2,0c-0.2,0-0.4,0-0.7,0c-0.5,0.1-1.1-0.2-1.2-0.7s0.2-1.1,0.7-1.2
		c0.4-0.1,0.9-0.1,1.3-0.1c0.1,0,0.2,0,0.3,0l0,0l0.2,0.1c0.1,0,0.2,0,0.3,0.1c0,0,0,0,0,0c0,0,0.1,0,0.1,0c0.7,0.1,1.3-0.1,1.7-0.7
		c0,0,0-0.1,0.1-0.1c0.1-0.3,0.3-0.5,0.4-0.7c-0.3-0.6-0.5-1.2-0.5-1.9c0-0.2,0-0.3,0-0.5c0,0,0-0.1,0-0.3c0,0,0,0,0,0
		c0-0.1,0-0.2,0.1-0.3c0-0.1,0.1-0.2,0.1-0.3c0,0,0-0.1,0.1-0.1c0-0.1,0.1-0.2,0.1-0.2c0.1-0.1,0.1-0.2,0.2-0.3
		c0.1-0.1,0.1-0.1,0.1-0.2c0,0,0.1-0.1,0.1-0.1l0.2-0.2c0.2-0.2,0.5-0.4,0.8-0.6c0.1-0.1,0.2-0.1,0.3-0.1c0.1,0,0.1-0.1,0.2-0.1
		c0,0,0,0,0.1,0c0,0,0.1,0,0.1,0c0,0,0,0,0,0c0.2-0.1,0.3-0.1,0.5-0.1c0.2,0,0.4-0.1,0.6-0.1c1,0,2,0.4,2.6,1.1
		c0.2,0.2,0.3,0.3,0.4,0.5c0.2,0.2,0.3,0.5,0.4,0.7c0.5,0.1,1,0.1,1.7,0c1.7-0.2,2.8-0.9,5-2.4c0.9-0.6,1.7-1.2,2.5-1.9
		c0.3-0.2,0.6-0.3,0.9-0.2c0.3,0.1,0.6,0.4,0.7,0.7c0.5,1.6,0.5,3.3,0.2,5C163.6,175.4,161.8,182.1,154.8,182.1z M149.1,165.1
		C149.1,165.1,149.1,165.1,149.1,165.1C149.1,165.1,149.1,165.1,149.1,165.1z M149.2,165C149.2,165,149.2,165,149.2,165
		C149.2,165,149.2,165,149.2,165L149.2,165C149.2,165,149.2,165,149.2,165z"/>
</g>
<g>
	<path class="st1" d="M171.4,150.1c0,4.6-3.7,8.4-8.4,8.4s-8.4-3.7-8.4-8.4s3.7-8.4,8.4-8.4S171.4,145.5,171.4,150.1z"/>
	<path class="st1" d="M163.1,159.4c-5.2,0-9.3-4.2-9.3-9.4c0-5.2,4.2-9.4,9.3-9.4c5.2,0,9.4,4.2,9.4,9.4
		C172.4,155.2,168.2,159.4,163.1,159.4z M163.1,142.7c-4.1,0-7.3,3.3-7.3,7.4c0,4.1,3.3,7.4,7.3,7.4s7.4-3.3,7.4-7.4
		C170.4,146,167.1,142.7,163.1,142.7z"/>
</g>
<g>
	<path class="st1" d="M180.6,331.3L180.6,331.3c-2.3-0.1-4.3-1.4-5.4-3.3c-1.8-3.2-2.6-4.3-4.4-8.3c-0.3-0.6-2.2-4.7-2.3-6.4
		c-0.1-1.9,0.5-4.7,2.1-6.6c3.3,1.3,6.5,2.6,9.8,3.8c-0.8,3.6-1.3,8.6-0.3,14.4c0.4,1.9,0.8,3.7,1.4,5.2
		C181.8,330.7,181.3,331.4,180.6,331.3L180.6,331.3z"/>
	<path class="st1" d="M180.7,332.4C180.6,332.4,180.6,332.3,180.7,332.4c-0.1,0-0.2,0-0.2,0c-2.6-0.2-4.9-1.6-6.1-3.8
		c-0.4-0.6-0.7-1.2-1-1.7c-1.2-2.1-2-3.4-3.4-6.6l0-0.1c-1.5-3.2-2.3-5.5-2.3-6.7c-0.1-2,0.5-5.1,2.3-7.3c0.3-0.3,0.7-0.4,1.1-0.3
		l0.6,0.2c3.1,1.2,6.1,2.4,9.2,3.6c0.5,0.2,0.7,0.7,0.6,1.1c-1,4.7-1.1,9.4-0.3,14c0.3,1.7,0.8,3.4,1.3,5.1c0.2,0.6,0.1,1.3-0.3,1.8
		C181.8,332.1,181.3,332.4,180.7,332.4z M171,307.9c-1,1.6-1.5,3.8-1.4,5.3c0,0.4,0.2,1.9,2.1,5.9l0,0.1c1.4,3.1,2.2,4.4,3.4,6.5
		c0.3,0.5,0.6,1.1,1,1.7c0.9,1.6,2.6,2.7,4.5,2.8c-0.6-1.7-1-3.4-1.4-5.2c-0.8-4.5-0.8-9.2,0.1-13.9
		C176.5,310.1,173.8,309,171,307.9z"/>
</g>
<g>
	<path class="st1" d="M239.1,313.2c-0.5,0.8-3.9,0.8-9.3,0.1c-3.2-0.4-8.9-1.9-11.6-2.8c-0.9-0.3-1.5-1-1.8-1.8l-2.3-6.7
		c0.3-0.1,0.6-0.1,0.9-0.2c2.9-0.7,5.9-1.4,8.8-2c0.3,1,2.4,5.5,6.5,8.4c2.9,2.1,7.7,3.8,8.2,3.9
		C239.1,312.1,239.4,312.7,239.1,313.2L239.1,313.2z"/>
	<path class="st1" d="M236.2,314.8c-1.5,0-3.6-0.2-6.5-0.5c-3.4-0.4-9.2-2-11.8-2.8c-1.1-0.4-2-1.3-2.4-2.5l-2.3-6.7
		c-0.1-0.3-0.1-0.6,0.1-0.8c0.1-0.2,0.4-0.4,0.6-0.5l0.9-0.2c1.4-0.3,2.9-0.7,4.3-1c1.5-0.3,3-0.7,4.5-1c0.5-0.1,1,0.2,1.2,0.7
		c0.3,0.9,2.3,5.1,6.2,7.9c2.8,2,7.5,3.6,7.9,3.8c0.5,0.2,1,0.6,1.2,1.1c0.2,0.5,0.2,1-0.1,1.4c0,0,0,0.1-0.1,0.1
		C239.5,314.4,238.7,314.8,236.2,314.8z M215.5,302.7l1.9,5.7c0.2,0.6,0.6,1,1.2,1.2c2.4,0.9,8.1,2.4,11.3,2.8
		c4.7,0.6,6.8,0.6,7.7,0.4c-1.6-0.6-5.3-2.1-7.8-3.8c-3.6-2.6-5.8-6.2-6.6-8c-1.2,0.3-2.4,0.6-3.6,0.8
		C218.2,302,216.8,302.3,215.5,302.7z M238.4,312.5L238.4,312.5L238.4,312.5z"/>
</g>
<g>
	<path class="st1" d="M214.2,302.9c-0.2,0-0.4-0.1-0.6-0.2c-0.2-0.2-0.4-0.5-0.4-0.8c0-0.5,0.3-0.9,0.8-1c3.2-0.7,6.4-1.5,9.6-2.2
		c0.1,0,0.2,0,0.3,0h0c0.5,0,0.9,0.4,1,0.8c0,0.2,0,0.3,0,0.5c-0.1,0.3-0.4,0.6-0.7,0.7c-1.4,0.3-2.9,0.7-4.3,1
		c-1.5,0.3-3,0.7-4.5,1l-0.9,0.2C214.3,302.9,214.3,302.9,214.2,302.9z"/>
</g>
<g>
	<path class="st1" d="M223.9,300.6c-0.1,0-0.3,0-0.4-0.1c-0.3-0.1-0.5-0.4-0.6-0.7c-0.2-1,0.5-1.3,0.6-1.3c0.1-0.1,0.9-0.3,1.3,0.6
		c0.1,0.3,0.1,0.6,0,0.9c-0.1,0.3-0.4,0.5-0.7,0.5C224.1,300.6,224,300.6,223.9,300.6z"/>
</g>
<g>
	<path class="st3" d="M282.7,214.8c0,0.1,0,0.2,0,0.3c0,0,0,0.1,0,0.1s0,0.1,0,0.1c0,0,0,0.1,0,0.1v-1
		C282.6,214.5,282.6,214.6,282.7,214.8L282.7,214.8z"/>
</g>
<g>
	<path class="st4" d="M282.7,214.8c0,0.1,0,0.2,0,0.3c0,0,0,0.1,0,0.1s0,0.1,0,0.1c0,0,0,0.1,0,0.1v-1
		C282.6,214.5,282.6,214.6,282.7,214.8L282.7,214.8z"/>
</g>
<g>
	<path class="st2" d="M330.5,238.7c-3.1,0-6.4-0.1-9.9-0.2c-2.9-0.1-5.2-0.3-7.4-0.4l-0.3,0c-1-0.1-2.8-0.2-5.3-0.4
		c-16.3-1.6-25-4.5-26-8.7c0-0.1,0-0.2,0-0.2v-13.5c0-0.6,0.4-1,1-1c0.5,0,0.9,0.4,1,0.9c0,0,0,0.1,0,0.1c0.1,2.1,6.8,4.9,15.8,6.7
		c3.2,0.6,5.7,1,6.4,1.1c0.2,0,0.5,0,0.7,0.1l0.1,0c0.4,0,0.8,0.1,1.2,0.1c4.2,0.5,8.5,0.8,12.9,1c3.8,0.2,7.5,0.2,10.9,0.2
		c1.9,0,4.1,0,6.5-0.1c5.9-0.2,11.7-0.8,17.3-1.6c1.1-0.2,2.2-0.3,3.3-0.5c0,0,0.1,0,0.1,0c4.9-0.1,9.6-0.5,14.1-1
		c2-0.2,3.8-0.5,5.6-0.7c0.3,0,0.6,0,0.8,0.2c0.2,0.2,0.3,0.5,0.3,0.8v4.9c0,0.4,0,0.7,0,0.9c0,0.3,0,0.5,0,0.7c0,0.2,0,0.3,0,0.5
		c0,0.1,0,0.1,0,0.2c-0.7,2-2.8,3.6-6.4,4.9c-2.8,1-5.9,1.5-8,1.9c-0.5,0.1-0.9,0.2-1.2,0.2l-0.3,0.1c-1.1,0.2-2.1,0.4-3.2,0.6
		c-7,1.2-14.5,2-22.4,2.3c-2.1,0.1-4.3,0.1-6.5,0.1C331.3,238.7,330.9,238.7,330.5,238.7z M283.6,228.5c0.9,3.1,9.9,5.7,24.2,7.1
		c2.4,0.2,4.3,0.4,5.2,0.4l0.3,0c2.2,0.2,4.5,0.3,7.4,0.4c3.9,0.2,7.5,0.2,10.9,0.2c2.2,0,4.4,0,6.5-0.1c7.8-0.3,15.2-1,22.1-2.2
		c1-0.2,2.1-0.4,3.1-0.6l0.3-0.1c0.4-0.1,0.8-0.2,1.3-0.2c2-0.4,5-0.9,7.7-1.8c2.9-1,4.6-2.2,5.1-3.5c0-0.1,0-0.1,0-0.2
		c0-0.2,0-0.4,0-0.6c0-0.3,0-0.6,0-1v-3.8c-1.5,0.2-3,0.4-4.5,0.6c-4.5,0.5-9.3,0.8-14.2,1c-1.1,0.2-2.2,0.3-3.3,0.5
		c-5.6,0.8-11.5,1.3-17.5,1.6c-2.5,0.1-4.6,0.2-6.6,0.2c-3.5,0-7.2,0-11-0.2c-4.4-0.2-8.8-0.5-13-1c-0.4,0-0.8-0.1-1.2-0.1l-0.1,0
		c-0.2,0-0.5-0.1-0.7-0.1c-1-0.1-3.6-0.5-6.6-1.1c-3.9-0.8-11.8-2.6-15.5-5.5V228.5z M378.7,228.3L378.7,228.3L378.7,228.3z"/>
</g>
<g>
	<path class="st2" d="M338.1,199.2L338.1,199.2c-1.5,0.1-3,0.1-4.5,0.1c-3.2,0-6.4-0.1-9.6-0.2c-4.3-0.2-8.7-0.5-12.9-1
		c-0.4,0-0.9-0.1-1.3-0.1c-0.2,0-0.5-0.1-0.7-0.1c-0.4,0-1-0.1-1.9-0.3c-1.9-0.3-4.8-0.8-7.9-1.5v-0.1c3.1,0.7,6.1,1.2,8,1.5
		c0.8,0.1,1.5,0.2,1.8,0.3c0.2,0,0.5,0.1,0.7,0.1c0.4,0.1,0.9,0.1,1.3,0.1c4.3,0.5,8.6,0.8,12.9,1c3.2,0.1,6.4,0.2,9.6,0.2
		C335.1,199.3,336.6,199.3,338.1,199.2L338.1,199.2z"/>
</g>
<g>
	<path class="st2" d="M352.8,224.2c-3.3,0-6.7-0.1-10.1-0.2c-1.5-0.1-3.1-0.2-4.6-0.3c-0.5,0-0.9-0.5-0.9-1v-11c0-0.5,0.4-1,1-1
		c1.1,0,2.2,0,3.3-0.1c4-0.1,8-0.4,11.8-0.8c0,0,0.1,0,0.1,0c0.6,0,1.2,0,1.7,0c0.5,0,0.9,0,1.3,0c0.5,0,1,0,1.5,0
		c0.2,0,0.3,0,0.4,0c0.1,0,0.3,0,0.4,0c1.2,0,2.5-0.1,3.7-0.2c1.6-0.1,3.2-0.2,4.8-0.3c0.7,0,1.3-0.1,2-0.2c0.6-0.1,1.2-0.1,1.8-0.2
		c0.2,0,0.3,0,0.4,0c0,0,0.1,0,0.1,0l1.3-0.1c1.5-0.2,3-0.4,4.5-0.6c2.5-0.4,4.9-0.8,7.3-1.2l1.2-0.2c1.9-0.3,4-0.7,6-1.3
		c1-0.3,1.9-0.6,2.8-0.9c1.6-0.6,2.9-1.4,3.9-2.2c0.7-0.6,1.1-1.2,1.2-1.7c0.1-0.5,0.6-0.9,1.1-0.8c0.5,0,0.9,0.5,0.9,1l0,11
		c0,0,0,0,0,0c0,0.4,0,0.7,0,0.9c0,0.2,0,0.4,0,0.7c0,0.2,0,0.3,0,0.5c0,0.1,0,0.1,0,0.2c-0.7,2-2.8,3.6-6.4,4.8
		c-0.9,0.3-1.9,0.6-2.9,0.9c-1.8,0.5-3.5,0.8-4.9,1c-0.5,0.1-1,0.2-1.3,0.3c-2.5,0.5-5,0.9-7.3,1.3c-1.8,0.3-3.7,0.5-5.7,0.7
		c-4.5,0.5-9.3,0.8-14.3,1C356.9,224.1,354.8,224.2,352.8,224.2z M339.1,221.8c1.2,0.1,2.4,0.1,3.6,0.2c5.5,0.2,10.9,0.3,16,0.1
		c4.9-0.1,9.6-0.5,14.1-1c2-0.2,3.8-0.5,5.6-0.7c2.3-0.3,4.8-0.8,7.2-1.2c0.4-0.1,0.9-0.2,1.4-0.3c1.4-0.3,3.1-0.6,4.8-1
		c1-0.2,1.9-0.5,2.8-0.8c2.8-1,4.6-2.2,5.1-3.5c0-0.1,0-0.1,0-0.2c0-0.2,0-0.3,0-0.5c0-0.3,0-0.6,0-1.1l0-7.9
		c-1.1,1-2.6,1.8-4.3,2.5c-1,0.4-1.9,0.7-3,1c-2.1,0.6-4.3,1-6.2,1.3l-1.2,0.2c-2.4,0.4-4.8,0.9-7.4,1.2c-1.5,0.2-3.1,0.4-4.6,0.6
		l-1.4,0.2c0,0,0,0,0,0c-0.2,0-0.3,0-0.5,0c-0.6,0.1-1.2,0.1-1.8,0.2c-0.7,0.1-1.3,0.1-2,0.2c-1.6,0.1-3.2,0.2-4.8,0.3
		c-1.3,0.1-2.5,0.1-3.8,0.2c-0.2,0-0.3,0-0.4,0c-0.1,0-0.3,0-0.4,0c-0.5,0-1,0-1.5,0c-0.4,0-0.9,0-1.3,0c-0.6,0-1.1,0-1.7,0
		c-3.8,0.4-7.8,0.7-11.9,0.8c-0.8,0-1.6,0.1-2.4,0.1V221.8z"/>
</g>
<g>
	<path class="st2" d="M329.8,226.3c-2.9,0-6-0.1-9.2-0.2c-4.4-0.2-8.8-0.5-13-1c-0.4,0-0.8-0.1-1.2-0.1l-0.1,0
		c-0.2,0-0.5-0.1-0.7-0.1c-1-0.1-3.6-0.5-6.6-1.1c-5.1-1-17.2-3.9-17.5-8.5c0,0,0-0.1,0-0.1c0-0.1,0-0.2,0-0.3c0-0.1,0-0.2,0-0.2
		c0,0,0-0.1,0-0.1c0.3-1.1,1.3-2.2,3-3.2c3.6-2.2,8.1-3.3,11.7-3.9c0.1,0,0.3,0,0.4,0c0.9,0.2,1.8,0.4,2.7,0.6
		c1.7,0.3,3.5,0.6,5.4,0.9c0.5,0.1,0.9,0.5,0.9,1v4.1c0.1,0.2,0.2,0.4,0.3,0.6c2,2.9,10.7,5.2,23.9,6.5c2.2,0.2,4,0.3,5,0.4l0.5,0
		c0.8,0.1,1.6,0.1,2.4,0.2l0.4,0c1.5,0.1,3,0.2,4.6,0.2c5.5,0.2,10.9,0.3,16,0.1c0.5,0,1,0.4,1,0.9c0.1,0.5-0.3,1-0.8,1.1
		c-1.1,0.2-2.2,0.4-3.3,0.5c-5.6,0.8-11.5,1.3-17.5,1.6c-2.2,0.1-4.4,0.1-6.5,0.2C331,226.3,330.4,226.3,329.8,226.3z M283.6,215.2
		c0.2,2.1,6.9,4.9,15.8,6.6c3.2,0.6,5.7,1,6.4,1.1c0.2,0,0.5,0,0.7,0.1l0.1,0c0.4,0,0.8,0.1,1.2,0.1c4.2,0.5,8.5,0.8,12.9,1
		c3.8,0.2,7.5,0.2,10.9,0.2c2.2,0,4.3-0.1,6.5-0.1c1.4-0.1,2.9-0.1,4.3-0.2c-1.4-0.1-2.9-0.1-4.3-0.2l-0.4,0
		c-0.8-0.1-1.6-0.1-2.5-0.2l-0.5,0c-1-0.1-2.8-0.2-5-0.4c-9.9-1-22.4-3-25.4-7.3c-0.3-0.4-0.5-0.9-0.7-1.4c0-0.1,0-0.2,0-0.2v-3.4
		c-1.6-0.2-3.1-0.5-4.6-0.8c-0.9-0.2-1.7-0.4-2.6-0.5c-3.3,0.6-7.5,1.6-10.8,3.6c-1.5,0.9-2,1.6-2.1,2
		C283.6,215.1,283.6,215.1,283.6,215.2z"/>
</g>
<g>
	<path class="st2" d="M282.6,216.1c-0.3,0-0.6-0.1-0.8-0.4s-0.3-0.5-0.2-0.8c0-0.1,0.1-0.2,0.1-0.3c0.2-0.4,0.7-0.7,1.2-0.5
		c0.5,0.2,0.7,0.6,0.7,1.1C283.6,215.7,283.1,216.1,282.6,216.1z M282.9,215.2l0.6,0.3L282.9,215.2z"/>
</g>
<g>
	<path class="st2" d="M338.1,211.7v11c-0.9-0.1-1.9-0.1-2.8-0.2c-0.8-0.1-2.9-0.2-5.5-0.4c-8-0.8-21.7-2.7-24.7-6.9
		c-0.2-0.3-0.4-0.7-0.5-1.1v-4.2c2.3,0.3,4.5,0.6,6.4,0.7c2.7,0.3,4.7,0.4,5.5,0.5c2.5,0.2,4.9,0.3,7.4,0.4
		C328.7,211.7,333.4,211.8,338.1,211.7L338.1,211.7z"/>
	<path class="st2" d="M338.1,223.7C338.1,223.7,338.1,223.7,338.1,223.7l-0.4,0c-0.8-0.1-1.6-0.1-2.5-0.2l-0.5,0
		c-1-0.1-2.8-0.2-5-0.4c-9.9-1-22.4-3-25.4-7.3c-0.3-0.4-0.5-0.9-0.7-1.4c0-0.1,0-0.2,0-0.2v-4.2c0-0.3,0.1-0.6,0.3-0.8
		c0.2-0.2,0.5-0.3,0.8-0.2c2,0.3,4.1,0.5,6.4,0.7c2.2,0.2,4,0.4,5,0.4l0.5,0c2.6,0.2,5,0.3,7.4,0.4c4.8,0.2,9.5,0.3,14.1,0.2
		c0.3,0,0.5,0.1,0.7,0.3c0.2,0.2,0.3,0.4,0.3,0.7v11c0,0.3-0.1,0.5-0.3,0.7C338.6,223.6,338.4,223.7,338.1,223.7z M305.7,213.9
		c0.1,0.2,0.2,0.4,0.3,0.6c2,2.9,10.7,5.2,23.9,6.5c2.2,0.2,4,0.3,5,0.4l0.5,0c0.6,0,1.2,0.1,1.7,0.1v-8.9c-4.3,0.1-8.7,0-13.2-0.2
		c-2.3-0.1-4.8-0.2-7.4-0.4l-0.5,0c-1-0.1-2.8-0.2-5.1-0.4c-1.8-0.2-3.6-0.4-5.3-0.6V213.9z"/>
</g>
<g>
	<path class="st2" d="M360.2,191.9c-0.2,0-0.5-0.1-0.6-0.2c-0.2-0.2-0.4-0.5-0.4-0.8v-0.2c0-0.6,0.4-1,1-1h0.7c0.5,0,0.9,0.4,1,0.8
		c0.1,0.5-0.2,1-0.7,1.1c-0.2,0.1-0.5,0.1-0.8,0.2C360.3,191.9,360.3,191.9,360.2,191.9z"/>
</g>
<g>
	<path class="st2" d="M333.6,200.4c-3.1,0-6.4-0.1-9.6-0.2c-4.3-0.2-8.6-0.5-13-1c-0.4,0-0.9-0.1-1.3-0.1c-0.2,0-0.5,0-0.7-0.1
		c-0.3,0-1-0.1-1.9-0.3c-0.4-0.1-0.7-0.4-0.8-0.8s0.1-0.8,0.4-1c0.2-0.1,0.5-0.2,0.8-0.2c0.8,0.1,1.4,0.2,1.8,0.3l0.7,0.1
		c0.4,0,0.9,0.1,1.3,0.1c4.3,0.5,8.7,0.8,12.9,1c4.5,0.2,9.3,0.3,14.1,0.2c1.1,0,2.3-0.1,3.4-0.1c3.9-0.2,7.8-0.5,11.7-0.9
		c1.7-0.2,3.5-0.4,5.6-0.7c0.4-0.1,0.9-0.1,1.3-0.2c0.7-0.1,1.3-0.2,2-0.3l0.9-0.2c1-0.2,2.1-0.4,3.1-0.5c0.5-0.1,1.1-0.2,1.6-0.3
		c0,0,0.1,0,0.3,0c2.4-0.5,5.5-1,8-2l0.2-0.1c0.2-0.1,0.4-0.1,0.6-0.2c1-0.5,1.9-1,2.6-1.5c0.6-0.5,1.7,0,1.7,0.8
		c0,0.3-0.1,0.6-0.4,0.8c-0.9,0.7-1.9,1.3-3.1,1.8c-0.3,0.1-0.6,0.2-0.9,0.4c-2.7,1.1-5.9,1.7-8.4,2.1c0,0-0.1,0-0.1,0
		c-0.1,0-0.2,0-0.2,0c-0.2,0-0.5,0.1-0.8,0.2c-0.3,0-0.5,0.1-0.8,0.1c-1.1,0.2-2.2,0.4-3.4,0.6l-0.9,0.1c-0.6,0.1-1.2,0.2-1.8,0.3
		l-1.3,0.2c-1.9,0.3-3.8,0.5-5.6,0.7c-3.9,0.4-7.9,0.7-11.8,0.9l-0.2,0c-1.1,0-2.1,0.1-3.2,0.1C336.6,200.4,335.1,200.4,333.6,200.4
		z"/>
</g>
<g>
	<path class="st2" d="M353.8,211.8c-0.2,0-0.3,0-0.5,0c-0.5,0-1-0.4-1-1s0.4-1,0.9-1c4.7-0.5,9.4-1.2,13.7-2.1l0.1,0
		c0.1,0,0.2,0,0.4-0.1c0,0,0.1,0,0.1,0c0,0,0,0,0,0l0,0c0,0,0.2,0,0.2,0l0.4-0.1c2-0.4,5.1-0.9,7.7-1.8c0.3-0.1,0.5-0.2,0.8-0.3
		c2.4-0.9,3.9-2,4.3-3.2c0-0.1,0-0.1,0-0.2c0-0.2,0-0.4,0-0.6c0-0.3,0-0.6-0.1-1v-8c0-0.3,0.1-0.6,0.3-0.8c0.2-0.2,0.5-0.3,0.8-0.2
		c0.1,0,0.3,0,0.4,0.1l0.1,0c0.3,0,0.7,0.1,1,0.2c0.3,0.1,0.7,0.1,1.1,0.2c0.4,0.1,0.9,0.2,1.4,0.3c0.5,0.1,1,0.2,1.4,0.3l0.3,0.1
		c0.2,0,0.4,0.1,0.6,0.2c0.2,0,0.5,0.1,0.7,0.2c0.5,0.1,1.1,0.3,1.7,0.5c0.1,0,0.3,0.1,0.4,0.1l0.5,0.1c0.3,0.1,0.4,0.1,0.6,0.2
		l0.6,0.2c0.5,0.2,1,0.3,1.5,0.5l0.2,0.1c0.2,0.1,0.4,0.1,0.7,0.2c3.6,1.4,5.7,2.9,6.2,4.7c0.1,0.2,0.1,0.4,0.1,0.6c0,0,0,0,0,0.1
		v0.7c0,0.1,0,0.1,0,0.2c-0.2,1-0.8,1.9-1.8,2.8c-1.2,1-2.6,1.9-4.5,2.6c-1,0.4-1.9,0.7-3,1c-2.1,0.6-4.3,1-6.2,1.3l-1.2,0.2
		c-2.4,0.4-4.8,0.9-7.4,1.2c-1.5,0.2-3.1,0.4-4.6,0.6l-1.4,0.2c0,0,0,0,0,0c-0.2,0-0.3,0-0.5,0c-0.6,0.1-1.2,0.1-1.8,0.2
		c-0.7,0.1-1.3,0.1-2,0.2c-1.6,0.1-3.2,0.2-4.8,0.3c-1.3,0.1-2.5,0.1-3.8,0.2c-0.2,0-0.3,0-0.4,0c-0.1,0-0.3,0-0.4,0
		c-0.5,0-1,0-1.5,0c-0.5,0-0.9,0-1.4,0C354.7,211.7,354.3,211.8,353.8,211.8z M383,193.5v6.8c0,0.4,0,0.6,0,0.9c0,0.3,0,0.5,0,0.7
		c0,0.1,0,0.3,0,0.5c0,0.1,0,0.2-0.1,0.2c-0.6,1.9-2.5,3.3-5.6,4.5c-0.3,0.1-0.6,0.2-0.9,0.3c-1.4,0.5-2.9,0.9-4.2,1.2l0.6-0.1
		c1.5-0.2,3-0.4,4.5-0.6c2.5-0.4,4.9-0.8,7.3-1.2l1.2-0.2c1.9-0.3,4-0.7,6-1.3c1-0.3,1.9-0.6,2.8-0.9c1.6-0.6,2.9-1.4,3.9-2.2
		c0.7-0.6,1-1.1,1.2-1.6v-0.5c0,0,0-0.1,0-0.1c-0.2-0.7-1.1-1.9-5-3.4c-0.2-0.1-0.4-0.1-0.6-0.2l-0.1,0c-0.5-0.2-1-0.4-1.5-0.5
		l-0.6-0.2c-0.2-0.1-0.3-0.1-0.4-0.1l-0.6-0.2c-0.1,0-0.3-0.1-0.4-0.1c-0.6-0.2-1.1-0.3-1.7-0.5c-0.3-0.1-0.5-0.1-0.7-0.2
		c-0.2-0.1-0.4-0.1-0.6-0.1l-0.3-0.1c-0.4-0.1-0.9-0.2-1.4-0.3c-0.5-0.1-0.9-0.2-1.4-0.3c-0.4-0.1-0.7-0.1-1.1-0.2
		C383.2,193.6,383.1,193.6,383,193.5z"/>
</g>
<g>
	<path class="st3" d="M320.2,196.3c-2.3,0-4.7,0-7.3-0.1l-2.4-0.1c-2.4-0.1-4.9-0.3-7.4-0.4l-0.7-0.1c-0.7-0.1-1.8-0.1-3.2-0.2
		c-0.5,0-1.1-0.1-1.7-0.2c-2.7-0.3-5.1-0.6-7.3-0.9l0,0c0,0,0,0-0.1,0c-0.1,0-0.1,0-0.1,0c-1.5-0.2-2.9-0.4-4.2-0.7
		c-8.9-1.7-13.6-4-14.3-7.1c0-0.1,0-0.2,0-0.2V173c0-0.6,0.4-1,1-1s1,0.4,1,1c0,0,0,0.1,0,0.1c0,0,0,0,0,0.1c0,0,0,0,0,0
		c0,0,0,0.1,0,0.1c0,0,0,0.1,0.1,0.1c0.1,0.1,0.1,0.2,0.2,0.3c0.1,0.1,0.2,0.2,0.3,0.3c0.1,0.1,0.2,0.2,0.4,0.3
		c0.2,0.2,0.4,0.3,0.7,0.5c0.1,0.1,0.2,0.1,0.2,0.1c0.2,0.1,0.4,0.2,0.6,0.3c0.6,0.3,1.3,0.6,2.1,1c0.4,0.2,0.8,0.3,1.2,0.5l0.5,0.2
		c0,0,0.1,0,0.1,0l0.4,0.1c1.1,0.3,2.2,0.7,3.3,1c0.4,0.1,0.8,0.2,1.1,0.3c0.5,0.1,1,0.3,1.5,0.4c0.5,0.1,1,0.2,1.5,0.3l0.2,0
		c0.3,0.1,0.5,0.1,0.8,0.2c0.7,0.1,1.3,0.3,1.8,0.4l0.2,0c0.1,0,0.2,0,0.3,0c0.1,0,0.2,0,0.3,0.1c0.4,0.1,0.7,0.1,1,0.2
		c0.2,0,0.4,0.1,0.5,0.1l0.4,0.1c0,0,0,0,0,0c0,0,0,0,0,0l0.8,0.1c0.1,0,0.2,0,0.3,0.1l0.5,0.1c0.1,0,0.3,0,0.4,0c0,0,0.1,0,0.1,0
		c0.1,0,0.1,0,0.2,0c0.2,0,0.3,0,0.3,0c0,0,0.1,0,0.1,0l0.1,0c0.1,0,0.2,0,0.2,0c0.2,0,0.4,0,0.6,0.1c0.2,0,0.4,0,0.6,0.1
		c0,0,0.1,0,0.1,0c0.4,0,0.7,0.1,1,0.1l0.5,0c0.9,0.1,1.7,0.2,2.6,0.2l0.7,0.1c0.8,0.1,1.7,0.1,2.5,0.2c0.7,0.1,1.4,0.1,2.1,0.1
		c0.6,0,1.3,0.1,1.9,0.1c0,0,0.1,0,0.1,0c0.4,0,0.8,0,1.2,0.1l0.8,0c0.7,0,1.4,0.1,2.1,0.1l0.2,0c0.5,0,1,0,1.5,0
		c1.2,0,2.4,0.1,3.5,0.1c2.3,0,4.5,0,6.7-0.1c0.6,0,1.1,0,1.7,0l1,0c0.6,0,1.2,0,1.9-0.1c0.4,0,0.9,0,1.3-0.1l0.1,0
		c0.3,0,0.6,0,0.9-0.1l1.4-0.1c0.3,0,0.5,0.1,0.8,0.3c0.2,0.2,0.3,0.5,0.3,0.7v12.5c0,0.5-0.4,1-0.9,1c-2,0.1-3.9,0.2-5.6,0.3
		c-2.1,0.1-4.2,0.1-6.5,0.1C321,196.3,320.6,196.3,320.2,196.3z M290.6,192.3c2.2,0.3,4.5,0.6,7.1,0.8c0.6,0.1,1.2,0.1,1.7,0.1
		c1.3,0.1,2.4,0.2,3.1,0.2l0.7,0.1c2.5,0.2,5,0.3,7.4,0.4l2.4,0.1c3,0.1,5.8,0.1,8.5,0.1c2.3,0,4.4-0.1,6.5-0.1
		c1.5-0.1,3-0.1,4.7-0.2v-10.5l-0.3,0c-0.3,0-0.7,0-1,0.1l-0.1,0c-0.4,0-0.9,0.1-1.3,0.1c-0.6,0-1.3,0.1-1.9,0.1l-1,0
		c-0.6,0-1.2,0-1.8,0.1c-2.2,0.1-4.5,0.1-6.8,0.1c0,0,0,0,0,0c-1.2,0-2.4,0-3.6-0.1c-0.5,0-1,0-1.6,0l-0.1,0c-0.7,0-1.4,0-2.1-0.1
		l-0.8,0c-0.4,0-0.8,0-1.2-0.1c0,0-0.1,0-0.2,0c-0.6,0-1.2-0.1-1.8-0.1c-0.7,0-1.4-0.1-2.1-0.1c-0.8,0-1.7-0.1-2.6-0.2l-0.7-0.1
		c-0.9-0.1-1.8-0.2-2.7-0.3l-0.5,0c-0.3,0-0.6-0.1-1-0.1c-0.1,0-0.1,0-0.2,0c-0.2,0-0.4,0-0.6-0.1c-0.2,0-0.4,0-0.6-0.1l-0.4-0.1
		c-0.1,0-0.2,0-0.4,0c-0.1,0-0.2,0-0.3,0c-0.1,0-0.3,0-0.5-0.1l-0.5-0.1c-0.1,0-0.2,0-0.2,0l-0.9-0.1c0,0,0,0-0.1,0c0,0,0,0,0,0
		l-0.4-0.1c-0.2,0-0.4-0.1-0.5-0.1c-0.3,0-0.6-0.1-1-0.2c-0.1,0-0.3,0-0.4-0.1l-0.2,0c-0.1,0-0.2,0-0.3,0c-0.6-0.1-1.2-0.2-1.8-0.4
		c-0.2,0-0.5-0.1-0.8-0.2l-0.2,0c-0.5-0.1-1-0.2-1.5-0.3c-0.5-0.1-1-0.2-1.5-0.4c-0.4-0.1-0.8-0.2-1.1-0.3c-1.1-0.3-2.3-0.6-3.4-1
		l-0.4-0.1c-0.1,0-0.1,0-0.2-0.1l-0.5-0.2c-0.5-0.1-0.9-0.3-1.3-0.5c-0.9-0.4-1.7-0.7-2.3-1.1c-0.2-0.1-0.4-0.2-0.7-0.4
		c-0.1,0-0.2-0.1-0.3-0.2c-0.2-0.1-0.4-0.3-0.7-0.4v10c0.4,1.3,2.6,3.6,12.7,5.5c1.3,0.2,2.7,0.5,4,0.7c0,0,0,0,0,0c0,0,0.1,0,0.1,0
		C290.4,192.3,290.5,192.3,290.6,192.3z M290.9,192.5c0.3,0.2,0.4,0.5,0.4,0.8C291.3,193,291.1,192.7,290.9,192.5z M290.3,192.3
		L290.3,192.3L290.3,192.3z M290.3,192.3C290.3,192.3,290.3,192.3,290.3,192.3C290.3,192.3,290.3,192.3,290.3,192.3z M290.3,192.3
		L290.3,192.3L290.3,192.3z M290.3,192.3C290.3,192.3,290.3,192.3,290.3,192.3C290.3,192.3,290.3,192.3,290.3,192.3z M273.5,173.3
		C273.5,173.3,273.5,173.3,273.5,173.3C273.5,173.3,273.5,173.3,273.5,173.3z"/>
</g>
<g>
	<path class="st6" d="M382,189.3L382,189.3c-0.1,0.8-0.6,1.5-1.5,2.3c-0.2,0.1-0.3,0.3-0.5,0.4c-0.9,0.6-1.8,1.2-2.9,1.7
		c-0.3,0.1-0.5,0.2-0.8,0.3c-2.6,1-5.6,1.6-8.3,2.1c-0.1,0-0.1,0-0.2,0c-0.6,0.1-1.1,0.2-1.6,0.3c-1.1,0.2-2.2,0.4-3.3,0.6
		c-0.9,0.1-1.8,0.3-2.7,0.4c-0.4,0.1-0.9,0.1-1.3,0.2c-1.9,0.3-3.7,0.5-5.6,0.7c-3.9,0.4-7.8,0.7-11.7,0.9c-1.1,0-2.2,0.1-3.4,0.1
		c-1.5,0-3,0.1-4.5,0.1c-3.2,0-6.4-0.1-9.6-0.2c-4.3-0.2-8.7-0.5-12.9-1c-0.4,0-0.9-0.1-1.3-0.1c-0.2,0-0.5-0.1-0.7-0.1
		c-0.4,0-1-0.1-1.9-0.3c-1.9-0.3-4.8-0.8-7.9-1.5c-2.3-0.5-4.6-1.2-6.7-1.9c-0.9-0.3-1.7-0.6-2.5-1c0.1,0,0.2,0,0.2,0c0,0,0,0,0,0
		c0.7,0.3,1.4,0.6,2.2,0.9c2.1,0.7,4.4,1.4,6.7,1.9c3.1,0.7,6.1,1.2,8,1.5c0.8,0.1,1.5,0.2,1.8,0.3c0.2,0,0.5,0.1,0.7,0.1
		c0.4,0.1,0.9,0.1,1.3,0.1c4.3,0.5,8.6,0.8,12.9,1c3.2,0.1,6.4,0.2,9.6,0.2c1.5,0,3,0,4.5-0.1c1.1,0,2.2-0.1,3.4-0.1
		c3.9-0.2,7.9-0.5,11.7-0.9c1.9-0.2,3.8-0.4,5.6-0.7c0.4-0.1,0.9-0.1,1.3-0.2c0.9-0.1,1.8-0.3,2.7-0.4c1.1-0.2,2.2-0.4,3.3-0.6
		c0.5-0.1,1-0.2,1.6-0.3c0.1,0,0.1,0,0.2,0c2.6-0.5,5.6-1.1,8.3-2.1c0.3-0.1,0.5-0.2,0.8-0.3c1-0.4,2-1,2.8-1.6
		c0.2-0.1,0.4-0.3,0.6-0.5C381.4,190.8,381.9,190,382,189.3L382,189.3z"/>
	<path class="st3" d="M333.6,200.4c-3.1,0-6.4-0.1-9.6-0.2c-4.3-0.2-8.6-0.5-13-1c-0.4,0-0.9-0.1-1.3-0.1c-0.2,0-0.5,0-0.7-0.1
		c-0.3,0-1-0.1-1.9-0.3c-1.2-0.2-4.3-0.7-8-1.5c-2.7-0.6-5-1.3-6.8-1.9c-1-0.3-1.8-0.7-2.6-1c-0.5-0.2-0.7-0.7-0.6-1.2
		c0.1-0.5,0.6-0.8,1.1-0.7c0,0,0.1,0,0.1,0c0.2,0,0.3,0,0.4,0.1c0.7,0.3,1.4,0.6,2.1,0.8c1.9,0.7,4.1,1.3,6.6,1.9
		c3.5,0.8,6.7,1.3,7.9,1.5c0.8,0.1,1.4,0.2,1.8,0.3l0.7,0.1c0.4,0,0.9,0.1,1.3,0.1c4.3,0.5,8.7,0.8,12.9,1c4.5,0.2,9.3,0.3,14.1,0.2
		c1.1,0,2.3-0.1,3.4-0.1c3.9-0.2,7.8-0.5,11.7-0.9c1.7-0.2,3.5-0.4,5.6-0.7c0.4-0.1,0.9-0.1,1.3-0.2c0.7-0.1,1.3-0.2,2-0.3l0.9-0.2
		c1-0.2,2.1-0.4,3.1-0.5c0.5-0.1,1.1-0.2,1.6-0.3c0,0,0.1,0,0.3,0c2.4-0.5,5.5-1,8-2l0.2-0.1c0.2-0.1,0.4-0.1,0.6-0.2
		c1-0.5,1.9-1,2.6-1.5c0.2-0.1,0.4-0.3,0.5-0.4c0.7-0.6,1.1-1.2,1.2-1.7c0.1-0.5,0.5-0.9,1.1-0.8c0.5,0,0.9,0.5,0.9,1v0.1
		c0,0.1,0,0.1,0,0.2c-0.2,1-0.8,1.9-1.8,2.8c-0.2,0.2-0.4,0.3-0.6,0.5c-0.8,0.6-1.9,1.2-3.1,1.8c-0.3,0.1-0.6,0.2-0.9,0.4
		c-2.7,1.1-5.9,1.7-8.4,2.1c0,0-0.1,0-0.1,0c-0.1,0-0.2,0-0.2,0c-0.2,0-0.5,0.1-0.8,0.2c-0.3,0-0.5,0.1-0.8,0.1
		c-1.1,0.2-2.2,0.4-3.4,0.6l-0.9,0.1c-0.6,0.1-1.2,0.2-1.8,0.3l-1.3,0.2c-1.9,0.3-3.8,0.5-5.6,0.7c-3.9,0.4-7.9,0.7-11.8,0.9l-0.2,0
		c-1.1,0-2.1,0.1-3.2,0.1C336.6,200.4,335.1,200.4,333.6,200.4z M291,192.6C291,192.6,291,192.6,291,192.6c0,0-0.1-0.1-0.1-0.1
		C290.9,192.5,291,192.6,291,192.6z M290.3,192.3C290.3,192.3,290.3,192.3,290.3,192.3C290.3,192.3,290.3,192.3,290.3,192.3z"/>
</g>
<g>
	<path class="st6" d="M380.5,191.6c-0.2,0.2-0.4,0.3-0.6,0.5c-0.8,0.6-1.8,1.2-2.8,1.6c-0.3,0.1-0.5,0.2-0.8,0.3
		c-2.6,1-5.6,1.6-8.3,2.1c-0.1,0-0.1,0-0.2,0c-0.6,0.1-1.1,0.2-1.6,0.3c-1.1,0.2-2.2,0.4-3.3,0.6c-0.9,0.1-1.8,0.3-2.7,0.4
		c-0.4,0.1-0.9,0.1-1.3,0.2c-1.9,0.3-3.7,0.5-5.6,0.7c-3.9,0.4-7.8,0.7-11.7,0.9c-1.1,0-2.2,0.1-3.4,0.1c-1.5,0.1-3,0.1-4.5,0.1
		c-3.2,0-6.4-0.1-9.6-0.2c-4.3-0.2-8.7-0.5-12.9-1c-0.4,0-0.9-0.1-1.3-0.1c-0.2,0-0.5-0.1-0.7-0.1c-0.3,0-1-0.1-1.8-0.3
		c-1.9-0.3-4.9-0.8-8-1.5c-2.3-0.5-4.6-1.2-6.7-1.9c-0.8-0.3-1.5-0.6-2.2-0.9c0,0,0,0,0,0c-0.1,0-0.2,0-0.2,0c0.8,0.3,1.6,0.7,2.5,1
		c2.1,0.7,4.4,1.4,6.7,1.9c3.1,0.7,6,1.2,7.9,1.5c0.9,0.1,1.5,0.2,1.9,0.3c0.2,0,0.5,0.1,0.7,0.1c0.4,0.1,0.9,0.1,1.3,0.1
		c4.3,0.5,8.6,0.8,12.9,1c3.2,0.1,6.4,0.2,9.6,0.2c1.5,0,3,0,4.5-0.1c1.1,0,2.2-0.1,3.4-0.1c3.9-0.2,7.9-0.5,11.7-0.9
		c1.9-0.2,3.8-0.4,5.6-0.7c0.4-0.1,0.9-0.1,1.3-0.2c0.9-0.1,1.8-0.3,2.7-0.4c1.1-0.2,2.2-0.4,3.3-0.6c0.5-0.1,1-0.2,1.6-0.3
		c0.1,0,0.1,0,0.2,0c2.6-0.5,5.6-1.1,8.3-2.1c0.3-0.1,0.5-0.2,0.8-0.3c1.1-0.5,2-1,2.9-1.7C380.2,191.9,380.3,191.8,380.5,191.6
		c0.9-0.7,1.4-1.5,1.5-2.2v-0.1C381.9,190,381.4,190.7,380.5,191.6L380.5,191.6z"/>
	<path class="st3" d="M333.6,200.4c-3.1,0-6.4-0.1-9.6-0.2c-4.3-0.2-8.6-0.5-13-1c-0.4,0-0.9-0.1-1.3-0.1c-0.2,0-0.5,0-0.7-0.1
		c-0.3,0-1-0.1-1.9-0.3c-1.2-0.2-4.3-0.7-8-1.5c-2.7-0.6-5-1.3-6.8-1.9c-1-0.3-1.8-0.7-2.6-1c-0.5-0.2-0.7-0.7-0.6-1.2
		s0.6-0.8,1.1-0.7c0,0,0.1,0,0.1,0c0.2,0,0.3,0,0.4,0.1c0.7,0.3,1.4,0.6,2.1,0.8c1.9,0.7,4.1,1.3,6.6,1.9c3.5,0.8,6.7,1.3,7.9,1.5
		c0.8,0.1,1.4,0.2,1.8,0.3l0.7,0.1c0.4,0,0.9,0.1,1.3,0.1c4.3,0.5,8.7,0.8,12.9,1c3.1,0.1,6.3,0.2,9.6,0.2c1.3,0,2.9,0,4.5-0.1
		c1.1,0,2.2-0.1,3.3-0.1c3.9-0.2,7.8-0.5,11.7-0.9c1.7-0.2,3.5-0.4,5.6-0.7c0.4-0.1,0.9-0.1,1.3-0.2c0.7-0.1,1.3-0.2,2-0.3l1-0.2
		c1-0.2,2.1-0.4,3.1-0.5c0.5-0.1,1.1-0.2,1.6-0.3c0,0,0.1,0,0.3-0.1c2.4-0.5,5.5-1,8-2l0.2-0.1c0.2-0.1,0.4-0.1,0.6-0.2
		c1-0.5,1.9-1,2.6-1.5c0.2-0.1,0.4-0.3,0.5-0.4c0,0,0,0,0,0c0.7-0.6,1.1-1.2,1.2-1.7c0.1-0.5,0.5-0.9,1.1-0.8c0.5,0,0.9,0.5,0.9,1
		c0,0.1,0,0.2,0,0.2c-0.2,1-0.8,1.9-1.8,2.8c-0.2,0.2-0.4,0.3-0.6,0.5c-0.8,0.6-1.9,1.2-3.1,1.8c-0.3,0.1-0.6,0.2-0.9,0.4
		c-2.7,1.1-5.9,1.7-8.4,2.1c-0.1,0-0.2,0-0.3,0c-0.3,0.1-0.5,0.1-0.8,0.1c-0.3,0-0.5,0.1-0.8,0.1c-1.1,0.2-2.2,0.4-3.4,0.6l-0.9,0.1
		c-0.6,0.1-1.2,0.2-1.8,0.3l-1.3,0.2c-1.9,0.3-3.8,0.5-5.6,0.7c-3.9,0.4-7.9,0.7-11.8,0.9l-0.2,0c-1.1,0-2.1,0.1-3.2,0.1
		C336.6,200.4,335.1,200.4,333.6,200.4z M291,192.6C291,192.6,291,192.6,291,192.6c0,0-0.1-0.1-0.2-0.1
		C290.9,192.5,291,192.6,291,192.6z M290.3,192.3C290.3,192.3,290.3,192.3,290.3,192.3C290.3,192.3,290.3,192.3,290.3,192.3z"/>
</g>
<g>
	<path class="st3" d="M333.6,200.3c-3.3,0-6.5-0.1-9.6-0.2c-4.3-0.2-8.6-0.5-13-1c-0.4,0-0.9-0.1-1.3-0.1l-0.4,0c-0.1,0-0.3,0-0.4,0
		c-0.3,0-1-0.1-1.8-0.3c-1.2-0.2-4.5-0.7-8.1-1.5c-2.6-0.6-4.9-1.3-6.8-1.9c-0.8-0.3-1.5-0.6-2.3-0.9c-0.5-0.2-0.7-0.7-0.6-1.2
		c0.1-0.5,0.6-0.8,1.1-0.7c2.2,0.3,4.5,0.6,7.2,0.9c0.6,0.1,1.2,0.1,1.7,0.1c1.3,0.1,2.4,0.2,3.1,0.2l0.7,0.1c2.5,0.2,5,0.3,7.4,0.4
		l2.4,0.1c3,0.1,5.8,0.1,8.5,0.1c2,0,4.1,0,6.5-0.1c1.8-0.1,3.6-0.2,5.6-0.3c1.5-0.1,3-0.2,4.5-0.4c4.1-0.4,8.1-0.9,12-1.6
		c1-0.2,2-0.4,3-0.6c0,0,0.1,0,0.1,0c0,0,0.1,0,0.1,0c0.1,0,0.1,0,0.2,0c0.4-0.1,0.9-0.2,1.4-0.3c1.4-0.3,3.2-0.6,5-1.1
		c0.3-0.1,0.5-0.1,0.7-0.2c0.7-0.2,1.3-0.4,1.9-0.6v0c0,0,0.1,0,0.1,0c2.8-1,4.5-2.2,5-3.5c0-0.1,0-0.1,0-0.2c0-0.2,0-0.4,0-0.5
		c0-0.3,0-0.6,0-1.1V182c0-0.3,0.1-0.6,0.4-0.8c0.2-0.2,0.5-0.3,0.8-0.2c1.1,0.2,2.2,0.5,3.1,0.8c1.5,0.4,2.8,0.8,4.1,1.3
		c0.2,0.1,0.5,0.2,0.7,0.3c0.3,0.1,0.6,0.2,0.9,0.3c3.1,1.3,4.9,2.7,5.4,4.3c0,0.1,0.1,0.2,0.1,0.4c0,0.1,0,0.2,0,0.2v0.6
		c0,0.1,0,0.1,0,0.2c-0.2,1-0.8,1.9-1.8,2.8c-0.2,0.2-0.4,0.3-0.6,0.5c-0.8,0.6-1.8,1.2-3,1.7c-0.2,0.1-0.4,0.2-0.7,0.3l-0.2,0.1
		c-2.8,1.1-5.9,1.7-8.5,2.1c-0.1,0-0.1,0-0.2,0c-0.6,0.1-1.1,0.2-1.6,0.3c-1,0.2-2.1,0.4-3.1,0.6l-1,0.2c-0.7,0.1-1.3,0.2-2,0.3
		c-0.4,0.1-0.9,0.1-1.3,0.2c-2.1,0.3-3.9,0.5-5.6,0.7c-3.9,0.4-7.9,0.7-11.8,0.9c-1.1,0-2.3,0.1-3.4,0.1
		C336.6,200.3,335,200.3,333.6,200.3z M301.3,195.5c2.8,0.6,5.1,1,6.1,1.1c0.8,0.1,1.4,0.2,1.8,0.3l0.7,0.1c0.4,0,0.9,0.1,1.3,0.1
		c4.3,0.5,8.7,0.8,12.9,1c3.1,0.1,6.3,0.2,9.6,0.2c1.3,0,2.9,0,4.5-0.1c1.1,0,2.2-0.1,3.3-0.1c3.9-0.2,7.8-0.5,11.7-0.9
		c1.7-0.2,3.5-0.4,5.6-0.7c0.4-0.1,0.9-0.1,1.3-0.2c0.7-0.1,1.3-0.2,2-0.3l1-0.2c1-0.2,2.1-0.4,3.1-0.5c0.5-0.1,1.1-0.2,1.6-0.3
		c0,0,0.1,0,0.3-0.1c2.4-0.5,5.5-1,8-2l0.2-0.1c0.2-0.1,0.4-0.1,0.6-0.2c1-0.5,1.9-1,2.6-1.5c0.2-0.1,0.4-0.3,0.5-0.4
		c0.7-0.6,1.1-1.1,1.2-1.6v-0.5c0,0,0-0.1,0-0.1c-0.2-0.6-1-1.7-4.2-3.1c-0.3-0.1-0.5-0.2-0.8-0.3c-0.3-0.1-0.5-0.2-0.7-0.3
		c-1.2-0.4-2.5-0.8-3.9-1.2c-0.5-0.2-1.2-0.3-1.8-0.5v0.6c0,0.4,0,0.7,0,1c0,0.2,0,0.5,0,0.7c0,0.2,0,0.4,0,0.5c0,0.1,0,0.1,0,0.2
		c-0.7,2-2.7,3.6-6.3,4.8c0,0-0.1,0-0.1,0c-0.6,0.2-1.2,0.4-1.9,0.6c-0.2,0.1-0.5,0.1-0.7,0.2c-1.9,0.5-3.8,0.8-5.2,1.1
		c-0.5,0.1-1,0.2-1.4,0.3c-0.1,0-0.3,0.1-0.4,0.1c0,0-0.1,0-0.2,0c-1,0.2-2,0.4-2.9,0.6c-4,0.7-8.1,1.2-12.2,1.6
		c-1.5,0.1-3,0.3-4.6,0.4c-2,0.1-3.9,0.2-5.7,0.3c-2.4,0.1-4.5,0.1-6.5,0.1c-2.7,0-5.5,0-8.6-0.1l-2.4-0.1c-2.4-0.1-4.9-0.3-7.4-0.4
		l-0.7-0.1C302,195.6,301.7,195.5,301.3,195.5z"/>
</g>
<g>
	<path class="st3" d="M362.8,177.5v12.6c0,0,0,0-0.1,0c-0.6,0.2-1.2,0.4-1.9,0.6h-0.7v-12.3c0.2,0,0.3-0.1,0.5-0.1
		c0.3-0.1,0.6-0.2,1-0.3C362,177.8,362.4,177.7,362.8,177.5C362.8,177.5,362.8,177.5,362.8,177.5L362.8,177.5z"/>
	<path class="st3" d="M360.9,191.7h-0.7c-0.6,0-1-0.4-1-1v-12.3c0-0.5,0.3-0.9,0.8-1c0.1,0,0.3-0.1,0.4-0.1c0.4-0.1,0.7-0.2,1-0.3
		c0.4-0.1,0.7-0.2,1.1-0.4c0,0,0.1,0,0.1,0c0.3-0.1,0.6-0.1,0.8,0.1c0.3,0.2,0.5,0.5,0.5,0.9v12.6c0,0.5-0.3,0.9-0.8,1
		c-0.6,0.2-1.2,0.4-1.9,0.6C361,191.7,361,191.7,360.9,191.7z M361.1,179.1v10.5c0.2-0.1,0.5-0.1,0.7-0.2v-10.5
		C361.6,179,361.4,179.1,361.1,179.1z"/>
</g>
<g>
	<path class="st3" d="M272.5,172.4L272.5,172.4c0,0.1,0,0.2-0.1,0.3c0,0.1,0,0.2,0,0.3v-1C272.4,172.1,272.5,172.2,272.5,172.4
		L272.5,172.4z"/>
</g>
<g>
	<path class="st4" d="M272.5,172.4L272.5,172.4c0,0.1,0,0.2-0.1,0.3c0,0.1,0,0.2,0,0.3v-1C272.4,172.1,272.5,172.2,272.5,172.4
		L272.5,172.4z"/>
</g>
<g>
	<path class="st3" d="M333.9,212.7c-3.2,0-6.6-0.1-9.9-0.2c-2.3-0.1-4.8-0.2-7.4-0.4l-0.5,0c-1-0.1-2.8-0.2-5.1-0.4
		c-2.3-0.2-4.4-0.5-6.5-0.7c-1.9-0.3-3.7-0.6-5.5-0.9c-0.9-0.2-1.9-0.4-2.8-0.6c-6.9-1.6-10.7-3.8-11.3-6.5c0-0.1,0-0.2,0-0.2v-10
		c0-0.3,0.1-0.6,0.4-0.8c0.2-0.2,0.5-0.3,0.8-0.2c1.3,0.3,2.7,0.5,4.1,0.7c0.1,0,0.2,0,0.3,0.1c0.7,0.3,1.5,0.6,2.4,0.9
		c1.8,0.6,4,1.3,6.6,1.9c3.6,0.8,6.7,1.3,7.8,1.5c0.9,0.1,1.5,0.2,1.8,0.3c0.2,0,0.5,0.1,0.7,0.1c0.5,0.1,0.9,0.1,1.3,0.1
		c4.3,0.5,8.6,0.8,12.9,1c4.8,0.2,9.5,0.3,14.1,0.2c1.1,0,2.1-0.1,3.1-0.1l0.2,0c3.9-0.2,7.8-0.5,11.7-0.9c1.9-0.2,3.7-0.4,5.6-0.7
		l1.3-0.2c0.6-0.1,1.2-0.2,1.8-0.3l0.9-0.1c1.1-0.2,2.2-0.4,3.3-0.6c0.2,0,0.5-0.1,0.8-0.1c0.3,0,0.5-0.1,0.8-0.2c0,0,0.1,0,0.1,0
		c0.1,0,0.2,0,0.2,0c2.4-0.5,5.5-1,8-2c0.3-0.1,0.5-0.2,0.8-0.3c1-0.5,1.9-1,2.7-1.6c0.2-0.1,0.3-0.2,0.4-0.4
		c0.7-0.6,1.1-1.2,1.2-1.7c0.1-0.5,0.5-0.9,1.1-0.8c0.5,0,0.9,0.5,0.9,1l0,10.9c0,0.4,0,0.6,0,0.9c0,0.3,0,0.5,0,0.7
		c0,0.1,0,0.3,0,0.5c0,0.1,0,0.2-0.1,0.2c-0.6,1.9-2.5,3.3-5.6,4.5c-0.3,0.1-0.6,0.2-0.9,0.3c-2.8,1-5.9,1.5-8,1.9l-0.4,0.1
		c-0.1,0-0.2,0-0.3,0.1c0,0,0,0,0,0c-0.1,0-0.3,0.1-0.4,0.1l-0.1,0c-4.4,0.9-9.1,1.6-13.9,2.1c0,0-0.1,0-0.1,0
		c-3.7,0.4-7.8,0.7-11.8,0.8c-1.1,0-2.2,0.1-3.4,0.1C336.7,212.7,335.3,212.7,333.9,212.7z M286.9,202.5c0.3,1.1,2.1,3.1,9.8,4.9
		c0.9,0.2,1.8,0.4,2.7,0.6c1.7,0.3,3.5,0.6,5.4,0.9c2,0.3,4.1,0.5,6.4,0.7c2.2,0.2,4,0.4,5,0.4l0.5,0c2.6,0.2,5,0.3,7.4,0.4
		c4.8,0.2,9.5,0.3,14.1,0.2c1.1,0,2.2,0,3.3-0.1c4-0.1,8-0.4,11.8-0.8c0,0,0.1,0,0.1,0c4.6-0.5,9.3-1.2,13.6-2.1l0.1,0
		c0.1,0,0.2,0,0.4-0.1c0,0,0.1,0,0.1,0c0,0,0,0,0,0l0,0c0,0,0.2,0,0.2,0l0.4-0.1c2-0.4,5.1-0.9,7.7-1.8c0.3-0.1,0.5-0.2,0.8-0.3
		c2.4-0.9,3.9-2,4.3-3.2c0-0.1,0-0.1,0-0.2c0-0.2,0-0.4,0-0.6c0-0.3,0-0.6-0.1-1l0-7.8c-0.1,0.1-0.3,0.2-0.4,0.3
		c-0.8,0.6-1.9,1.2-3.1,1.8c-0.3,0.1-0.6,0.2-0.9,0.4c-2.7,1.1-5.9,1.7-8.4,2.1c-0.1,0-0.2,0-0.3,0c-0.3,0.1-0.5,0.1-0.8,0.1
		c-0.3,0-0.5,0.1-0.8,0.1c-1.1,0.2-2.2,0.4-3.4,0.6l-0.9,0.1c-0.6,0.1-1.2,0.2-1.8,0.3l-1.3,0.2c-1.9,0.3-3.8,0.5-5.6,0.7
		c-3.9,0.4-7.9,0.7-11.8,0.9l-0.2,0c-1.1,0-2.1,0.1-3.2,0.1c-4.6,0.1-9.4,0.1-14.2-0.2c-4.3-0.2-8.6-0.5-13-1
		c-0.4,0-0.9-0.1-1.3-0.1c-0.2,0-0.5,0-0.7-0.1c-0.3,0-1-0.1-1.9-0.3c-1.2-0.2-4.3-0.7-8-1.5c-2.7-0.6-5-1.3-6.8-1.9
		c-0.9-0.3-1.7-0.6-2.4-0.9c-1-0.1-1.9-0.3-2.9-0.5V202.5z M382.1,202.3L382.1,202.3L382.1,202.3z"/>
</g>
<g>
	<path class="st3" d="M353.2,198.3L353.2,198.3c-3.9,0.5-7.8,0.8-11.7,0.9c-1.1,0-2.2,0.1-3.4,0.1c-1.5,0-3,0.1-4.5,0.1v-0.1
		c1.5,0,3,0,4.5-0.1c1.1,0,2.2-0.1,3.4-0.1C345.4,199,349.3,198.7,353.2,198.3L353.2,198.3z"/>
</g>
<g>
	<path class="st3" d="M360.9,190.7c-0.2,0.1-0.5,0.1-0.7,0.2v-0.2H360.9z"/>
</g>
<g>
	<path class="st3" d="M362.8,197L362.8,197c-0.9,0.2-1.8,0.4-2.7,0.5v-0.1C361,197.3,361.9,197.1,362.8,197z"/>
</g>
<g>
	<path class="st3" d="M353.2,179.9v12.5c-1,0.2-2,0.4-3,0.6c-4,0.7-8,1.2-12.1,1.6c-1.5,0.1-3,0.3-4.5,0.4v-12.5
		c0.6-0.1,1.3-0.1,1.9-0.1c0.3,0,0.6-0.1,1-0.1c0.8-0.1,1.6-0.1,2.4-0.2c0.1,0,0.1,0,0.2,0c1-0.1,2-0.2,3.1-0.3c0.1,0,0.1,0,0.2,0
		c1-0.1,2-0.3,3.1-0.4c0.8-0.1,1.6-0.2,2.5-0.4c0.6-0.1,1.2-0.2,1.8-0.3c0,0,0,0,0.1,0c0.2,0,0.4-0.1,0.6-0.1c0.2,0,0.4-0.1,0.6-0.1
		c0.6-0.1,1.2-0.2,1.8-0.3C352.8,179.9,353,179.9,353.2,179.9L353.2,179.9z"/>
	<path class="st3" d="M333.6,195.9c-0.3,0-0.5-0.1-0.7-0.3c-0.2-0.2-0.3-0.5-0.3-0.7v-12.5c0-0.5,0.4-1,0.9-1l0.6,0
		c0.4,0,0.9-0.1,1.3-0.1l1-0.1c0.8-0.1,1.6-0.1,2.4-0.2c0,0,0.1,0,0.1,0c1.1-0.1,2.1-0.2,3.1-0.3c0,0,0.1,0,0.1,0c0,0,0.1,0,0.1,0
		c1-0.1,2-0.3,3-0.4l0.2,0c0.8-0.1,1.5-0.2,2.3-0.3l1.8-0.3c0,0,0,0,0,0c0,0,0,0,0.1,0l0.6-0.1c0.2,0,0.3-0.1,0.5-0.1
		c0.6-0.1,1.2-0.2,1.8-0.3c0.1,0,0.2,0,0.3-0.1l0.2,0c0.3-0.1,0.6,0,0.8,0.2c0.2,0.2,0.4,0.5,0.4,0.8v12.5c0,0.5-0.3,0.9-0.8,1
		c-1,0.2-2,0.4-3,0.6c-4,0.7-8.1,1.2-12.2,1.6C336.7,195.6,335.2,195.8,333.6,195.9C333.6,195.9,333.6,195.9,333.6,195.9z
		 M334.6,183.3v10.5c1.1-0.1,2.3-0.2,3.4-0.3c4.1-0.4,8.1-0.9,12-1.6c0.7-0.1,1.4-0.3,2.2-0.4v-10.5c-0.4,0.1-0.8,0.2-1.2,0.2
		c-0.2,0-0.4,0.1-0.6,0.1l-0.6,0.1c0,0,0,0,0,0c0,0,0,0,0,0l-1.8,0.3c-0.8,0.1-1.5,0.2-2.3,0.3l-0.2,0c-1,0.1-2,0.3-3,0.4
		c-0.1,0-0.2,0-0.3,0c-1,0.1-2,0.2-3,0.3c0,0-0.1,0-0.1,0c-0.9,0.1-1.7,0.2-2.5,0.2l-0.9,0.1C335.3,183.3,334.9,183.3,334.6,183.3z
		 M341.9,180.6C341.9,180.6,341.9,180.6,341.9,180.6C341.9,180.6,341.9,180.6,341.9,180.6z"/>
</g>
<g>
	<path class="st3" d="M353.3,193.3c-0.2,0-0.5-0.1-0.7-0.2c-0.2-0.2-0.4-0.5-0.4-0.8v-12.5c0-0.5,0.4-0.9,0.8-1c0.1,0,0.2,0,0.2,0
		c0,0,0,0,0,0l0.6-0.1c1.8-0.3,3.9-0.7,5.9-1.3c0.3-0.1,0.6,0,0.9,0.2c0.2,0.2,0.4,0.5,0.4,0.8v12.5c0,0.5-0.3,0.9-0.7,1
		c-1.9,0.5-3.8,0.8-5.2,1.1c-0.5,0.1-1,0.2-1.4,0.3c-0.1,0-0.3,0.1-0.4,0.1C353.5,193.3,353.4,193.3,353.3,193.3z M354.2,180.7v10.4
		c0.2,0,0.4-0.1,0.6-0.1c1.2-0.2,2.7-0.5,4.3-0.9v-10.5C357.5,180.1,355.8,180.4,354.2,180.7L354.2,180.7z"/>
</g>
<g>
	<path class="st6" d="M360.9,190.7c-0.2,0.1-0.5,0.1-0.7,0.2v-0.2H360.9z"/>
	<path class="st3" d="M360.2,191.9c-0.2,0-0.5-0.1-0.6-0.2c-0.2-0.2-0.4-0.5-0.4-0.8v-0.2c0-0.6,0.4-1,1-1h0.7c0.5,0,0.9,0.4,1,0.8
		c0.1,0.5-0.2,1-0.7,1.1c-0.2,0.1-0.5,0.1-0.8,0.2C360.3,191.9,360.3,191.9,360.2,191.9z"/>
</g>
<g>
	<path class="st3" d="M362.8,191.1c-0.2,0-0.4-0.1-0.6-0.2c-0.3-0.2-0.4-0.5-0.4-0.8v-12.6c0-0.4,0.2-0.8,0.6-0.9c0,0,0.1,0,0.1,0
		c0.1-0.1,0.3-0.1,0.4-0.2c0.4-0.2,0.8-0.3,1.1-0.5l0.1-0.1c0.1,0,0.1-0.1,0.2-0.1c0,0,0.1,0,0.1-0.1l0.1,0c0.1,0,0.1-0.1,0.2-0.1
		c0,0,0.1-0.1,0.1-0.1c0,0,0.1,0,0.1-0.1c0.1-0.1,0.2-0.1,0.2-0.1c0.1,0,0.1,0,0.2,0c0.2,0,0.4-0.1,0.6-0.1l2.3-0.4
		c0.3-0.1,0.6,0,0.8,0.2c0.2,0.2,0.4,0.5,0.4,0.8l0,8.3c0,0.4,0,0.7,0,1c0,0.2,0,0.4,0,0.7c0,0,0,0,0,0c0,0,0,0,0,0v0c0,0,0,0,0,0
		c0,0.2,0,0.3,0,0.5c0,0.1,0,0.1,0,0.2c-0.7,2-2.7,3.6-6.3,4.8C363.1,191.1,362.9,191.1,362.8,191.1z M363.8,178.2v10.5
		c2.1-0.9,3.3-1.9,3.7-3c0,0,0-0.1,0-0.1c0,0,0,0,0,0c0-0.2,0-0.4,0-0.5c0-0.3,0-0.6,0-1.1l0-1.9v-5.2l-1.1,0.2
		c-0.2,0-0.3,0.1-0.5,0.1c0,0-0.1,0-0.1,0c-0.1,0.1-0.2,0.1-0.3,0.2l-0.1,0.1l0,0c0,0-0.1,0-0.1,0c-0.1,0-0.2,0.1-0.3,0.1l-0.1,0.1
		C364.6,177.9,364.2,178,363.8,178.2z"/>
</g>
<g>
	<path class="st6" d="M362.8,177.5c0.2-0.1,0.4-0.1,0.5-0.2C363.2,177.4,363,177.4,362.8,177.5C362.8,177.5,362.8,177.5,362.8,177.5
		C362.8,177.5,362.8,177.5,362.8,177.5z"/>
	<path class="st3" d="M362.8,178.5c-0.5,0-0.9-0.3-1-0.8c-0.1-0.5,0.1-0.9,0.5-1.1c0,0,0.1,0,0.1,0c0,0,0.1,0,0.1,0
		c0.1,0,0.1,0,0.2-0.1c0.1,0,0.2-0.1,0.2-0.1c0.5-0.2,1.1,0,1.3,0.5c0.1,0.1,0.1,0.3,0.1,0.4c0,0.4-0.2,0.7-0.6,0.9
		c-0.1,0.1-0.2,0.1-0.3,0.1c0,0-0.1,0-0.1,0.1C363.2,178.5,363,178.5,362.8,178.5c0.2,0,0.4-0.1,0.4-0.1
		C363.1,178.5,362.9,178.5,362.8,178.5z"/>
</g>
<g>
	<path class="st3" d="M320.2,183.9c-0.5,0-1.1,0-1.6,0c0,0,0,0,0,0c-1.2,0-2.4,0-3.6-0.1c-0.5,0-1,0-1.6,0l-0.1,0
		c-0.8,0-1.5,0-2.3-0.1l-0.6,0c-0.4,0-0.8,0-1.2-0.1c0,0-0.1,0-0.2,0c-0.6,0-1.2-0.1-1.8-0.1c-0.7,0-1.4-0.1-2.1-0.1
		c-0.8-0.1-1.6-0.1-2.4-0.2l-0.9-0.1c-0.9-0.1-1.8-0.2-2.7-0.3l-0.5,0c-0.3,0-0.7-0.1-1-0.1l-0.1,0c-0.4,0-0.9-0.1-1.3-0.1
		c-0.1,0-0.3,0-0.4,0c-0.1,0-0.2,0-0.4,0c-0.1,0-0.2,0-0.3,0c-0.1,0-0.3,0-0.4-0.1l-0.6-0.1c-0.1,0-0.2,0-0.2,0l-0.9-0.1
		c0,0,0,0-0.1,0c0,0,0,0,0,0l-0.4-0.1c-0.2,0-0.4-0.1-0.5-0.1l-0.4-0.1c-0.2,0-0.4-0.1-0.6-0.1c-0.1,0-0.3,0-0.4-0.1l-0.2,0
		c-0.1,0-0.2,0-0.3,0c-0.6-0.1-1.2-0.2-1.8-0.4c-0.2,0-0.5-0.1-0.8-0.2l-0.2,0c-0.5-0.1-1-0.2-1.5-0.3c-0.5-0.1-1-0.2-1.5-0.4
		c-0.3-0.1-0.7-0.2-1-0.3l-0.1,0c-1.1-0.3-2.3-0.6-3.4-1c-0.1,0-0.2-0.1-0.4-0.1c0,0-0.1,0-0.1,0l-0.6-0.2c-0.5-0.2-0.9-0.3-1.3-0.5
		c-0.9-0.4-1.7-0.7-2.3-1.1c-0.2-0.1-0.4-0.2-0.7-0.4c-0.1,0-0.2-0.1-0.3-0.2c-0.3-0.2-0.6-0.4-0.9-0.6c-0.2-0.2-0.4-0.3-0.5-0.5
		c-0.2-0.2-0.3-0.3-0.4-0.5c-0.2-0.2-0.3-0.4-0.4-0.6c-0.1-0.1-0.1-0.2-0.2-0.4c-0.1-0.2-0.1-0.3-0.2-0.5c0-0.1,0-0.1,0-0.2
		c0-0.1,0-0.3,0-0.5c0-0.2,0-0.3,0-0.4c0,0,0-0.1,0-0.1l0.1-0.3c0.3-1.2,1.3-2.2,3-3.2c1.4-0.9,3-1.6,4.9-2.2c1.6-0.5,3.4-1,5.5-1.5
		c0.3-0.1,0.6,0,0.8,0.2c0.2,0.2,0.4,0.5,0.4,0.8v3.7c0.9,3.1,10,5.7,24.3,7.1c2.2,0.2,4,0.3,5,0.4l0.5,0c0.9,0.1,1.8,0.1,2.8,0.2
		c1.5,0.1,3.1,0.2,4.6,0.2c3.5,0.2,7,0.2,10.4,0.2c6.8,0,13.3-0.4,19.5-1c0,0,0.1,0,0.1,0c2.5-0.3,4.7-0.6,6.7-0.9
		c0.9-0.1,1.8-0.3,2.7-0.4c0.9-0.2,1.8-0.3,2.7-0.5c0.5-0.1,0.9,0.2,1.1,0.6c0.2,0.4,0,1-0.4,1.2l-0.3,0.2c-0.1,0.1-0.2,0.1-0.3,0.2
		l-0.1,0.1l0,0c0,0-0.1,0-0.1,0c-0.1,0-0.2,0.1-0.3,0.1l-0.1,0.1c-0.4,0.2-0.8,0.4-1.2,0.6c-0.1,0.1-0.3,0.1-0.4,0.2
		c0,0-0.1,0-0.1,0.1l0,0c0,0,0,0,0,0c0,0,0.1,0,0.1,0c0,0,0,0-0.1,0c-0.4,0.2-0.8,0.3-1.2,0.4c-0.3,0.1-0.7,0.2-1,0.3
		c-0.1,0-0.3,0.1-0.5,0.2c-2,0.6-4.2,1-6.1,1.3l-0.7,0.1c0,0-0.1,0-0.1,0l-0.7,0.1c-0.6,0.1-1.2,0.2-1.9,0.3l-1.2,0.2c0,0,0,0,0,0
		s0,0,0,0l-1.8,0.3c-0.8,0.1-1.5,0.2-2.3,0.3l-0.2,0c-1,0.1-2.1,0.3-3.1,0.4c0,0-0.1,0-0.1,0c0,0-0.1,0-0.1,0
		c-1,0.1-2.1,0.2-3.1,0.3c0,0,0,0-0.1,0c0,0-0.1,0-0.1,0c-0.8,0.1-1.6,0.2-2.4,0.2l-0.9,0.1c-0.6,0.1-1.3,0.1-1.9,0.1
		c-0.2,0-0.5,0-0.8,0.1l-0.6,0c-0.3,0-0.6,0-1,0.1l-0.1,0c-0.4,0-0.9,0.1-1.3,0.1l-2.8,0.1c-0.6,0-1.2,0-1.8,0.1
		C323.6,183.9,321.9,183.9,320.2,183.9z M339.2,182.9C339.2,182.9,339.2,182.9,339.2,182.9C339.2,182.9,339.2,182.9,339.2,182.9z
		 M342.4,182.6L342.4,182.6L342.4,182.6z M309.2,181.6c0.4,0,0.8,0,1.2,0.1l0.6,0c0.7,0,1.5,0.1,2.3,0.1l0.1,0c0.5,0,1,0,1.6,0
		c1.2,0,2.4,0.1,3.5,0.1c2.3,0,4.5,0,6.7-0.1c0.6,0,1.1,0,1.7,0l2.9-0.1c0.4,0,0.8,0,1.3-0.1l0.1,0c0.3,0,0.6,0,0.9-0.1l0.5,0
		c0.3,0,0.6,0,0.9-0.1c0.7,0,1.3-0.1,1.9-0.1l0.9-0.1c0.8-0.1,1.6-0.1,2.3-0.2c0.2,0,0.3,0,0.4,0c0.9-0.1,1.9-0.2,2.9-0.3
		c0.1,0,0.2,0,0.3,0c1-0.1,2-0.3,3-0.4l0.2,0c0.8-0.1,1.5-0.2,2.3-0.3l1.8-0.3c0,0,0,0,0,0c0,0,0,0,0,0l1.2-0.2c0.1,0,0.1,0,0.2,0
		c-5.5,0.5-11.3,0.8-17.2,0.8c-3.5,0-7-0.1-10.5-0.2c-1.5-0.1-3.1-0.2-4.6-0.3c-0.9-0.1-1.9-0.1-2.8-0.2l-0.5,0
		c-1-0.1-2.8-0.2-5-0.4c-16.2-1.6-25-4.5-26-8.7c0-0.1,0-0.2,0-0.2v-2.6c-1.5,0.3-2.9,0.7-4.1,1.1c-1.7,0.6-3.2,1.2-4.4,2
		c-1.5,0.9-2,1.6-2.1,2.1l0,0.1c0,0,0,0.1,0,0.1c0,0.1,0,0.2,0,0.2c0,0,0,0,0,0.1c0,0,0,0,0,0l0,0c0,0,0,0.1,0,0.1c0,0,0-0.1,0-0.1
		l-0.9,0.5l0.9-0.4c0,0.1,0,0.1,0.1,0.2c0.1,0.1,0.1,0.2,0.2,0.3c0.1,0.1,0.2,0.2,0.3,0.3c0.1,0.1,0.2,0.2,0.4,0.3
		c0.2,0.2,0.4,0.3,0.7,0.5c0.1,0.1,0.2,0.1,0.2,0.1c0.2,0.1,0.4,0.2,0.6,0.3c0.6,0.3,1.3,0.6,2.1,1c0.4,0.2,0.8,0.3,1.3,0.5l0.5,0.2
		c0.1,0,0.1,0,0.2,0.1c0.1,0,0.2,0.1,0.3,0.1c1.1,0.4,2.2,0.7,3.3,1l0.1,0c0.3,0.1,0.7,0.2,1,0.3c0.5,0.1,1,0.3,1.5,0.4
		c0.5,0.1,1,0.2,1.5,0.3l0.2,0c0.3,0.1,0.5,0.1,0.8,0.2c0.7,0.1,1.3,0.3,1.8,0.4l0.2,0c0.1,0,0.2,0,0.3,0c0.1,0,0.2,0,0.3,0.1
		c0.3,0.1,0.5,0.1,0.6,0.1l0.4,0.1c0.2,0,0.3,0.1,0.5,0.1l0.4,0.1c0,0,0,0,0,0c0,0,0,0,0,0l0.8,0.1c0.1,0,0.2,0,0.3,0.1l0.5,0.1
		c0.1,0,0.2,0,0.2,0c0,0,0.1,0,0.2,0l0.2,0c0.1,0,0.1,0,0.1,0c0.2,0,0.2,0,0.4,0c0.1,0,0.2,0,0.3,0c0.4,0.1,0.9,0.1,1.3,0.1l0.1,0
		c0.3,0,0.7,0.1,1,0.1l0.5,0c0.9,0.1,1.7,0.2,2.6,0.2l0.9,0.1c0.8,0.1,1.6,0.1,2.4,0.2c0.7,0.1,1.4,0.1,2.1,0.1
		c0.6,0,1.3,0.1,1.9,0.1C309.2,181.6,309.2,181.6,309.2,181.6z M279.7,177C279.7,177,279.7,177,279.7,177
		C279.7,177,279.7,177,279.7,177z M273.5,173.3L273.5,173.3L273.5,173.3z"/>
</g>
<g>
	<path class="st3" d="M285.1,156.1c0,0.2-0.1,0.3-0.1,0.5v-1C285.1,155.8,285.1,156,285.1,156.1z"/>
</g>
<g>
	<path class="st0" d="M381.1,156c0-0.1,0-0.2-0.1-0.4c0,0,0.1,0,0.1-0.1V156L381.1,156z"/>
</g>
<g>
	<path class="st0" d="M381.1,156.6V156C381.2,156.2,381.2,156.4,381.1,156.6z"/>
</g>
<g>
	<path class="st3" d="M372.6,150.2v0.4c-0.1-0.1-0.3-0.1-0.4-0.1c-0.1,0-0.2-0.1-0.2-0.1c-0.2-0.1-0.5-0.1-0.8-0.2L372.6,150.2
		L372.6,150.2z"/>
</g>
<g>
	<path class="st0" d="M373.2,150.8c-0.2-0.1-0.4-0.1-0.6-0.2l0,0C372.8,150.7,373,150.8,373.2,150.8z"/>
</g>
<g>
	<path class="st0" d="M381.1,156c0-0.1,0-0.2-0.1-0.4c0,0,0.1,0,0.1-0.1V156L381.1,156z"/>
</g>
<g>
	<path class="st0" d="M381.1,156.6V156C381.2,156.2,381.2,156.4,381.1,156.6z"/>
</g>
<g>
	<path class="st4" d="M285.1,156.1c0,0.2-0.1,0.3-0.1,0.5v-1C285.1,155.8,285.1,156,285.1,156.1z"/>
</g>
<g>
	<path class="st4" d="M381.1,155.5v0.5c0-0.1,0-0.2-0.1-0.4C381.1,155.6,381.1,155.6,381.1,155.5L381.1,155.5z"/>
</g>
<g>
	<path class="st0" d="M285.1,156.1c0,0.2-0.1,0.3-0.1,0.5v-1C285.1,155.8,285.1,156,285.1,156.1z"/>
	<path class="st0" d="M285.1,157.6c-0.6,0-1-0.4-1-1v-1c0-0.5,0.4-1,1-1c0.5,0,1,0.4,1,0.9c0,0.1,0,0.2,0,0.3c0,0.2,0,0.4,0,0.5
		c0,0.1,0,0.2,0,0.2C286.1,157.2,285.6,157.6,285.1,157.6z"/>
</g>
<g>
	<path class="st0" d="M333.6,180.1c-3.6,0-7.2-0.1-10.5-0.2c-1.5-0.1-3.1-0.2-4.6-0.3c-0.5,0-0.9-0.5-0.9-1v-12.4
		c0-0.3,0.1-0.6,0.3-0.7c0.2-0.2,0.5-0.3,0.8-0.2c0.3,0,0.7,0.1,1,0.1c0.4,0,0.7,0,1.1,0.1c0.8,0.1,1.6,0.1,2.4,0.1
		c10.4,0.5,20.5,0.2,30.1-0.9c0.4,0,0.7-0.1,1-0.1c0,0,0.1,0,0.1,0l0.1,0l0,0c0,0,0,0,0.1,0c0.4,0,0.7-0.1,1.1-0.1
		c0.5-0.1,1-0.1,1.5-0.2l0.8-0.1c2.5-0.4,4.9-0.8,7.3-1.2l1.2-0.2c1.9-0.3,4-0.7,6-1.3c1-0.3,1.9-0.6,2.8-0.9
		c1.6-0.6,2.9-1.4,3.9-2.2c0.7-0.6,1.1-1.2,1.2-1.7c0.1-0.5,0.6-0.9,1.1-0.8c0.5,0,0.9,0.5,0.9,1l0,11c0,0.4,0,0.7,0,1
		c0,0.2,0,0.4,0,0.7c0,0.2,0,0.4,0,0.5c0,0.1,0,0.1,0,0.2c-0.7,2-2.8,3.6-6.4,4.9c-0.9,0.3-1.9,0.6-2.9,0.9
		c-1.6,0.4-3.1,0.7-4.2,0.9l-2.2,0.4c-0.2,0-0.4,0.1-0.6,0.1c-0.1,0-0.1,0-0.2,0c-0.9,0.2-1.8,0.3-2.6,0.5c-0.9,0.2-1.8,0.3-2.7,0.4
		c-2.1,0.3-4.3,0.6-6.8,0.9c0,0-0.1,0-0.1,0c0,0-0.1,0-0.1,0C347.1,179.7,340.4,180.1,333.6,180.1z M353.6,179
		C353.6,179,353.6,179,353.6,179C353.6,179,353.6,179,353.6,179z M319.5,177.7c1.2,0.1,2.4,0.1,3.6,0.2c3.3,0.2,6.8,0.2,10.4,0.2
		c6.7,0,13.3-0.4,19.4-1c0.1,0,0.2,0,0.3,0c2.4-0.3,4.6-0.6,6.6-0.9c0.9-0.1,1.8-0.3,2.7-0.4c0.9-0.1,1.8-0.3,2.6-0.5
		c0,0,0.1,0,0.1,0c0.2,0,0.4-0.1,0.6-0.1l2.2-0.4c1-0.2,2.5-0.5,4-0.9c1-0.2,1.9-0.5,2.8-0.8c2.8-1,4.6-2.2,5.1-3.5
		c0-0.1,0-0.1,0-0.2c0-0.2,0-0.3,0-0.5c0-0.3,0-0.6,0-1.1l0-7.9c-1.1,1-2.6,1.8-4.3,2.5c-0.9,0.4-1.9,0.7-3,1
		c-2.1,0.6-4.2,1-6.1,1.3l-1.2,0.2c-2.4,0.4-4.8,0.9-7.4,1.2l-0.8,0.1c-0.5,0.1-1,0.1-1.5,0.2c-0.4,0.1-0.8,0.1-1.3,0.2c0,0,0,0,0,0
		c-0.3,0-0.6,0.1-0.9,0.1c-9.8,1.1-20,1.4-30.5,0.9c-0.8,0-1.6-0.1-2.4-0.1c-0.4,0-0.7,0-1.1-0.1c0,0,0,0,0,0V177.7z M381.2,169.7
		L381.2,169.7L381.2,169.7z"/>
</g>
<g>
	<path class="st0" d="M318.5,166.2v12.4c-0.9-0.1-1.9-0.1-2.8-0.2c-0.8-0.1-2.9-0.2-5.5-0.4c-8.7-0.8-23.9-3-25.2-8v-13.2
		c0,0.1,0,0.2,0,0.3c0,0.1,0,0.1,0,0.2c0,0.1,0,0.1,0.1,0.2s0.1,0.1,0.1,0.2c0.1,0.2,0.2,0.4,0.4,0.6c0,0.1,0.1,0.1,0.1,0.2
		c0.7,0.8,1.8,1.4,3.2,2.1c0.1,0.1,0.3,0.1,0.4,0.2c0.7,0.3,1.4,0.6,2.2,0.8c0.3,0.1,0.6,0.2,1,0.3c0.3,0.1,0.6,0.2,1,0.3
		c0.3,0.1,0.7,0.2,1,0.3c0.2,0.1,0.3,0.1,0.5,0.1c0.2,0.1,0.3,0.1,0.5,0.1c0.3,0.1,0.6,0.2,1,0.3c0,0,0,0,0,0c0.3,0.1,0.7,0.2,1,0.2
		c0.3,0.1,0.6,0.1,0.9,0.2c0.4,0.1,0.8,0.2,1.2,0.3c0.3,0.1,0.6,0.1,0.9,0.2l0.6,0.1c0.3,0.1,0.6,0.1,0.9,0.2c1.6,0.3,3,0.6,4.1,0.7
		c0.2,0,0.4,0.1,0.5,0.1c0.2,0,0.4,0.1,0.5,0.1c0.2,0,0.5,0.1,0.6,0.1c0.1,0,0.2,0,0.3,0c0.2,0,0.5,0.1,0.7,0.1
		c0.4,0.1,0.9,0.1,1.3,0.1c0.9,0.1,1.8,0.2,2.7,0.3c0.4,0,0.9,0.1,1.3,0.1c0.7,0.1,1.5,0.1,2.2,0.2
		C317.2,166.1,317.8,166.1,318.5,166.2L318.5,166.2z"/>
	<path class="st0" d="M318.5,179.6C318.5,179.6,318.5,179.6,318.5,179.6c-1-0.1-1.9-0.1-2.9-0.2l-0.5,0c-1-0.1-2.8-0.2-5-0.4
		c-16.2-1.6-25-4.5-26-8.7c0-0.1,0-0.2,0-0.2v-13.2c0-0.6,0.4-1,1-1s1,0.4,1,1c0,0,0,0.1,0,0.2c0,0.1,0,0.1,0.1,0.2
		c0,0,0.1,0.1,0.1,0.1c0.1,0.1,0.1,0.2,0.2,0.4l-0.4,0.5l0.5-0.4c0.6,0.7,1.6,1.3,3,1.9l0.4,0.2c0.6,0.3,1.3,0.5,2.1,0.8l0.2,0.1
		c0.2,0.1,0.5,0.2,0.7,0.2c0.4,0.1,0.7,0.2,1,0.3c0.3,0.1,0.7,0.2,1,0.3c0.2,0.1,0.3,0.1,0.5,0.1c0.2,0.1,0.3,0.1,0.5,0.1l1,0.3
		c0,0,0,0,0,0l1.9,0.5c0.4,0.1,0.7,0.2,1.1,0.3c0.3,0.1,0.6,0.1,0.9,0.2l0.6,0.1c0.3,0.1,0.6,0.1,0.9,0.2c1.7,0.3,3.1,0.6,4,0.7
		l0.1,0c0.1,0,0.3,0,0.4,0.1c0.2,0,0.4,0.1,0.5,0.1c0.3,0,0.5,0.1,0.7,0.1c0.1,0,0.2,0,0.3,0l0.8,0.1c0.5,0.1,0.9,0.1,1.3,0.1
		c0.9,0.1,1.8,0.2,2.7,0.3l1.3,0.1c0.7,0.1,1.5,0.1,2.2,0.2c0.5,0,1,0.1,1.4,0.1l0.7,0c0.5,0,0.9,0.5,0.9,1v12.4
		c0,0.3-0.1,0.5-0.3,0.7C319,179.5,318.8,179.6,318.5,179.6z M286.1,169.9c0.9,3.1,10,5.7,24.3,7.1c2.2,0.2,4,0.3,5,0.4l0.5,0
		c0.6,0,1.1,0.1,1.7,0.1v-10.4c-0.4,0-0.8-0.1-1.2-0.1c-0.7,0-1.5-0.1-2.2-0.2l-1.3-0.1c-0.9-0.1-1.8-0.2-2.7-0.3
		c-0.4,0-0.8-0.1-1.3-0.1l-0.8-0.1c-0.1,0-0.2,0-0.4,0c-0.1,0-0.4,0-0.6-0.1c-0.2,0-0.4,0-0.6-0.1c-0.1,0-0.2,0-0.4-0.1l-0.1,0
		c-0.9-0.1-2.3-0.4-4.1-0.7c-0.3-0.1-0.6-0.1-0.9-0.2l-0.6-0.1c-0.3-0.1-0.6-0.1-0.9-0.2c-0.4-0.1-0.8-0.2-1.2-0.3l-1.9-0.5
		c0,0,0,0-0.1,0v0l-1-0.3c-0.2,0-0.3-0.1-0.5-0.1c-0.1,0-0.3-0.1-0.5-0.1c-0.3-0.1-0.6-0.2-1-0.3c-0.4-0.1-0.7-0.2-1.1-0.3
		c-0.2-0.1-0.5-0.2-0.8-0.3l-0.2-0.1c-0.8-0.3-1.5-0.6-2.2-0.9l-0.5-0.2c-1-0.5-1.9-1-2.6-1.5V169.9z"/>
</g>
<g>
	<path class="st6" d="M373.2,150.8c-0.2-0.1-0.4-0.1-0.6-0.2c-0.1-0.1-0.3-0.1-0.4-0.1c0.1,0,0.3,0.1,0.4,0.1
		C372.8,150.7,373,150.8,373.2,150.8z"/>
</g>
<g>
	<path class="st6" d="M381.1,156.6V156C381.2,156.2,381.2,156.4,381.1,156.6z"/>
</g>
<g>
	<path class="st0" d="M332.6,167.7c-3.1,0-6.3-0.1-9.5-0.2c-0.8,0-1.6-0.1-2.4-0.1c-0.4,0-0.7,0-1.1-0.1c-0.4,0-0.7,0-1.1-0.1
		l-0.6,0c-0.5,0-0.9-0.1-1.4-0.1c-0.7,0-1.5-0.1-2.2-0.2l-1.3-0.1c-0.9-0.1-1.8-0.2-2.7-0.3c-0.4,0-0.8-0.1-1.3-0.1l-0.8-0.1
		c-0.1,0-0.2,0-0.4,0c-0.1,0-0.4,0-0.6-0.1c-0.2,0-0.4,0-0.6-0.1c-0.1,0-0.2,0-0.4-0.1c-1-0.2-2.4-0.4-4.2-0.7
		c-0.3-0.1-0.6-0.1-0.9-0.2l-0.6-0.1c-0.3-0.1-0.6-0.1-0.9-0.2c-0.4-0.1-0.8-0.2-1.1-0.3l-1.9-0.5c0,0,0,0-0.1,0c0,0,0,0,0,0l-1-0.3
		c-0.2,0-0.3-0.1-0.5-0.1c-0.1,0-0.3-0.1-0.5-0.1c-0.3-0.1-0.7-0.2-1-0.3c-0.3-0.1-0.7-0.2-1-0.3c-0.2-0.1-0.5-0.2-0.8-0.3l-0.2-0.1
		c-0.8-0.3-1.5-0.6-2.2-0.9l-0.5-0.2c-1.6-0.7-2.7-1.5-3.5-2.3c-0.1-0.1-0.1-0.1-0.2-0.2c-0.2-0.2-0.4-0.5-0.6-0.8
		c0-0.1-0.1-0.2-0.1-0.3c0-0.1-0.1-0.2-0.1-0.3c0-0.1-0.1-0.2-0.1-0.3c0-0.2,0-0.3,0-0.4c0-0.3,0-0.6,0.1-0.9c0.3-1.1,1.3-2.2,3-3.2
		c4.6-2.8,10.4-3.8,15.6-4.6l2.3-0.4c0.3,0,0.6,0,0.8,0.2c4,3.3,8.5,6,13.1,7.8c0.2,0.1,0.4,0.2,0.6,0.2l0.3,0.1
		c9,3.4,18.5,3.3,26.8-0.2l1.7-0.9c-0.5,0.1-1.1,0.1-1.6,0.2c-0.6,0.1-1-0.3-1.1-0.9c-0.1-0.5,0.3-1,0.9-1.1c2.5-0.3,5-0.8,7.4-1.6
		c1.1-0.4,2.3-0.8,3.4-1.4l2.5-1.3c0,0,0,0,0.1,0c0.8-0.4,1.5-0.9,2.3-1.4c0.3-0.2,0.8-0.2,0.9-0.1l1.1,0.2c0.2,0,0.5,0.1,0.8,0.1
		l0.3,0.1c0.5,0.1,0.9,0.2,1.4,0.3c0.5,0.1,1,0.2,1.5,0.3l0.9,0.2c0.2,0,0.5,0.1,0.8,0.2c0.6,0.1,1.1,0.3,1.7,0.5l0.7,0.2
		c0,0,0.1,0,0.2,0c0,0,0.1,0,0.1,0c0.2,0,0.3,0.1,0.5,0.2l0.6,0.2c0.5,0.1,0.9,0.3,1.4,0.5l0.4,0.1c0.2,0.1,0.4,0.1,0.5,0.2
		c3.6,1.4,5.7,2.9,6.2,4.7c0,0.1,0.1,0.3,0.1,0.4c0,0.1,0,0.2,0,0.3v0.7c0,0.1,0,0.1,0,0.2c-0.2,1-0.8,1.9-1.8,2.8
		c-1.2,1-2.6,1.9-4.5,2.6c-0.9,0.4-1.9,0.7-3,1c-2.1,0.6-4.2,1-6.1,1.3l-1.2,0.2c-2.4,0.4-4.8,0.9-7.4,1.2l-0.8,0.1
		c-0.5,0.1-1,0.1-1.5,0.2c-0.4,0.1-0.8,0.1-1.3,0.2c0,0,0,0,0,0c-0.3,0-0.6,0.1-0.9,0.1C346.8,167.3,339.8,167.7,332.6,167.7z
		 M296.9,162C296.9,162,296.9,162,296.9,162l1.4,0.3c0.2,0,0.3,0.1,0.5,0.1c0.4,0.1,0.8,0.2,1.1,0.2c0.3,0.1,0.6,0.1,0.9,0.2
		l0.6,0.1c0.3,0.1,0.6,0.1,0.9,0.2c1.7,0.3,3.1,0.6,4,0.7c0.2,0,0.4,0.1,0.5,0.1c0.2,0,0.4,0.1,0.5,0.1c0.3,0,0.5,0.1,0.7,0.1
		c0.1,0,0.2,0,0.3,0l0.7,0.1c0.5,0.1,0.9,0.1,1.3,0.1c0.9,0.1,1.8,0.2,2.7,0.3l1.3,0.1c0.7,0.1,1.5,0.1,2.2,0.2
		c0.5,0,0.9,0.1,1.4,0.1l0.7,0c0.4,0,0.7,0.1,1.1,0.1c0.4,0,0.7,0.1,1.1,0.1c0.8,0.1,1.6,0.1,2.4,0.1c10.3,0.5,20.5,0.2,30.1-0.9
		c0.3,0,0.6-0.1,0.9-0.1v0l0.1,0c0,0,0.1,0,0.1,0c0,0,0,0,0.1,0c0.4,0,0.8-0.1,1.2-0.1c0.5-0.1,1-0.1,1.5-0.2l0.8-0.1
		c2.5-0.4,4.9-0.8,7.3-1.2l1.2-0.2c1.9-0.3,4-0.7,6-1.3c1-0.3,1.9-0.6,2.8-0.9c1.6-0.6,2.9-1.4,3.9-2.2c0.7-0.6,1.1-1.1,1.2-1.6
		v-0.4c0,0,0,0,0-0.1c0,0,0-0.1,0-0.1c-0.2-0.7-1.1-1.9-5-3.4c-0.2-0.1-0.3-0.1-0.5-0.2l-0.4-0.1c-0.4-0.2-0.9-0.3-1.3-0.4l-0.6-0.2
		c-0.2-0.1-0.3-0.1-0.4-0.1c0,0-0.1,0-0.1,0l-0.8-0.2c-0.6-0.2-1.1-0.3-1.7-0.5c-0.2-0.1-0.5-0.1-0.7-0.2l-0.9-0.2
		c-0.4-0.1-0.9-0.2-1.4-0.3c-0.5-0.1-0.9-0.2-1.4-0.3l-0.4-0.1c-0.2,0-0.5-0.1-0.7-0.1l-0.8-0.2c-0.7,0.4-1.3,0.9-2,1.3
		c0,0-0.1,0.1-0.1,0.1l-2.1,1.1c-0.1,0.1-0.2,0.2-0.3,0.2l-10.9,5.7c-8.9,3.7-18.9,3.8-28.4,0.2l-0.3-0.1c-0.2-0.1-0.4-0.2-0.6-0.3
		c-4.7-1.9-9.1-4.5-13.2-7.8l-1.8,0.3c-5,0.8-10.7,1.7-14.9,4.3c-1.5,0.9-2,1.6-2.1,2c0,0.1,0,0.2,0,0.2l-1,0.2l1-0.1l0,0.1
		c0,0.1,0,0.1,0.1,0.2c0,0,0.1,0.1,0.1,0.1c0.1,0.1,0.1,0.2,0.2,0.4l-0.7,0.8l0.7-0.7c0.6,0.7,1.6,1.3,3,1.9l0.4,0.2
		c0.6,0.3,1.3,0.5,2.1,0.8l0.2,0.1c0.2,0.1,0.5,0.2,0.7,0.2c0.4,0.1,0.7,0.2,1,0.3c0.3,0.1,0.6,0.2,1,0.3c0.2,0.1,0.3,0.1,0.5,0.1
		c0.2,0.1,0.3,0.1,0.5,0.1L296.9,162z"/>
</g>
<g>
	<path class="st6" d="M340.8,154.4c-4.4-0.2-8.9-1.2-13.2-2.9c-2.8-1.2-5.5-2.6-8.1-4.2c0,0,0.1,0,0.1,0h0c2.6,1.7,5.3,3.1,8.1,4.2
		C332,153.1,336.5,154.1,340.8,154.4L340.8,154.4z"/>
	<path class="st0" d="M340.8,155.4C340.8,155.4,340.8,155.4,340.8,155.4c-0.7,0-1.4-0.1-2.1-0.2c-3.9-0.4-7.7-1.4-11.4-2.9
		c-2.9-1.2-5.6-2.6-8.3-4.3c-0.4-0.2-0.5-0.7-0.4-1.1c0.1-0.4,0.5-0.7,1-0.7h0.1c0.2,0,0.4,0.1,0.6,0.2c2.5,1.6,5.2,3,7.9,4.2
		c3.5,1.4,7.1,2.3,10.7,2.7c0.7,0.1,1.3,0.1,2,0.1c0.5,0,1,0.5,1,1v0c0,0.3-0.1,0.5-0.3,0.7C341.3,155.3,341.1,155.4,340.8,155.4z"
		/>
</g>
<g>
	<path class="st0" d="M381.1,157.6C381.1,157.6,381.1,157.6,381.1,157.6c-0.6-0.1-1-0.5-1-1V156c0-0.5,0.4-0.9,0.9-1
		c0.5-0.1,1,0.3,1.1,0.8c0.1,0.3,0.1,0.7,0,1C382,157.3,381.6,157.6,381.1,157.6z"/>
</g>
<g>
	<path class="st0" d="M302.3,129.4l-0.1,0.1c-5.8-9.2-9.2-19.8-9.4-30.5v-0.2l0.2-0.1V99C293.1,109.6,296.5,120.3,302.3,129.4
		L302.3,129.4z"/>
</g>
<g>
	<path class="st0" d="M302.1,129.5l-9.2,5.3c-4.3-6.8-7.3-14.5-8.7-22.3c-0.5-2.8-0.7-5.6-0.7-8.4l9.2-5.3V99
		C292.9,109.6,296.3,120.3,302.1,129.5L302.1,129.5z"/>
	<path class="st0" d="M293,135.8c-0.3,0-0.7-0.2-0.8-0.5c-4.4-6.9-7.5-14.8-8.8-22.7c-0.5-2.8-0.7-5.7-0.7-8.6
		c0-0.4,0.2-0.7,0.5-0.9l9.2-5.3c0.3-0.2,0.7-0.2,1,0c0.3,0.2,0.5,0.5,0.5,0.9V99c0.2,10.2,3.4,20.8,9.2,30c0.1,0.2,0.2,0.5,0.1,0.8
		c-0.1,0.3-0.2,0.5-0.5,0.6l-9.2,5.3C293.3,135.7,293.1,135.8,293,135.8z M284.6,104.6c0,2.6,0.3,5.1,0.7,7.7c1.3,7.3,4,14.6,8,21.1
		l7.4-4.3c-5.4-8.8-8.5-18.9-8.9-28.7L284.6,104.6z"/>
</g>
<g>
	<path class="st0" d="M283.5,105c-0.2,0-0.3,0-0.5-0.1c-0.3-0.2-0.5-0.5-0.5-0.9c-0.1-14.5,5.8-27.4,15.7-34.4c0,0,0.1,0,0.1-0.1
		l5.7-3.2c0,0,0.1,0,0.1,0l3.4-1.9c0.5-0.3,1-0.1,1.3,0.3c0.3,0.4,0.2,1-0.3,1.4c-0.5,0.3-0.9,0.7-1.4,1c-8.6,7-13.7,18.8-13.5,31.6
		c0,0.4-0.2,0.7-0.5,0.9l-9.2,5.3C283.9,105,283.7,105,283.5,105z M299.4,71.3c-9,6.4-14.4,17.9-14.8,31l7.2-4.1
		c0-10.6,3.5-20.6,9.6-27.9L299.4,71.3z"/>
</g>
<g>
	<path class="st0" d="M333.2,160.6c-4.7,0-9.5-0.9-14.1-2.6l-0.3-0.1c-0.2-0.1-0.4-0.2-0.7-0.3c-4.8-1.9-9.4-4.7-13.6-8.1
		c-2.4-1.9-4.6-4.1-6.6-6.4c-2.1-2.4-4.1-5-5.8-7.7c-0.1-0.2-0.2-0.5-0.1-0.8c0.1-0.3,0.2-0.5,0.5-0.6l9.2-5.3
		c0.5-0.3,1.1-0.1,1.3,0.3c3,4.7,6.6,8.9,10.6,12.5c0.1,0,0.3,0.1,0.4,0.2c1.6,1.4,3.4,2.8,5.1,4c0.3,0.2,0.7,0.5,1,0.7
		c0,0,0.1,0,0.1,0.1c2.5,1.6,5.2,3,7.9,4.2c4.1,1.7,8.4,2.6,12.7,2.9c0.1,0,0.2,0,0.3,0c0.2,0,0.4,0,0.6,0l0.3,0c0.7,0,1.5,0,2.2,0
		c0.4,0,0.8,0,1.3-0.1c0.4,0,0.7-0.1,1.1-0.1c2.6-0.3,5.1-0.8,7.5-1.6c1.1-0.4,2.3-0.8,3.4-1.4c0.5-0.2,1.1,0,1.3,0.5
		c0.2,0.5,0,1.1-0.4,1.3l-10.9,5.7C342.9,159.6,338.1,160.6,333.2,160.6z M294.4,135.1c1.5,2.3,3.2,4.5,5,6.6c2,2.2,4.1,4.3,6.4,6.2
		c4,3.3,8.5,6,13.1,7.8c0.2,0.1,0.4,0.2,0.6,0.2l0.3,0.1c9,3.4,18.5,3.3,26.8-0.2l1.7-0.9c-0.5,0.1-1.1,0.1-1.6,0.2
		c-0.4,0-0.7,0.1-1.1,0.1c-0.5,0-0.9,0.1-1.4,0.1c-0.8,0-1.5,0-2.3,0l-0.3,0c-0.3,0-0.6,0-0.9,0c-4.5-0.2-9-1.3-13.3-3
		c-2.9-1.2-5.6-2.6-8.2-4.3c0,0,0,0-0.1,0c-0.4-0.2-0.8-0.5-1.2-0.8c-1.7-1.2-3.4-2.5-5.1-3.9c-0.1,0-0.3-0.1-0.4-0.2
		c-4-3.5-7.7-7.7-10.7-12.3L294.4,135.1z"/>
</g>
<g>
	<path class="st6" d="M313.3,142.4h-0.1c-4.3-3.7-8-8.1-11-12.9c-5.8-9.2-9.2-19.8-9.4-30.5v-0.2c-0.1-12.4,4.7-24.8,13.9-32.4
		c0.5-0.4,0.9-0.7,1.4-1.1c0,0,0,0,0,0l0.8-0.4c-0.7,0.5-1.4,1-2.1,1.6c-9.2,7.5-14,19.9-13.9,32.3V99c0.2,10.6,3.5,21.3,9.3,30.4
		C305.3,134.2,309.1,138.7,313.3,142.4L313.3,142.4z"/>
	<path class="st0" d="M313.3,143.4h-0.2c-0.2,0-0.5-0.1-0.7-0.2c-4.3-3.7-8.1-8.1-11.2-13.1c-6-9.4-9.4-20.5-9.5-31v-0.3
		c-0.2-13.3,5.2-25.7,14.3-33.1c0.5-0.4,1-0.8,1.5-1.1c0,0,0.1,0,0.1-0.1c0,0,0,0,0,0l0.8-0.4c0.5-0.3,1.1-0.1,1.3,0.3
		c0.3,0.5,0.2,1.1-0.3,1.4c-0.7,0.5-1.4,1-2,1.5c-8.6,7-13.7,18.8-13.5,31.5V99c0.2,10.2,3.4,20.8,9.2,29.9c3,4.8,6.7,9.1,10.9,12.8
		c0.3,0.3,0.4,0.7,0.3,1.1S313.7,143.4,313.3,143.4z"/>
</g>
<g>
	<path class="st3" d="M342.8,155.4c-0.3,0-0.6,0-0.8,0l-0.8,0c-0.1,0-0.2,0-0.4,0c-4.5-0.2-9-1.3-13.3-3c-2.9-1.2-5.6-2.6-8.2-4.3
		c0,0,0,0-0.1,0c-0.4-0.2-0.8-0.5-1.2-0.8c-1.8-1.2-3.6-2.6-5.3-4.1c-4.3-3.8-8.1-8.2-11.3-13.2c-6-9.4-9.3-20.4-9.5-30.9v-0.3
		c-0.1-13.3,5.2-25.7,14.3-33.1c0.3-0.3,0.7-0.6,1.1-0.8c0.1-0.1,0.1-0.2,0.2-0.3c0.2-0.2,0.5-0.3,0.7-0.5l4.9-2.8
		c0.1,0,0.1-0.1,0.2-0.1c2.2-1,4.5-1.7,6.8-2.2c19.9-4.2,38.8,9,48.6,23.9c3.9,6,6.9,12.7,8.6,19.6c1.3,5.5,1.9,10.9,1.6,16.1
		c0,0,0,0.1,0,0.1l-1,7.3c-1,4.6-2.7,8.9-5,12.7c-2.5,4.2-5.7,7.7-9.6,10.4c-0.8,0.5-1.5,1-2.3,1.5c0,0-0.1,0.1-0.1,0.1l-2.6,1.3
		c-1.2,0.6-2.4,1.1-3.6,1.5c-2.5,0.8-5.1,1.4-7.8,1.7c-0.4,0-0.7,0.1-1.1,0.1c-0.5,0-0.9,0.1-1.4,0.1
		C343.8,155.4,343.3,155.4,342.8,155.4z M341.1,153.4l0.8,0c0.7,0,1.4,0,2.2,0c0.4,0,0.8,0,1.3-0.1c0.4,0,0.7-0.1,1.1-0.1
		c2.5-0.3,5-0.8,7.4-1.6c1.1-0.4,2.3-0.8,3.4-1.4l2.5-1.3c0,0,0,0,0.1,0c0.8-0.4,1.5-0.9,2.3-1.4c3.7-2.6,6.7-5.9,9.1-9.8
		c2.2-3.6,3.8-7.7,4.7-12l1-7.2c0.3-5-0.3-10.3-1.5-15.5c-1.6-6.7-4.5-13.2-8.3-19c-9.5-14.4-27.6-27.1-46.5-23.1
		c-2.3,0.5-4.5,1.2-6.5,2.1c0,0,0,0,0,0l-4.2,2.4c-0.1,0.1-0.1,0.2-0.2,0.2c-0.7,0.5-1.4,1-2,1.5c-8.6,7-13.7,18.8-13.5,31.5V99
		c0.2,10.2,3.4,20.8,9.2,29.9c3,4.8,6.7,9.1,10.9,12.8c1.6,1.4,3.4,2.8,5.1,4c0.3,0.2,0.7,0.5,1,0.7c0,0,0.1,0,0.1,0.1
		c2.5,1.6,5.2,3,7.9,4.2c4.1,1.7,8.4,2.6,12.7,2.9C341,153.4,341.1,153.4,341.1,153.4z M377.8,118.6L377.8,118.6L377.8,118.6z"/>
</g>
<g>
	<path class="st3" d="M342.9,97c0,1.2-0.3,2.2-0.9,3.3c-0.3,0.5-0.3,0.6,0.3,0.7c1.5,0.1,2.8,0.6,3.9,1.7c0.7,0.7,1.3,1.5,1.7,2.4
		c0.8,1.7,1.2,3.6,1.3,5.5c0.1,2.5-0.9,4.7-2.8,6.3c-1.2,1-2.5,1.7-3.9,2.3c-0.1,0.1-0.3,0.1-0.5,0.2c-0.4,0.1-0.4,0.4-0.3,0.7
		c0.6,1.8,1.1,3.6,1.7,5.4c0.1,0.4,0,0.6-0.3,0.7c-0.8,0.2-1.6,0.5-2.4,0.8c-0.4,0.1-0.6,0-0.7-0.4c-0.5-1.7-1.1-3.4-1.6-5.2
		c-0.2-0.6-0.3-0.6-0.8-0.4c-0.5,0.1-0.9,0.3-1.3,0.4c-0.4,0.1-0.5,0.3-0.4,0.7c0.5,1.4,0.9,2.9,1.4,4.3c0.1,0.4,0.2,0.8,0.3,1.1
		c0.1,0.3,0,0.4-0.3,0.5c-0.9,0.3-1.7,0.6-2.6,0.8c-0.4,0.1-0.5-0.1-0.6-0.4c-0.5-1.5-0.9-3-1.4-4.5c-0.1-0.2-0.1-0.5-0.2-0.7
		c-0.2-0.7-0.3-0.7-1-0.5c-1.7,0.5-3.4,1.1-5.1,1.6c-0.5,0.2-0.6,0.1-0.7-0.4c-0.3-1.2-0.6-2.5-0.9-3.8c-0.2-0.7-0.1-0.7,0.5-0.9
		c0.5-0.2,1.1-0.3,1.6-0.5c0.9-0.3,1.2-0.9,0.9-1.8c-0.3-1.1-0.6-2.1-1-3.1c-1.5-4.8-3-9.6-4.5-14.4c-0.1-0.5-0.3-0.9-0.8-1.3
		c-0.5-0.4-1-0.6-1.5-0.4c-0.8,0.2-1.5,0.4-2.2,0.7c-0.4,0.1-0.6,0-0.7-0.3c-0.3-1.1-0.7-2.2-1-3.3c-0.1-0.4,0-0.6,0.4-0.8
		c1.8-0.6,3.6-1.1,5.5-1.7c0.6-0.2,0.6-0.2,0.5-0.9c-0.5-1.6-1-3.2-1.5-4.8c-0.2-0.7-0.1-0.7,0.5-0.9c0.8-0.2,1.5-0.5,2.3-0.7
		c0.3-0.1,0.5,0,0.6,0.3c0.5,1.6,1,3.3,1.5,4.9c0.2,0.6,0.3,0.7,0.9,0.5c0.4-0.1,0.9-0.3,1.3-0.4c0.4-0.1,0.5-0.3,0.4-0.7
		c-0.3-1-0.6-2-1-3.1c-0.2-0.6-0.4-1.3-0.6-1.9c-0.1-0.4,0-0.6,0.4-0.7c0.8-0.2,1.6-0.5,2.4-0.7c0.4-0.2,0.6,0,0.8,0.4
		c0.5,1.6,1,3.1,1.4,4.6c0,0.1,0,0.2,0.1,0.3c0.2,0.6,0.3,0.7,1,0.6c1-0.2,1.9-0.2,2.9-0.2c3,0.1,5.1,1.5,6.4,4.2
		C342.6,94.1,343,95.5,342.9,97L342.9,97z M337.5,106.1c-1.9,0-3.7,0.6-5.4,1.2c-0.7,0.2-0.8,0.3-0.5,1.1c0.7,2.3,1.5,4.6,2.2,6.9
		c0.3,1.1,0.3,1.1,1.3,0.8c1.9-0.6,3.8-1.2,5.4-2.5c1.7-1.4,2.1-3.9,0.7-5.7C340.3,106.5,339,106.1,337.5,106.1L337.5,106.1z
		 M336.6,98.2c-0.1-2.2-1.7-4.2-4.5-3.9c-1.3,0.1-2.5,0.5-3.8,0.9c-0.7,0.2-0.7,0.3-0.5,1c0.4,1.1,0.7,2.3,1.1,3.4
		c0.3,1.1,0.7,2.1,1,3.2c0.1,0.2,0.1,0.6,0.5,0.4c1.6-0.4,3.1-0.9,4.5-1.9C335.9,100.6,336.6,99.6,336.6,98.2L336.6,98.2z"/>
</g>
<g>
	<g>
		<g>
			<polyline class="st6" points="377.6,125.7 379.6,130.8 388,152.4 390.6,158.9 390.6,159 401.5,187.1 412.5,215.2 423.4,243.3 
				433.2,268.5 434.4,271.4 444.9,298.4 			"/>
			<path class="st3" d="M444.8,299.4c-0.4,0-0.8-0.2-0.9-0.6l-54.2-139.4c0,0,0-0.1,0-0.1l-13-33.2c-0.2-0.5,0.1-1.1,0.6-1.3
				c0.5-0.2,1.1,0.1,1.3,0.6l13,33.3c0,0,0,0.1,0,0.1L445.8,298c0.2,0.5-0.1,1.1-0.6,1.3C445.1,299.3,445,299.4,444.8,299.4z"/>
		</g>
		<g>
			<path class="st6" d="M363.2,88.7l5.5,14.1l6.6,17.1h0"/>
			<path class="st3" d="M375.3,120.8c-0.4,0-0.8-0.3-0.9-0.6L362.3,89c-0.2-0.5,0.1-1.1,0.6-1.3c0.5-0.2,1.1,0.1,1.3,0.6l12.1,31
				c0.1,0.1,0.1,0.3,0.1,0.4C376.3,120.3,375.9,120.8,375.3,120.8z"/>
		</g>
		<g>
			<path class="st3" d="M435.4,136.2c-0.4,0-0.8-0.2-0.9-0.6l-14.2-36.5c-0.2-0.5,0.1-1.1,0.6-1.3c0.5-0.2,1.1,0.1,1.3,0.6l1,2.5
				l13.2,34c0.2,0.5-0.1,1.1-0.6,1.3C435.6,136.2,435.5,136.2,435.4,136.2z"/>
		</g>
		<g>
			<path class="st3" d="M470.6,226.7c-0.4,0-0.7-0.2-0.9-0.6l0,0l-25.8-66.2c-0.2-0.5,0.1-1.1,0.6-1.3c0.5-0.2,1.1,0.1,1.3,0.6
				l25.8,66.1c0.2,0.5,0,1.1-0.5,1.3C470.9,226.7,470.8,226.7,470.6,226.7z"/>
		</g>
		<g>
			<path class="st3" d="M482.3,256.6c-0.5,0-0.8-0.3-1-0.7l-3.2-8.1c-0.2-0.5,0.1-1.1,0.6-1.3c0.5-0.2,1.1,0.1,1.3,0.6l3.2,8.2
				c0,0.1,0.1,0.2,0.1,0.4C483.3,256.2,482.9,256.6,482.3,256.6z"/>
		</g>
		<g>
			<polyline class="st6" points="487.9,270.1 488.4,271.4 488.4,271.4 499,298.3 			"/>
			<path class="st3" d="M499,299.3c-0.4,0-0.8-0.2-0.9-0.6l-10.6-26.9c0,0,0-0.1,0-0.1l-0.5-1.2c-0.2-0.5,0.1-1.1,0.6-1.3
				c0.5-0.2,1.1,0.1,1.3,0.6l0.5,1.3c0,0,0,0,0,0.1l10.6,26.8c0.2,0.5,0,1.1-0.6,1.3C499.2,299.3,499.1,299.3,499,299.3z"/>
		</g>
		<g>
			<g>
				<path class="st3" d="M479.2,272.4h-44.8c-0.6,0-1-0.4-1-1s0.4-1,1-1h44.8c0.6,0,1,0.4,1,1S479.7,272.4,479.2,272.4z"/>
			</g>
			<g>
				<path class="st3" d="M488.4,272.4h-9.3c-0.6,0-1-0.4-1-1s0.4-1,1-1h9.3c0.6,0,1,0.4,1,1S489,272.4,488.4,272.4z"/>
			</g>
			<g>
				<path class="st3" d="M474.4,244.3h-50.9c-0.6,0-1-0.4-1-1s0.4-1,1-1h50.9c0.6,0,1,0.4,1,1S474.9,244.3,474.4,244.3z"/>
			</g>
			<g>
				<path class="st3" d="M466.5,216.2h-54.1c-0.6,0-1-0.4-1-1s0.4-1,1-1h54.1c0.6,0,1,0.4,1,1S467.1,216.2,466.5,216.2z"/>
			</g>
			<g>
				<path class="st3" d="M460.4,216.2H440c-0.6,0-1-0.4-1-1s0.4-1,1-1h20.4c0.6,0,1,0.4,1,1S461,216.2,460.4,216.2z"/>
			</g>
			<g>
				<path class="st3" d="M417.1,188.1h-15.5c-0.6,0-1-0.4-1-1s0.4-1,1-1H417c0.6,0,1,0.4,1,1S417.6,188.1,417.1,188.1z"/>
			</g>
			<g>
				<path class="st3" d="M454.5,188.1h-17c-0.6,0-1-0.4-1-1s0.4-1,1-1h17c0.6,0,1,0.4,1,1S455,188.1,454.5,188.1z"/>
			</g>
			<g>
				<path class="st3" d="M402.2,160h-11.6c-0.6,0-1-0.4-1-1s0.4-1,1-1h11.6c0.6,0,1,0.4,1,1S402.7,160,402.2,160z"/>
			</g>
			<g>
				<path class="st3" d="M433.5,131.8h-53.9c-0.6,0-1-0.4-1-1s0.4-1,1-1h53.9c0.6,0,1,0.4,1,1S434.1,131.8,433.5,131.8z"/>
			</g>
			<g>
				<path class="st3" d="M416.8,103.7h-5c-0.6,0-1-0.4-1-1s0.4-1,1-1h5c0.6,0,1,0.4,1,1S417.3,103.7,416.8,103.7z"/>
			</g>
			<g>
				<path class="st3" d="M422,103.7h-53.3c-0.6,0-1-0.4-1-1s0.4-1,1-1H422c0.6,0,1,0.4,1,1S422.6,103.7,422,103.7z"/>
			</g>
		</g>
	</g>
	<g>
		<path class="st1" d="M475.3,248.9c-0.5,0-0.9-0.3-1-0.8c-0.3-1.5-0.6-3-1-4.5l-2.1-10c-1.3-6-2.6-12.1-3.8-18.1l-1.9-9
			c-1.4-6.4-2.7-12.8-4.1-19.1c-0.2-0.8-0.3-1.6-0.5-2.3c-0.2-1-0.4-2-0.6-3l-0.2-0.8c0,0,0,0,0-0.1l0,0c-1.7-8.1-3.5-16.3-5.2-24.4
			c-0.9,0.4-1.8,0.7-2.8,1.1c0,0-0.1,0-0.1,0c-1.8,0.7-3.6,1.4-5.4,2.1c0,0-0.1,0-0.1,0l-6.8,2.7c-3.9,1.6-7.9,3.1-11.8,4.7
			c0.4,0.7,0.8,1.3,1.2,2c3.8,6.4,6.3,11.4,9.2,17.4l0.5,1.1c1.7,3.4,3.4,7,5.6,11.1c0.1,0.3,0.2,0.6,0,0.9s-0.3,0.5-0.6,0.6l-0.2,0
			c-1,0.3-1.9,0.6-2.7,0.9c-2.1,0.7-4.1,1.3-6.2,2.1l-0.9,0.3c-0.9,0.3-1.8,0.6-2.7,0.9l-0.1,0c0,0-0.1,0-0.1,0l-2,0.6
			c-0.4,0.1-0.9,0-1.1-0.4c-2.5-3.8-5.1-7.6-7.8-11.5l-3.7-5.5c0,0,0,0,0-0.1c-1.7-2.5-3.4-5-5.1-7.6c-3-4.5-6-8.9-8.9-13.2
			c-0.1-0.1-0.1-0.2-0.1-0.2c-1.5-2.4-1.9-5.4-0.9-8.1c0.7-1.9,2-3.5,3.7-4.6c15.3-9.8,26.6-17.2,29.4-19.3c0.6-0.4,1.5-1.2,2-2.3
			c0.2-0.5,0.4-1.1,0.5-1.7c0-0.3,0.1-0.7,0-1.1c0-0.5,0.3-0.9,0.8-1c0.1,0,0.2,0,0.3,0c0,0,0.1,0,0.1,0l0.4-0.1c0.1,0,0.2,0,0.3,0
			l0.7-0.1l32.8-1c0.4,0,0.8,0.2,1,0.6c0,0,0,0.1,0,0.1c0,0,0,0.1,0,0.1l0,0c0,0.1,0.1,0.2,0.1,0.2l0,0.1l0.8,1.6
			c1,2.2,2.2,4.7,3.1,6.4c1.4,3.2,2.5,6.6,3.4,10.1c1.5,5.9,1.8,10.5,1.9,12c0.4,5.5,2.4,21.8,6.1,49.8c1.7,12.6,3.3,24.7,5,37
			c0.1,0.4,0,0.8-0.2,1l0,0c-0.2,0.2-0.5,0.3-0.8,0.3l-3.4,0.4c-0.8,0.1-1.7,0.2-2.5,0.3l-1.9,0.2c-1.3,0.1-2.6,0.3-3.8,0.4
			c-1,0.1-2,0.2-2.9,0.3l-2.7,0.3C475.4,248.9,475.4,248.9,475.3,248.9z M462.1,180.7l0.2,0.8c0.2,1,0.4,2,0.6,3
			c0.2,0.8,0.3,1.5,0.5,2.3c1.3,6.4,2.7,12.7,4.1,19.1l1.9,9c1.3,6,2.6,12.1,3.8,18.1l2.1,10c0.2,1.2,0.5,2.4,0.8,3.7l1.8-0.2
			c1-0.1,2-0.2,2.9-0.3c1.3-0.1,2.5-0.3,3.8-0.4l1.9-0.2c0.8-0.1,1.7-0.2,2.5-0.3l2.6-0.3c-1.6-12.1-3.2-23.9-4.9-36.2
			c-3.7-28.1-5.7-44.4-6.1-49.8c0,0,0-0.1,0-0.1c-0.1-1.5-0.4-5.9-1.8-11.7c-0.8-3.3-2-6.7-3.3-9.8c-0.8-1.6-2-4.2-3-6.4l-0.8-1.7
			l-32,1l-0.7,0.1c0,0-0.1,0-0.1,0c0,0.2,0,0.4,0,0.5c-0.1,0.9-0.3,1.6-0.7,2.3c-0.7,1.5-1.8,2.5-2.6,3.1
			c-2.8,2.1-14.1,9.5-29.5,19.3c-1.4,0.9-2.4,2.1-2.9,3.6c-0.8,2.2-0.5,4.5,0.7,6.4c0,0,0,0.1,0.1,0.1c2.9,4.3,5.9,8.7,8.9,13.2
			c1.7,2.5,3.4,5,5.1,7.5c0,0,0,0,0,0.1l3.8,5.6c2.5,3.7,5,7.3,7.3,10.9l1.3-0.4c0,0,0,0,0.1,0l0,0c1-0.3,1.9-0.6,2.8-0.9l0.9-0.3
			c2.2-0.7,4.1-1.4,6.3-2.1c0.6-0.2,1.2-0.4,1.8-0.6c-1.9-3.7-3.5-7-5-10.1l-0.5-1.1c-2.9-5.9-5.3-10.9-9.1-17.2c-0.6-1-1.2-2-1.8-3
			c-0.2-0.3-0.2-0.6-0.1-0.8c0.1-0.3,0.3-0.5,0.6-0.6c4.3-1.7,8.6-3.4,13-5.1l6.9-2.7c0,0,0.1,0,0.1,0c1.8-0.7,3.5-1.4,5.3-2.1
			c0,0,0.1,0,0.1,0c1.1-0.4,2.3-0.9,3.4-1.3l0.5-0.2c0.3-0.1,0.6-0.1,0.8,0c0.3,0.1,0.4,0.4,0.5,0.7
			C458.5,163.6,460.3,172.1,462.1,180.7C462.1,180.7,462.1,180.7,462.1,180.7L462.1,180.7z"/>
	</g>
	<g>
		<path class="st1" d="M472.4,129.3c0,0-0.1,0-0.1,0c-0.3,0-0.6-0.2-0.8-0.6l-0.6-1.3c-0.3-0.7-0.7-1.4-1-2.2c0,0,0-0.1-0.1-0.1
			c-2.4-5-4.7-9.9-7.1-14.8c-0.1-0.1-0.1-0.2-0.1-0.3c-0.1-0.4,0.1-0.9,0.5-1.1l6.9-3.6c0.2-0.1,0.5-0.2,0.8-0.1
			c0.3,0.1,0.5,0.3,0.6,0.5c1.7,3.9,3,7.9,3.8,12.1c0.5,2.7,0.6,4.8,0.1,6.7c-0.2,0.9-0.5,1.6-0.8,2.3c-0.3,0.7-0.8,1.5-1.3,2.2
			C473,129.2,472.7,129.3,472.4,129.3z M471.6,124.5c0.3,0.6,0.6,1.2,0.9,1.8c0.1-0.1,0.1-0.3,0.2-0.4c0.3-0.6,0.5-1.2,0.6-1.9
			c0.4-1.7,0.3-3.5-0.1-5.9c-0.7-3.7-1.8-7.2-3.3-10.7l-5.1,2.7c2.3,4.7,4.5,9.5,6.8,14.2C471.6,124.4,471.6,124.4,471.6,124.5z"/>
	</g>
	<g>
		<path class="st0" d="M400,103.2c0.1,0.1,0.2,0.1,0.3,0.2l0,0c2.8,2,5.6,4,8.3,6.1l0,0c0.1,0.1,0.1,0.1,0.2,0.1
			c3.6-2.3,7.3-4.6,10.9-6.8l0,0c1.3-0.8,2.6-1.6,3.9-2.4c0.4,0.8,0.8,1.6,1.2,2.4c4.3,8.8,8.7,17.7,13,26.6c0,0.1,0.1,0.2,0.1,0.3
			c0,0,0,0,0.1,0c0.6-0.1,32.8-4.8,32.8-4.8l-6.2-15.2l6-3.5c-4-8.8-9-13.7-9-13.7c-8-7.8-16.9-10.7-21.5-11.8
			c-0.5,0-1.1,0.1-1.6,0.1c-3.7,0.2-7.5,0.4-11.2,0.6c-0.1,0-0.1,0.1-0.2,0.1l0,0c-6.4,2.9-14.7,7.7-22.1,15.8
			c-1.7,1.9-3.2,3.7-4.5,5.5C400.2,102.9,400.1,103,400,103.2L400,103.2z"/>
		<path class="st1" d="M437.9,130.6c-0.4,0-0.8-0.2-1-0.6l-0.1-0.3c-4.3-8.9-8.7-17.7-13-26.6c-0.2-0.4-0.4-0.8-0.6-1.2
			c0-0.1-0.1-0.1-0.1-0.2c-0.5,0.3-1,0.6-1.4,0.9l-12.4,7.7c-0.3,0.2-0.8,0.2-1.1,0l-8.7-6.3c0,0-0.1,0-0.1-0.1
			c-0.2-0.1-0.3-0.2-0.4-0.4c-0.2-0.3-0.1-0.7,0.1-1l0.1-0.2c0.1-0.1,0.1-0.2,0.2-0.3c1.3-1.8,2.8-3.7,4.5-5.6
			c6.1-6.7,13.6-12.1,22.4-16.1l0.5,0.9l-0.4-0.9c0.1,0,0.1-0.1,0.2-0.1c0.1,0,0.2-0.1,0.3-0.1c3.7-0.2,7.5-0.4,11.2-0.6l1.7-0.1
			c0.1,0,0.2,0,0.3,0c8.5,2.1,16.1,6.2,22,12c0.2,0.2,5.2,5.1,9.2,14c0.2,0.5,0,1-0.4,1.3l-5.2,3.1l5.9,14.4
			c0.1,0.3,0.1,0.6-0.1,0.9c-0.2,0.3-0.4,0.5-0.7,0.5c-1.3,0.2-32.2,4.7-32.8,4.8C438,130.6,438,130.6,437.9,130.6z M423.5,99.3
			c0.1,0,0.2,0,0.3,0c0.3,0.1,0.5,0.3,0.6,0.5c0.2,0.4,0.4,0.8,0.6,1.2c0.2,0.4,0.4,0.8,0.6,1.2c4.3,8.7,8.6,17.5,12.8,26.2
			c3.8-0.6,25.3-3.7,30.8-4.5l-5.8-14c-0.2-0.5,0-1,0.4-1.2l5.2-3.1c-3.8-8-8.3-12.6-8.4-12.6c-7.1-7-15.3-10.1-20.9-11.5l-1.5,0.1
			c-3.7,0.2-7.4,0.4-11,0.6c0,0-0.1,0-0.1,0c-8.5,3.8-15.8,9-21.7,15.5c-1.5,1.7-2.9,3.4-4.1,5.1l7.5,5.4l11.8-7.4
			c0.8-0.5,1.6-1,2.4-1.5C423.2,99.4,423.3,99.3,423.5,99.3z"/>
	</g>
	<g>
		<path class="st6" d="M457.6,97.9c2.7,4.5,4.5,7.6,6.8,11.5"/>
		<path class="st1" d="M464.4,110.4c-0.3,0-0.7-0.2-0.9-0.5l-2.9-4.9c-1.2-2-2.4-4.1-3.9-6.6c-0.3-0.5-0.1-1.1,0.3-1.4
			c0.5-0.3,1.1-0.1,1.4,0.3c1.5,2.5,2.7,4.6,3.9,6.6l2.9,4.9c0.3,0.5,0.1,1.1-0.3,1.4C464.7,110.3,464.5,110.4,464.4,110.4z"/>
	</g>
	<g>
		<path class="st1" d="M455.7,156.3c-0.4,0-0.8-0.2-0.9-0.6c-0.2-0.5,0-1.1,0.5-1.3c0.1,0,0.2-0.1,0.2-0.1l0.1-0.1
			c4.3-1.7,7.2-5.4,7.7-9.7c0.1-0.5,0.5-1,1.1-0.9c0.5,0.1,0.9,0.6,0.9,1.1c-0.5,5.1-4,9.4-8.9,11.4c-0.1,0-0.1,0.1-0.2,0.1
			l-0.1,0.1C456,156.3,455.8,156.3,455.7,156.3z"/>
	</g>
	<g>
		<path class="st1" d="M439.7,129.3l33-0.4c-0.2-0.5,0,0-0.3-0.6c-0.6-1.2-1.1-2.3-1.7-3.5c-7.5,1.1-16,2.3-23.8,3.5
			c-0.1,0-0.2,0-0.4,0.1c-1.3,0.2-2.5,0.4-3.7,0.5c-0.6,0.1-1.3,0.2-1.9,0.3C440.5,129.2,440.1,129.2,439.7,129.3L439.7,129.3z"/>
		<path class="st1" d="M439.7,130.3L439.7,130.3c-0.5,0-1-0.4-1-0.9c0-0.5,0.3-1,0.9-1.1l1.3-0.2c0.6-0.1,1.2-0.2,1.8-0.3
			c0.8-0.1,1.5-0.2,2.2-0.3l25.8-3.7c0.4-0.1,0.9,0.2,1,0.6c0.3,0.7,0.7,1.4,1,2.2l0.8,1.6l0,0c0.1,0.1,0.1,0.2,0.2,0.3
			c0.1,0.3,0.1,0.7-0.1,1c-0.2,0.3-0.5,0.5-0.8,0.5L439.7,130.3C439.7,130.3,439.7,130.3,439.7,130.3z M470.1,125.9l-15.2,2.2
			l16.2-0.2l-0.2-0.5C470.6,126.9,470.3,126.4,470.1,125.9z"/>
	</g>
	<g>
		<path class="st6" d="M446.9,128.2c7.8-1.1,16.2-2.4,23.8-3.5c0,0,0,0,0,0C462.8,125.9,454.9,127.1,446.9,128.2L446.9,128.2z"/>
		<path class="st1" d="M446.9,129.2c-0.5,0-1-0.4-1-0.9c0-0.5,0.3-1,0.8-1.1l0.7-0.1c7.7-1.1,15.4-2.3,23.1-3.4c0.3,0,0.6,0,0.8,0.2
			c0.2,0.2,0.3,0.5,0.3,0.8c0,0.5-0.4,0.9-0.9,1l-23.1,3.4c-0.2,0-0.5,0.1-0.7,0.1C447,129.2,447,129.2,446.9,129.2z"/>
	</g>
	<g>
		<path class="st1" d="M442.8,204.6l-8.4-0.8l-0.8-0.1h0c0-0.4,0-0.8-0.1-1.2c2.5-0.8,4.7-1.6,7.1-2.4
			C441.4,201.7,442.1,203.2,442.8,204.6L442.8,204.6z"/>
		<path class="st1" d="M442.8,205.7c-0.1,0-0.2,0-0.2,0l-9.1-0.8c-0.5,0-0.9-0.5-0.9-1c0-0.4,0-0.7-0.1-1.1
			c-0.1-0.5,0.2-0.9,0.7-1.1c2.5-0.8,4.7-1.6,7.1-2.4c0.5-0.2,1,0.1,1.2,0.5c0.7,1.5,1.4,2.9,2.2,4.4c0.2,0.4,0.1,1-0.3,1.3
			C443.2,205.6,443,205.7,442.8,205.7z M435.5,203l5.6,0.5c-0.3-0.7-0.7-1.4-1-2C438.6,202,437.1,202.5,435.5,203z"/>
	</g>
	<g>
		<path class="st1" d="M448,216.2h-25.7c-0.4,0-0.8-0.3-0.9-0.7c-0.3-0.6-0.4-1.2-0.3-1.8c0.3-2.4,3.3-3.6,6.8-5.1
			c1.3-0.5,2.1-0.8,2.7-1c0.7-0.2,0.9-0.3,1.1-0.5c0.7-0.6,1-1.8,1-3.3c0-0.3,0.1-0.6,0.3-0.8c0.2-0.2,0.5-0.3,0.8-0.3l9.2,0.8
			c0.3,0,0.7,0.2,0.8,0.6l5.2,10.6c0.2,0.3,0.1,0.7,0,1C448.7,216,448.4,216.2,448,216.2z M423,214.2h23.4l-4.2-8.6l-7.6-0.7
			c-0.1,1.6-0.7,2.9-1.6,3.7c-0.6,0.6-1.1,0.7-1.9,1c-0.5,0.2-1.3,0.4-2.4,0.9c-2.6,1.1-5.5,2.3-5.7,3.5
			C423,214,423,214.1,423,214.2z"/>
	</g>
	<g>
		<path class="st1" d="M481,247.2c0.1,0.4,0.2,0.3,0.3,0.5c0,0.1,0.1,0.1,0.1,0.2l11.5,2.1c-0.8-1.3-1.7-2.6-2.5-3.9
			c-1.2,0.1-2.5,0.3-3.7,0.4C484.8,246.8,482.9,247,481,247.2L481,247.2z"/>
		<path class="st1" d="M492.9,251.1c-0.1,0-0.1,0-0.2,0l-11.6-2.1c-0.4-0.1-0.7-0.3-0.8-0.7c0,0-0.1-0.1-0.1-0.1
			c-0.1-0.1-0.2-0.3-0.3-0.7c-0.1-0.3-0.1-0.6,0.1-0.9s0.4-0.4,0.7-0.5l5.8-0.7c0.9-0.1,1.7-0.2,2.5-0.3l1.2-0.1
			c0.4-0.1,0.8,0.1,1,0.5c0.5,0.8,1,1.6,1.5,2.4c0.3,0.5,0.6,1,1,1.5c0.2,0.3,0.2,0.8,0,1.1C493.5,250.9,493.2,251.1,492.9,251.1z
			 M485.4,247.7l5.4,1c-0.3-0.5-0.6-1-0.9-1.5l-0.5,0.1c-0.8,0.1-1.7,0.2-2.5,0.3L485.4,247.7z"/>
	</g>
	<g>
		<path class="st1" d="M487.1,272.4h-10.9c-0.3,0-0.6-0.1-0.8-0.3c-0.2-0.2-0.3-0.5-0.2-0.8c0.2-1.4,0.7-3.4,2.4-5.2
			c0.9-1,2-1.7,3.2-2.3l0,0c0.2-4,0.4-8,0.6-12c-0.2-0.5-0.4-1.1-0.6-1.8c-0.3-0.8-0.6-1.5-0.7-2c-0.1-0.3,0-0.7,0.2-1
			c0.2-0.3,0.6-0.4,1-0.3l11.8,2.4c0.3,0.1,0.5,0.2,0.6,0.4l0.9,1.4c0.8,1.3,1.7,2.7,2.5,4c0.2,0.3,0.2,0.7,0,1l-0.9,1.5
			c-0.9,1.6-1.9,3.3-2.8,4.9c-0.9,1.6-1.9,3.3-2.8,4.9l-2.7,4.7C487.8,272.2,487.5,272.4,487.1,272.4z M477.4,270.4h9.1l2.4-4.2
			c0.9-1.6,1.9-3.2,2.8-4.9c0.9-1.6,1.9-3.3,2.8-4.9l0.5-0.9c-0.7-1.2-1.5-2.3-2.2-3.5l-0.7-1l-9.7-1.9c0,0.1,0.1,0.2,0.1,0.3
			c0.3,0.8,0.6,1.5,0.7,2c0,0.1,0.1,0.3,0.1,0.4c-0.2,4.1-0.4,8.1-0.6,12.2l0,0.7c0,0.4-0.3,0.8-0.7,0.9c-1.2,0.4-2.2,1.1-3.1,2
			C478.2,268.4,477.7,269.5,477.4,270.4z"/>
	</g>
	<g>
		<path class="st1" d="M357.7,136.4c-0.3,0-0.5-0.1-0.7-0.3l0,0c-0.2-0.2-0.3-0.5-0.3-0.8c0.3-2.1,1-4.1,2.1-5.8
			c1.3-1.9,2.7-2.9,5.7-4.7l0.1-0.1c3.7-2.3,5.6-3.5,8.4-4.9c2.7-1.4,5.6-2.8,8.6-4.1c1.1-0.5,1.8-0.7,2-0.8
			c5.2-2.2,10.5-6.3,15.8-12.2c0.3-0.4,0.9-0.4,1.3-0.1c1.4,1,2.8,2,4.2,3c1.4,1,2.8,2,4.2,3c0.2,0.2,0.4,0.5,0.4,0.8
			c0,0.3-0.1,0.6-0.4,0.8c-1.9,1.6-3.8,3.2-5.7,4.9l-5,4.2c-0.1,0.1-0.2,0.1-0.3,0.2c-1.4,0.6-2.9,1.3-4.3,2
			c-2.8,1.4-5.8,2.8-8.9,3.5l-0.6,0.1c-8.3,1.8-16.2,3.5-26.2,11.1C358.2,136.3,358,136.4,357.7,136.4z M400.4,104.7
			c-5.3,5.8-10.7,9.8-15.9,12c-0.2,0.1-0.9,0.4-2,0.8c-2.9,1.3-5.8,2.6-8.5,4c-2.7,1.4-4.6,2.6-8.3,4.8l-0.1,0.1
			c-2.8,1.7-4,2.6-5.1,4.1c-0.5,0.7-0.9,1.5-1.2,2.4c9.4-6.6,17.3-8.3,24.9-9.9l0.6-0.1c2.9-0.6,5.8-2,8.5-3.4
			c1.4-0.7,2.8-1.4,4.2-2l4.8-4.1c1.6-1.3,3.2-2.7,4.7-4c-1-0.8-2.1-1.5-3.1-2.3C402.7,106.4,401.5,105.5,400.4,104.7z"/>
	</g>
	<g>
		<path class="st6" d="M426.2,78.6c0.6-0.4,1-0.8,1.1-1"/>
		<path class="st1" d="M426.2,79.6c-0.3,0-0.6-0.1-0.8-0.4c-0.3-0.4-0.2-1.1,0.2-1.4c0.6-0.4,0.9-0.8,0.9-0.8c0.4-0.4,1-0.5,1.4-0.1
			c0.4,0.4,0.5,1,0.1,1.4c-0.2,0.3-0.7,0.7-1.3,1.1C426.6,79.5,426.4,79.6,426.2,79.6z"/>
	</g>
	<g>
		<path class="st1" d="M426.8,82.4c-0.2,0-0.3,0-0.5-0.1c-0.3-0.1-0.4-0.4-0.5-0.7l-0.3-1.5c-1.1,0.5-2.1,0.7-3.2,0.6
			c-1.8-0.2-3-1.3-3.5-1.8c0,0-0.1-0.1-0.1-0.1c-2.6-2.6-3-7.2-2.9-10.6c0-0.5,0.4-0.9,1-1c0.7,0,1.3-0.1,1.7-0.2c1-0.2,2-0.5,3-1.1
			c0.3-0.2,0.7-0.2,1,0c0.3,0.2,0.5,0.6,0.5,0.9l0,0c0,0,0,0.8,0.5,1.3c0.4-1.5,1.3-2.4,2.5-2.4c1.5,0,2.6,1.7,2.6,3.9
			c0,0.4,0,0.9-0.1,1.3c1,1.1,2.2,1.8,3.5,2c0.8,0.2,1.7,0.1,2.5-0.1c0.5-0.1,0.9,0.1,1.1,0.6l0,0.1l3.5,6.8c0.2,0.3,0.1,0.7,0,1
			c-0.2,0.3-0.5,0.5-0.8,0.5c-3.7,0.2-7.4,0.4-11,0.6c0,0-0.1,0-0.1,0C427,82.4,426.9,82.4,426.8,82.4z M426.2,77.6
			c0.1,0,0.2,0,0.3,0.1c0.3,0.1,0.5,0.4,0.6,0.7l0.4,1.9c3-0.2,6.1-0.3,9.1-0.5l-2.5-4.9c-0.9,0.1-1.7,0.1-2.6-0.1
			c-2-0.4-3.7-1.4-5.1-3.1c-0.2-0.3-0.3-0.6-0.2-1c0.1-0.4,0.2-0.8,0.2-1.2c0-1.2-0.5-1.9-0.7-1.9c-0.1,0-0.6,0.6-0.7,1.8
			c0,0.3-0.1,0.5-0.3,0.7c-0.2,0.2-0.5,0.3-0.7,0.3c-0.7,0-1.3-0.3-1.8-0.7c-0.6-0.4-1-1-1.2-1.5c-0.8,0.3-1.6,0.6-2.4,0.7
			c-0.3,0-0.6,0.1-1,0.1c0,3.9,0.8,6.8,2.4,8.3c0,0,0.1,0.1,0.1,0.1c0.4,0.4,1.2,1.1,2.3,1.2c1,0.1,2-0.2,3.1-1
			C425.7,77.6,426,77.6,426.2,77.6z"/>
	</g>
	<g>
		<path class="st1" d="M412.6,66.7c1.1,1.3,2.8,1.5,4.2,1.5c0.7,0,1.4-0.1,1.9-0.2c1.5-0.2,2.6-0.8,3.3-1.2c0,0.1-0.1,1.4,1,2.2
			c0.4,0.3,0.8,0.4,1.3,0.5c0-1.6,0.8-2.8,1.7-2.8s1.6,1.3,1.6,2.9c0,0.6-0.1,1.1-0.2,1.5c0.9,1.1,2.4,2.3,4.5,2.7
			c1.1,0.2,2.1,0.1,2.9-0.1c0,0,0.1,0,0.1,0l0,0c2.8-6,2-12.3-1.7-15.7c-4.1-3.7-12-4.3-14.3-1.2c-0.6,0.8-0.7,1.7-0.7,2.6
			c-1.8-0.6-3.8-0.2-5.1,1C411.2,62.1,411.2,65.1,412.6,66.7L412.6,66.7z"/>
		<path class="st1" d="M433.1,74.9c-0.5,0-1,0-1.4-0.1c-2-0.4-3.7-1.4-5.1-3.1c-0.2-0.3-0.3-0.7-0.2-1c0.1-0.3,0.2-0.7,0.2-1.2
			c0-1.1-0.5-1.8-0.7-1.9c-0.1,0-0.6,0.6-0.6,1.8c0,0.3-0.1,0.5-0.3,0.7c-0.2,0.2-0.5,0.3-0.7,0.3c-0.7,0-1.3-0.3-1.8-0.7
			c-0.6-0.4-1-1-1.2-1.5c-0.7,0.3-1.5,0.6-2.4,0.7c-0.5,0.1-1.2,0.2-2,0.2c-2.2,0.1-3.9-0.5-5-1.8l0,0c-1.6-2-1.8-5.5,0.5-7.7
			c1.3-1.2,3.1-1.8,4.9-1.5c0.1-0.7,0.4-1.4,0.8-1.9c1-1.3,2.7-2.1,5-2.4c3.2-0.3,7.8,0.6,10.8,3.4c4,3.7,4.8,10.7,1.9,16.9
			c-0.1,0.3-0.4,0.5-0.7,0.5c0,0-0.1,0-0.2,0C434.3,74.9,433.7,74.9,433.1,74.9z M428.4,70.8c1,1.1,2.2,1.7,3.5,2
			c0.7,0.1,1.5,0.1,2.2,0c2.3-5.3,1.6-11.1-1.7-14.1c-2.2-2-6-3.2-9.2-2.9c-1.7,0.2-3,0.7-3.6,1.5c-0.4,0.5-0.5,1.1-0.5,2
			c0,0.3-0.2,0.6-0.4,0.8c-0.3,0.2-0.6,0.2-0.9,0.1c-1.5-0.5-3.1-0.2-4.1,0.8c-1.5,1.4-1.4,3.7-0.4,5c0,0,0,0,0,0
			c0.7,0.8,1.8,1.2,3.3,1.1c0.7,0,1.3-0.1,1.8-0.2c1.3-0.2,2.3-0.7,2.9-1.1c0.3-0.2,0.7-0.2,1,0c0.3,0.2,0.5,0.5,0.5,0.9
			c0,0.3,0,0.9,0.5,1.3c0.4-1.5,1.3-2.4,2.5-2.4c1.5,0,2.6,1.7,2.6,3.9C428.5,70,428.5,70.4,428.4,70.8z"/>
	</g>
	<g>
		<path class="st1" d="M434.8,74.8c-0.2,0-0.4,0-0.5-0.1c-0.5-0.3-0.6-0.9-0.3-1.3c0-0.1,0.1-0.2,0.1-0.2c0.3-0.4,1-0.5,1.4-0.2
			c0.4,0.3,0.5,0.9,0.2,1.3c0,0-0.1,0.1-0.1,0.1C435.4,74.7,435.1,74.8,434.8,74.8z"/>
	</g>
</g>
<g>
	<path class="st1" d="M243.5,249.6h-42.1c-0.6,0-1-0.4-1-1s0.4-1,1-1h42.1c0.6,0,1,0.4,1,1S244,249.6,243.5,249.6z"/>
</g>
</svg>
